<?xml version="1.0" encoding="UTF-8"?>
<svg id="Layer_1" xmlns="http://www.w3.org/2000/svg" xmlns:xlink="http://www.w3.org/1999/xlink" version="1.1" viewBox="0 0 530.702451 162.897269">
  <!-- Generator: Adobe Illustrator 29.4.0, SVG Export Plug-In . SVG Version: 2.1.0 Build 152)  -->
  <defs>
    <style>
      .st0, .st1, .st2 {
        fill: none;
      }

      .st1 {
        stroke-linecap: round;
        stroke-width: 3px;
      }

      .st1, .st2 {
        stroke: #000;
        stroke-linejoin: round;
      }

      .st3 {
        fill: url(#linear-gradient2);
      }

      .st4 {
        fill: url(#linear-gradient1);
      }

      .st5 {
        fill: url(#linear-gradient);
      }

      .st2 {
        stroke-width: 1.5px;
      }

      .st6 {
        clip-path: url(#clippath-1);
      }

      .st7 {
        clip-path: url(#clippath-2);
      }

      .st8, .st9, .st10 {
        fill-rule: evenodd;
      }

      .st9 {
        fill: #404040;
      }

      .st10 {
        fill: #020000;
      }

      .st11 {
        clip-path: url(#clippath);
      }
    </style>
    <clipPath id="clippath">
      <rect class="st0" x="1.612277" y="124.66319" width="165.151001" height="18.955597"/>
    </clipPath>
    <linearGradient id="linear-gradient" x1="-84.090024" y1="318.222792" x2="-83.090024" y2="318.222792" gradientTransform="translate(52639.000406 -1450.358128) rotate(-90) scale(18.955601 -165.151001)" gradientUnits="userSpaceOnUse">
      <stop offset="0" stop-color="#fff"/>
      <stop offset=".5466" stop-color="#c8c8c8"/>
      <stop offset="1" stop-color="#000"/>
    </linearGradient>
    <clipPath id="clippath-1">
      <rect class="st0" x="180.464969" y="124.599195" width="165.151001" height="18.955597"/>
    </clipPath>
    <linearGradient id="linear-gradient1" x1="-84.090024" y1="318.222794" x2="-83.090024" y2="318.222794" gradientTransform="translate(52817.853418 -1450.422124) rotate(-90) scale(18.955601 -165.151001)" gradientUnits="userSpaceOnUse">
      <stop offset="0" stop-color="#fff"/>
      <stop offset=".5466" stop-color="#c8c8c8"/>
      <stop offset="1" stop-color="#000"/>
    </linearGradient>
    <clipPath id="clippath-2">
      <rect class="st0" x="363.154971" y="124.2552" width="165.151001" height="18.955597"/>
    </clipPath>
    <linearGradient id="linear-gradient2" x1="-84.090024" y1="318.222788" x2="-83.090024" y2="318.222788" gradientTransform="translate(53000.542413 -1450.766118) rotate(-90) scale(18.955601 -165.151001)" gradientUnits="userSpaceOnUse">
      <stop offset="0" stop-color="#fff"/>
      <stop offset=".5466" stop-color="#c8c8c8"/>
      <stop offset="1" stop-color="#000"/>
    </linearGradient>
  </defs>
  <path d="M30.073062,33.969373l-1.583984,7.608398h4.523926l-.204102.959961h-5.675781l1.799805-8.568359h1.140137Z"/>
  <path d="M36.430972,45.537732v-5.080078h-1.839844v-.679688c.239746,0,.473145-.018555.699707-.055664.226562-.036133.431641-.104492.615234-.204102.183105-.100586.338379-.237305.464844-.410156.126465-.173828.213379-.393555.260254-.660156h.649902v7.089844h-.850098Z"/>
  <path d="M84.049136,2.247205l-1.583984,7.608398h4.523926l-.204102.959961h-5.675781l1.799805-8.568359h1.140137Z"/>
  <path d="M89.967105,9.775525h.279785c.180176,0,.351562-.025391.515137-.075195s.306641-.123047.430176-.219727c.123047-.09668.22168-.21875.294922-.365234s.109863-.313477.109863-.5c0-.379883-.120117-.665039-.359863-.854492-.240234-.19043-.540039-.285156-.899902-.285156-.227051,0-.425293.041992-.595215.125s-.310059.195312-.419922.334961-.191895.303711-.245117.490234-.080078.382812-.080078.589844h-.849609c.013184-.339844.067871-.650391.165039-.930664.096191-.279297.234863-.519531.414551-.719727.180176-.200195.405273-.356445.675293-.469727s.581543-.169922.935059-.169922c.306641,0,.591309.038086.85498.115234.263184.076172.491211.191406.685059.344727.192871.15332.344727.349609.45459.589844.110352.240234.165039.523438.165039.849609,0,.320312-.093262.603516-.279785.850586-.186523.246094-.419922.433594-.700195.55957v.020508c.433594.092773.755371.296875.965332.609375.209961.313477.314941.683594.314941,1.110352,0,.353516-.064941.665039-.195312.93457-.129883.270508-.304688.495117-.524902.675781-.219727.179688-.478516.314453-.774902.404297-.296875.09082-.611816.135742-.944824.135742-.360352,0-.687012-.050781-.97998-.150391-.293457-.099609-.543457-.248047-.75-.445312-.207031-.196289-.365234-.4375-.475098-.724609-.109863-.286133-.161621-.613281-.155273-.980469h.850098c.013184.459961.146484.834961.399902,1.125s.623535.435547,1.110352.435547c.206543,0,.40332-.03125.589844-.094727s.350098-.15332.490234-.270508c.139648-.116211.251465-.259766.334961-.429688.083008-.169922.125-.361328.125-.575195,0-.219727-.040039-.415039-.120117-.584961s-.187012-.313477-.320312-.429688c-.133301-.117188-.291504-.204102-.474609-.260742-.183594-.056641-.381836-.084961-.595215-.084961-.180176,0-.350098.010742-.509766.030273v-.719727c.033203.006836.062988.009766.089844.009766Z"/>
  <path d="M127.976871,36.20033l-1.583984,7.608398h4.523926l-.204102.959961h-5.675781l1.799805-8.568359h1.140137Z"/>
  <path d="M132.174625,42.188611c.093262-.306641.238281-.571289.435059-.794922s.441895-.398438.735352-.525391c.292969-.125977.626465-.189453,1-.189453.306152,0,.594727.044922.864746.134766s.504883.219727.705078.389648c.200195.170898.358398.381836.475098.635742.116211.25293.174805.546875.174805.879883,0,.313477-.04834.589844-.14502.830078-.09668.239258-.225098.455078-.384766.644531-.160156.19043-.34375.362305-.550293.515625s-.419922.299805-.639648.439453c-.220215.133789-.44043.264648-.660156.395508-.220215.129883-.421875.267578-.60498.415039-.183594.146484-.339844.304688-.470215.474609-.129883.169922-.214844.365234-.254883.584961h3.640137v.75h-4.629883c.033203-.419922.10791-.77832.224609-1.075195.116699-.295898.265137-.554688.445312-.774414.179688-.220703.383301-.414062.609863-.580078.226562-.166992.463379-.323242.709961-.470703.299805-.186523.563477-.357422.790039-.514648.226562-.15625.415039-.31543.564941-.474609.149902-.160156.263184-.333984.339844-.520508s.115234-.40332.115234-.649414c0-.193359-.036621-.369141-.109863-.525391-.07373-.15625-.171875-.291992-.29541-.405273-.123047-.113281-.268066-.200195-.43457-.259766-.166992-.05957-.34375-.089844-.530273-.089844-.246582,0-.458496.051758-.634766.155273-.176758.102539-.321777.238281-.435059.404297-.11377.166992-.195312.355469-.245117.56543s-.071777.421875-.064941.634766h-.850098c-.02002-.360352.016602-.693359.109863-1Z"/>
  <path d="M113.098941,73.744275l-1.583984,7.608398h4.523926l-.204102.959961h-5.675781l1.799805-8.568359h1.140137Z"/>
  <path d="M117.296695,79.732556c.093262-.306641.238281-.571289.435059-.794922s.441895-.398438.735352-.525391c.292969-.125977.626465-.189453,1-.189453.306152,0,.594727.044922.864746.134766s.504883.219727.705078.389648c.200195.170898.358398.381836.475098.635742.116211.25293.174805.546875.174805.879883,0,.313477-.04834.589844-.14502.830078-.09668.239258-.225098.455078-.384766.644531-.160156.19043-.34375.362305-.550293.515625s-.419922.299805-.639648.439453c-.220215.133789-.44043.264648-.660156.395508-.220215.129883-.421875.267578-.60498.415039-.183594.146484-.339844.304688-.470215.474609-.129883.169922-.214844.365234-.254883.584961h3.640137v.75h-4.629883c.033203-.419922.10791-.77832.224609-1.075195.116699-.295898.265137-.554688.445312-.774414.179688-.220703.383301-.414062.609863-.580078.226562-.166992.463379-.323242.709961-.470703.299805-.186523.563477-.357422.790039-.514648.226562-.15625.415039-.31543.564941-.474609.149902-.160156.263184-.333984.339844-.520508s.115234-.40332.115234-.649414c0-.193359-.036621-.369141-.109863-.525391-.07373-.15625-.171875-.291992-.29541-.405273-.123047-.113281-.268066-.200195-.43457-.259766-.166992-.05957-.34375-.089844-.530273-.089844-.246582,0-.458496.051758-.634766.155273-.176758.102539-.321777.238281-.435059.404297-.11377.166992-.195312.355469-.245117.56543s-.071777.421875-.064941.634766h-.850098c-.02002-.360352.016602-.693359.109863-1Z"/>
  <path d="M50.964664,73.744275l-1.583984,7.608398h4.524414l-.204102.959961h-5.675781l1.799805-8.568359h1.139648Z"/>
  <path d="M55.162906,79.732556c.093262-.306641.238281-.571289.435059-.794922s.441895-.398438.735352-.525391c.292969-.125977.626465-.189453,1-.189453.306152,0,.594727.044922.864746.134766s.504883.219727.705078.389648c.200195.170898.358398.381836.475098.635742.116211.25293.174805.546875.174805.879883,0,.313477-.04834.589844-.14502.830078-.09668.239258-.225098.455078-.384766.644531-.160156.19043-.34375.362305-.550293.515625s-.419922.299805-.639648.439453c-.220215.133789-.44043.264648-.660156.395508-.220215.129883-.421875.267578-.60498.415039-.183594.146484-.339844.304688-.470215.474609-.129883.169922-.214844.365234-.254883.584961h3.640137v.75h-4.629883c.033203-.419922.10791-.77832.224609-1.075195.116699-.295898.265137-.554688.445312-.774414.179688-.220703.383301-.414062.609863-.580078.226562-.166992.463379-.323242.709961-.470703.299805-.186523.563477-.357422.790039-.514648.226562-.15625.415039-.31543.564941-.474609.149902-.160156.263184-.333984.339844-.520508s.115234-.40332.115234-.649414c0-.193359-.036621-.369141-.109863-.525391-.07373-.15625-.171875-.291992-.29541-.405273-.123047-.113281-.268066-.200195-.43457-.259766-.166992-.05957-.34375-.089844-.530273-.089844-.246582,0-.458496.051758-.634766.155273-.176758.102539-.321777.238281-.435059.404297-.11377.166992-.195312.355469-.245117.56543s-.071777.421875-.064941.634766h-.850098c-.02002-.360352.016602-.693359.109863-1Z"/>
  <g class="st11">
    <rect class="st5" x="1.612277" y="124.66319" width="165.151001" height="18.955597"/>
  </g>
  <path d="M23.714664,140.738416c.360352,0,.709961.03418,1.050293.102539.339844.068359.64209.185547.905762.353516.26416.167969.474121.392578.630371.671875.155762.280273.233887.632812.233887,1.056641,0,.288086-.04834.561523-.144043.822266-.096191.259766-.228027.493164-.395996.701172s-.370117.380859-.605957.516602c-.236328.135742-.498047.223633-.786133.263672v.024414c.184082.055664.337891.143555.461914.263672s.220215.261719.288086.425781.111816.34668.131836.545898c.02002.200195.018066.408203-.005859.624023-.016113.192383-.040039.382812-.071777.570312-.032227.188477-.056152.375977-.072266.564453-.016113.1875-.016113.370117,0,.545898s.067871.347656.15625.515625h-1.187988c-.056152-.160156-.088379-.396484-.096191-.708008s.031738-.6875.120117-1.12793c.063965-.383789.082031-.694336.053711-.929688-.027832-.236328-.085938-.417969-.173828-.545898s-.196289-.216797-.324219-.264648-.255859-.076172-.383789-.083984h-2.987793l-.768066,3.660156h-1.140137l1.812012-8.568359h3.299805ZM23.283023,144.686658c.447754,0,.810059-.05957,1.085938-.179688s.489746-.265625.64209-.438477c.151855-.171875.253906-.355469.305664-.551758.052246-.196289.078125-.370117.078125-.521484,0-.264648-.047852-.480469-.144043-.648438-.095703-.167969-.222168-.299805-.37793-.396484-.155762-.095703-.333984-.161133-.53418-.197266-.199707-.036133-.407715-.054688-.624023-.054688h-2.36377l-.63623,2.988281h2.568359Z"/>
  <path d="M29.449039,152.306775v-5.080078h-1.839844v-.679688c.239746,0,.473145-.018555.699707-.055664.226562-.036133.431641-.104492.615234-.204102.183105-.100586.338379-.237305.464844-.410156.126465-.173828.213379-.393555.260254-.660156h.649902v7.089844h-.850098Z"/>
  <path d="M64.208804,140.738416c.360352,0,.709961.03418,1.050293.102539.339844.068359.64209.185547.905762.353516.26416.167969.474121.392578.630371.671875.155762.280273.233887.632812.233887,1.056641,0,.288086-.04834.561523-.144043.822266-.096191.259766-.228027.493164-.395996.701172s-.370117.380859-.605957.516602c-.236328.135742-.498047.223633-.786133.263672v.024414c.184082.055664.337891.143555.461914.263672s.220215.261719.288086.425781.111816.34668.131836.545898c.02002.200195.018066.408203-.005859.624023-.016113.192383-.040039.382812-.071777.570312-.032227.188477-.056152.375977-.072266.564453-.016113.1875-.016113.370117,0,.545898s.067871.347656.15625.515625h-1.187988c-.056152-.160156-.088379-.396484-.096191-.708008s.031738-.6875.120117-1.12793c.063965-.383789.082031-.694336.053711-.929688-.027832-.236328-.085938-.417969-.173828-.545898s-.196289-.216797-.324219-.264648-.255859-.076172-.383789-.083984h-2.987793l-.768066,3.660156h-1.140137l1.812012-8.568359h3.299805ZM63.777164,144.686658c.447754,0,.810059-.05957,1.085938-.179688s.489746-.265625.64209-.438477c.151855-.171875.253906-.355469.305664-.551758.052246-.196289.078125-.370117.078125-.521484,0-.264648-.047852-.480469-.144043-.648438-.095703-.167969-.222168-.299805-.37793-.396484-.155762-.095703-.333984-.161133-.53418-.197266-.199707-.036133-.407715-.054688-.624023-.054688h-2.36377l-.63623,2.988281h2.568359Z"/>
  <path d="M69.943179,152.306775v-5.080078h-1.839844v-.679688c.239258,0,.472656-.018555.699219-.055664.226562-.036133.431641-.104492.615234-.204102.183594-.100586.338867-.237305.464844-.410156.126953-.173828.213867-.393555.260742-.660156h.649414v7.089844h-.849609Z"/>
  <path d="M102.98273,140.738416c.360352,0,.709961.03418,1.050293.102539.339844.068359.64209.185547.905762.353516.26416.167969.474121.392578.630371.671875.155762.280273.233887.632812.233887,1.056641,0,.288086-.04834.561523-.144043.822266-.096191.259766-.228027.493164-.395996.701172s-.370117.380859-.605957.516602c-.236328.135742-.498047.223633-.786133.263672v.024414c.184082.055664.337891.143555.461914.263672s.220215.261719.288086.425781.111816.34668.131836.545898c.02002.200195.018066.408203-.005859.624023-.016113.192383-.040039.382812-.071777.570312-.032227.188477-.056152.375977-.072266.564453-.016113.1875-.016113.370117,0,.545898s.067871.347656.15625.515625h-1.187988c-.056152-.160156-.088379-.396484-.096191-.708008s.031738-.6875.120117-1.12793c.063965-.383789.082031-.694336.053711-.929688-.027832-.236328-.085938-.417969-.173828-.545898s-.196289-.216797-.324219-.264648-.255859-.076172-.383789-.083984h-2.987793l-.768066,3.660156h-1.140137l1.812012-8.568359h3.299805ZM102.55109,144.686658c.447754,0,.810059-.05957,1.085938-.179688s.489746-.265625.64209-.438477c.151855-.171875.253906-.355469.305664-.551758.052246-.196289.078125-.370117.078125-.521484,0-.264648-.047852-.480469-.144043-.648438-.095703-.167969-.222168-.299805-.37793-.396484-.155762-.095703-.333984-.161133-.53418-.197266-.199707-.036133-.407715-.054688-.624023-.054688h-2.36377l-.63623,2.988281h2.568359Z"/>
  <path d="M106.556949,146.726697c.093262-.306641.238281-.571289.435059-.794922s.441895-.398438.735352-.525391c.292969-.125977.626465-.189453,1-.189453.306152,0,.594727.044922.864746.134766s.504883.219727.705078.389648c.200195.170898.358398.381836.475098.635742.116211.25293.174805.546875.174805.879883,0,.313477-.04834.589844-.14502.830078-.09668.239258-.225098.455078-.384766.644531-.160156.19043-.34375.362305-.550293.515625s-.419922.299805-.639648.439453c-.220215.133789-.44043.264648-.660156.395508-.220215.129883-.421875.267578-.60498.415039-.183594.146484-.339844.304688-.470215.474609-.129883.169922-.214844.365234-.254883.584961h3.640137v.75h-4.629883c.033203-.419922.10791-.77832.224609-1.075195.116699-.295898.265137-.554688.445312-.774414.179688-.220703.383301-.414062.609863-.580078.226562-.166992.463379-.323242.709961-.470703.299805-.186523.563477-.357422.790039-.514648.226562-.15625.415039-.31543.564941-.474609.149902-.160156.263184-.333984.339844-.520508s.115234-.40332.115234-.649414c0-.193359-.036621-.369141-.109863-.525391-.07373-.15625-.171875-.291992-.29541-.405273-.123047-.113281-.268066-.200195-.43457-.259766-.166992-.05957-.34375-.089844-.530273-.089844-.246582,0-.458496.051758-.634766.155273-.176758.102539-.321777.238281-.435059.404297-.11377.166992-.195312.355469-.245117.56543s-.071777.421875-.064941.634766h-.850098c-.02002-.360352.016602-.693359.109863-1Z"/>
  <path d="M142.467593,140.738416c.360352,0,.709961.03418,1.050293.102539.339844.068359.64209.185547.905762.353516.26416.167969.474121.392578.630371.671875.155762.280273.233887.632812.233887,1.056641,0,.288086-.04834.561523-.144043.822266-.096191.259766-.228027.493164-.395996.701172s-.370117.380859-.605957.516602c-.236328.135742-.498047.223633-.786133.263672v.024414c.184082.055664.337891.143555.461914.263672s.220215.261719.288086.425781.111816.34668.131836.545898c.02002.200195.018066.408203-.005859.624023-.016113.192383-.040039.382812-.071777.570312-.032227.188477-.056152.375977-.072266.564453-.016113.1875-.016113.370117,0,.545898s.067871.347656.15625.515625h-1.187988c-.056152-.160156-.088379-.396484-.096191-.708008s.031738-.6875.120117-1.12793c.063965-.383789.082031-.694336.053711-.929688-.027832-.236328-.085938-.417969-.173828-.545898s-.196289-.216797-.324219-.264648-.255859-.076172-.383789-.083984h-2.987793l-.768066,3.660156h-1.140137l1.812012-8.568359h3.299805ZM142.035953,144.686658c.447754,0,.810059-.05957,1.085938-.179688s.489746-.265625.64209-.438477c.151855-.171875.253906-.355469.305664-.551758.052246-.196289.078125-.370117.078125-.521484,0-.264648-.047852-.480469-.144043-.648438-.095703-.167969-.222168-.299805-.37793-.396484-.155762-.095703-.333984-.161133-.53418-.197266-.199707-.036133-.407715-.054688-.624023-.054688h-2.36377l-.63623,2.988281h2.568359Z"/>
  <path d="M146.041812,146.726697c.093262-.306641.238281-.571289.435059-.794922s.441895-.398438.735352-.525391c.292969-.125977.626465-.189453,1-.189453.306152,0,.594727.044922.864746.134766s.504883.219727.705078.389648c.200195.170898.358398.381836.475098.635742.116211.25293.174805.546875.174805.879883,0,.313477-.04834.589844-.14502.830078-.09668.239258-.225098.455078-.384766.644531-.160156.19043-.34375.362305-.550293.515625s-.419922.299805-.639648.439453c-.220215.133789-.44043.264648-.660156.395508-.220215.129883-.421875.267578-.60498.415039-.183594.146484-.339844.304688-.470215.474609-.129883.169922-.214844.365234-.254883.584961h3.640137v.75h-4.629883c.033203-.419922.10791-.77832.224609-1.075195.116699-.295898.265137-.554688.445312-.774414.179688-.220703.383301-.414062.609863-.580078.226562-.166992.463379-.323242.709961-.470703.299805-.186523.563477-.357422.790039-.514648.226562-.15625.415039-.31543.564941-.474609.149902-.160156.263184-.333984.339844-.520508s.115234-.40332.115234-.649414c0-.193359-.036621-.369141-.109863-.525391-.07373-.15625-.171875-.291992-.29541-.405273-.123047-.113281-.268066-.200195-.43457-.259766-.166992-.05957-.34375-.089844-.530273-.089844-.246582,0-.458496.051758-.634766.155273-.176758.102539-.321777.238281-.435059.404297-.11377.166992-.195312.355469-.245117.56543s-.071777.421875-.064941.634766h-.850098c-.02002-.360352.016602-.693359.109863-1Z"/>
  <path class="st9" d="M24.18098,113.26579c-4.560005-.843002-8.019005-4.845001-8.019005-9.647995,0-.570999.050003-1.141006.149002-1.70401l3.366997.594009c-.063995.366989-.097.737991-.097,1.110001,0,3.528,2.864006,6.391998,6.392006,6.391998s6.391998-2.863998,6.391998-6.391998c0-.372009-.033005-.743011-.097-1.110001l3.366997-.594009c.098999.563004.149002,1.133011.149002,1.70401,0,4.802994-3.459,8.804993-8.018997,9.647995v11.477997h-3.584v-11.477997Z"/>
  <path class="st9" d="M141.902973,113.26579c-4.559998-.843002-8.018997-4.845001-8.018997-9.647995,0-.570999.050003-1.141006.149002-1.70401l3.367004.594009c-.064011.366989-.097.737991-.097,1.110001,0,3.528,2.863998,6.391998,6.391998,6.391998s6.391998-2.863998,6.391998-6.391998c0-.372009-.033005-.743011-.097-1.110001l3.367004-.594009c.098999.563004.148987,1.133011.148987,1.70401,0,4.802994-3.459,8.804993-8.018997,9.647995v11.477997h-3.584v-11.477997Z"/>
  <path class="st9" d="M102.978977,113.26579c-4.561005-.843002-8.020004-4.845001-8.020004-9.647995,0-.570999.050003-1.141006.149002-1.70401l3.367996.594009c-.064987.366989-.097.737991-.097,1.110001,0,3.528,2.863998,6.391998,6.391998,6.391998,3.527008,0,6.391006-2.863998,6.391006-6.391998,0-.372009-.031998-.743011-.097-1.110001l3.367996-.594009c.098999.563004.149002,1.133011.149002,1.70401,0,4.802994-3.459,8.804993-8.020004,9.647995v11.477997h-3.582993v-11.477997Z"/>
  <path class="st9" d="M63.621982,113.26579c-4.561005-.843002-8.020004-4.845001-8.020004-9.647995,0-.570999.050003-1.141006.149002-1.70401l3.367996.594009c-.065002.366989-.097.737991-.097,1.110001,0,3.528,2.863998,6.391998,6.391006,6.391998,3.528,0,6.391998-2.863998,6.391998-6.391998,0-.372009-.031998-.743011-.097-1.110001l3.367996-.594009c.098999.563004.149002,1.133011.149002,1.70401,0,4.802994-3.459,8.804993-8.020004,9.647995v11.477997h-3.582993v-11.477997Z"/>
  <path class="st8" d="M49.37897,42.8318c3.121002,0,5.654999,2.533997,5.654999,5.656006,0,3.120972-2.533997,5.654999-5.654999,5.654999-3.121994,0-5.655991-2.534027-5.655991-5.654999,0-3.122009,2.533997-5.656006,5.655991-5.656006Z"/>
  <path class="st10" d="M68.381976,68.928784c3.121002,0,5.654999,2.535004,5.654999,5.656006,0,3.121994-2.533997,5.656006-5.654999,5.656006-3.121994,0-5.656006-2.534012-5.656006-5.656006,0-3.121002,2.534012-5.656006,5.656006-5.656006Z"/>
  <path class="st8" d="M100.441974,70.733792c3.122009,0,5.656006,2.535004,5.656006,5.656006,0,3.121994-2.533997,5.655991-5.656006,5.655991-3.121002,0-5.654999-2.533997-5.654999-5.655991,0-3.121002,2.533997-5.656006,5.654999-5.656006Z"/>
  <path class="st8" d="M86.328983,16.615796c3.121994,0,5.655991,2.533997,5.655991,5.654999,0,3.122009-2.533997,5.656006-5.655991,5.656006-3.121002,0-5.656006-2.533997-5.656006-5.656006,0-3.121002,2.535004-5.654999,5.656006-5.654999Z"/>
  <circle cx="131.299976" cy="54.990796" r="5.656006"/>
  <path d="M224.207828,23.807263l-1.583984,7.608398h4.523926l-.204102.959961h-5.675781l1.799805-8.568359h1.140137Z"/>
  <path d="M230.565738,35.375623v-5.080078h-1.839844v-.679688c.239746,0,.473145-.018555.699707-.055664.226562-.036133.431641-.104492.615234-.204102.183105-.100586.338379-.237305.464844-.410156.126465-.173828.213379-.393555.260254-.660156h.649902v7.089844h-.850098Z"/>
  <path d="M267.983218,2.054334l-1.583984,7.608398h4.523438l-.204102.959961h-5.675781l1.799805-8.568359h1.140625Z"/>
  <path d="M273.901187,9.582654h.279297c.180664,0,.351562-.025391.515625-.075195.163086-.049805.306641-.123047.429688-.219727s.22168-.21875.294922-.365234.110352-.313477.110352-.5c0-.379883-.120117-.665039-.360352-.854492-.240234-.19043-.540039-.285156-.899414-.285156-.227539,0-.425781.041992-.595703.125s-.30957.195312-.419922.334961c-.109375.139648-.191406.303711-.245117.490234-.052734.186523-.080078.382812-.080078.589844h-.849609c.013672-.339844.068359-.650391.165039-.930664.09668-.279297.235352-.519531.415039-.719727s.405273-.356445.674805-.469727c.270508-.113281.582031-.169922.935547-.169922.306641,0,.59082.038086.854492.115234.263672.076172.491211.191406.685547.344727.192383.15332.344727.349609.454102.589844.110352.240234.165039.523438.165039.849609,0,.320312-.092773.603516-.279297.850586-.186523.246094-.419922.433594-.700195.55957v.020508c.433594.092773.754883.296875.964844.609375.209961.313477.31543.683594.31543,1.110352,0,.353516-.06543.665039-.195312.93457-.129883.270508-.304688.495117-.525391.675781-.219727.179688-.478516.314453-.774414.404297-.296875.09082-.612305.135742-.945312.135742-.360352,0-.686523-.050781-.979492-.150391-.293945-.099609-.543945-.248047-.75-.445312-.207031-.196289-.365234-.4375-.475586-.724609-.109375-.286133-.161133-.613281-.155273-.980469h.850586c.012695.459961.146484.834961.399414,1.125.253906.290039.624023.435547,1.110352.435547.207031,0,.40332-.03125.589844-.094727s.350586-.15332.490234-.270508c.139648-.116211.251953-.259766.334961-.429688s.125-.361328.125-.575195c0-.219727-.040039-.415039-.120117-.584961s-.186523-.313477-.320312-.429688c-.132812-.117188-.291016-.204102-.474609-.260742s-.381836-.084961-.594727-.084961c-.180664,0-.350586.010742-.509766.030273v-.719727c.033203.006836.0625.009766.089844.009766Z"/>
  <path d="M320.670718,56.985486l-1.583984,7.608398h4.524414l-.204102.959961h-5.675781l1.799805-8.568359h1.139648Z"/>
  <path d="M324.868961,62.973767c.092773-.306641.238281-.571289.43457-.794922.197266-.223633.442383-.398438.735352-.525391.292969-.125977.626953-.189453,1-.189453.306641,0,.594727.044922.865234.134766.269531.089844.504883.219727.705078.389648.200195.170898.358398.381836.474609.635742.116211.25293.174805.546875.174805.879883,0,.313477-.047852.589844-.144531.830078-.09668.239258-.225586.455078-.384766.644531-.160156.19043-.34375.362305-.550781.515625-.206055.15332-.419922.299805-.639648.439453-.219727.133789-.44043.264648-.660156.395508-.219727.129883-.421875.267578-.604492.415039-.183594.146484-.339844.304688-.470703.474609-.129883.169922-.214844.365234-.254883.584961h3.640625v.75h-4.629883c.033203-.419922.107422-.77832.224609-1.075195.116211-.295898.264648-.554688.445312-.774414.179688-.220703.382812-.414062.609375-.580078.226562-.166992.463867-.323242.709961-.470703.299805-.186523.563477-.357422.790039-.514648.226562-.15625.415039-.31543.56543-.474609.149414-.160156.262695-.333984.339844-.520508.076172-.186523.115234-.40332.115234-.649414,0-.193359-.037109-.369141-.110352-.525391s-.171875-.291992-.294922-.405273-.268555-.200195-.43457-.259766c-.166992-.05957-.34375-.089844-.530273-.089844-.24707,0-.458984.051758-.634766.155273-.176758.102539-.322266.238281-.435547.404297-.113281.166992-.195312.355469-.245117.56543s-.071289.421875-.064453.634766h-.850586c-.019531-.360352.016602-.693359.110352-1Z"/>
  <path d="M299.075015,93.254529l-1.583984,7.608398h4.523438l-.204102.959961h-5.675781l1.799805-8.568359h1.140625Z"/>
  <path d="M303.273258,99.24281c.092773-.306641.238281-.571289.43457-.794922s.442383-.398438.735352-.525391c.292969-.125977.626953-.189453,1-.189453.306641,0,.594727.044922.865234.134766.269531.089844.503906.219727.705078.389648.199219.170898.357422.381836.474609.635742.116211.25293.174805.546875.174805.879883,0,.313477-.047852.589844-.145508.830078-.095703.239258-.224609.455078-.384766.644531-.160156.19043-.34375.362305-.549805.515625s-.419922.299805-.639648.439453c-.220703.133789-.44043.264648-.660156.395508-.220703.129883-.421875.267578-.605469.415039-.183594.146484-.339844.304688-.469727.474609s-.214844.365234-.254883.584961h3.640625v.75h-4.630859c.033203-.419922.108398-.77832.224609-1.075195.117188-.295898.265625-.554688.445312-.774414.179688-.220703.383789-.414062.610352-.580078.226562-.166992.463867-.323242.709961-.470703.299805-.186523.563477-.357422.790039-.514648.226562-.15625.415039-.31543.56543-.474609.149414-.160156.262695-.333984.339844-.520508.076172-.186523.115234-.40332.115234-.649414,0-.193359-.037109-.369141-.110352-.525391s-.171875-.291992-.295898-.405273c-.123047-.113281-.267578-.200195-.433594-.259766-.167969-.05957-.34375-.089844-.53125-.089844-.246094,0-.458008.051758-.634766.155273-.175781.102539-.321289.238281-.43457.404297-.114258.166992-.195312.355469-.245117.56543s-.072266.421875-.064453.634766h-.850586c-.020508-.360352.016602-.693359.110352-1Z"/>
  <path d="M219.478824,80.247205l-1.583984,7.608398h4.523926l-.204102.959961h-5.675781l1.799805-8.568359h1.140137Z"/>
  <path d="M223.676578,86.235486c.093262-.306641.238281-.571289.435059-.794922s.441895-.398438.735352-.525391c.292969-.125977.626465-.189453,1-.189453.306152,0,.594727.044922.864746.134766s.504883.219727.705078.389648c.200195.170898.358398.381836.475098.635742.116211.25293.174805.546875.174805.879883,0,.313477-.04834.589844-.14502.830078-.09668.239258-.225098.455078-.384766.644531-.160156.19043-.34375.362305-.550293.515625s-.419922.299805-.639648.439453c-.220215.133789-.44043.264648-.660156.395508-.220215.129883-.421875.267578-.60498.415039-.183594.146484-.339844.304688-.470215.474609-.129883.169922-.214844.365234-.254883.584961h3.640137v.75h-4.629883c.033203-.419922.10791-.77832.224609-1.075195.116699-.295898.265137-.554688.445312-.774414.179688-.220703.383301-.414062.609863-.580078.226562-.166992.463379-.323242.709961-.470703.299805-.186523.563477-.357422.790039-.514648.226562-.15625.415039-.31543.564941-.474609.149902-.160156.263184-.333984.339844-.520508s.115234-.40332.115234-.649414c0-.193359-.036621-.369141-.109863-.525391-.07373-.15625-.171875-.291992-.29541-.405273-.123047-.113281-.268066-.200195-.43457-.259766-.166992-.05957-.34375-.089844-.530273-.089844-.246582,0-.458496.051758-.634766.155273-.176758.102539-.321777.238281-.435059.404297-.11377.166992-.195312.355469-.245117.56543s-.071777.421875-.064941.634766h-.850098c-.02002-.360352.016602-.693359.109863-1Z"/>
  <g class="st6">
    <rect class="st4" x="180.464969" y="124.599195" width="165.151001" height="18.955597"/>
  </g>
  <path d="M202.567691,140.673963c.360352,0,.709961.03418,1.050293.102539.339844.068359.64209.185547.905762.353516.26416.167969.474121.392578.630371.671875.155762.280273.233887.632812.233887,1.056641,0,.288086-.04834.561523-.144043.822266-.096191.259766-.228027.493164-.395996.701172s-.370117.380859-.605957.516602c-.236328.135742-.498047.223633-.786133.263672v.024414c.184082.055664.337891.143555.461914.263672s.220215.261719.288086.425781.111816.34668.131836.545898c.02002.200195.018066.408203-.005859.624023-.016113.192383-.040039.382812-.071777.570312-.032227.188477-.056152.375977-.072266.564453-.016113.1875-.016113.370117,0,.545898s.067871.347656.15625.515625h-1.187988c-.056152-.160156-.088379-.396484-.096191-.708008s.031738-.6875.120117-1.12793c.063965-.383789.082031-.694336.053711-.929688-.027832-.236328-.085938-.417969-.173828-.545898s-.196289-.216797-.324219-.264648-.255859-.076172-.383789-.083984h-2.987793l-.768066,3.660156h-1.140137l1.812012-8.568359h3.299805ZM202.136051,144.622205c.447754,0,.810059-.05957,1.085938-.179688s.489746-.265625.64209-.438477c.151855-.171875.253906-.355469.305664-.551758.052246-.196289.078125-.370117.078125-.521484,0-.264648-.047852-.480469-.144043-.648438-.095703-.167969-.222168-.299805-.37793-.396484-.155762-.095703-.333984-.161133-.53418-.197266-.199707-.036133-.407715-.054688-.624023-.054688h-2.36377l-.63623,2.988281h2.568359Z"/>
  <path d="M208.302066,152.242322v-5.080078h-1.839844v-.679688c.239746,0,.473145-.018555.699707-.055664.226562-.036133.431641-.104492.615234-.204102.183105-.100586.338379-.237305.464844-.410156.126465-.173828.213379-.393555.260254-.660156h.649902v7.089844h-.850098Z"/>
  <path d="M243.061343,140.673963c.360352,0,.709961.03418,1.050781.102539.339844.068359.641602.185547.905273.353516.264648.167969.474609.392578.630859.671875.155273.280273.233398.632812.233398,1.056641,0,.288086-.047852.561523-.143555.822266-.09668.259766-.228516.493164-.396484.701172s-.370117.380859-.605469.516602c-.236328.135742-.498047.223633-.786133.263672v.024414c.183594.055664.337891.143555.461914.263672s.219727.261719.288086.425781c.067383.164062.111328.34668.131836.545898.019531.200195.017578.408203-.005859.624023-.016602.192383-.040039.382812-.072266.570312-.032227.188477-.055664.375977-.072266.564453-.015625.1875-.015625.370117,0,.545898.016602.175781.068359.347656.15625.515625h-1.1875c-.056641-.160156-.088867-.396484-.09668-.708008s.032227-.6875.120117-1.12793c.064453-.383789.082031-.694336.053711-.929688-.027344-.236328-.085938-.417969-.173828-.545898s-.196289-.216797-.324219-.264648-.255859-.076172-.383789-.083984h-2.987305l-.768066,3.660156h-1.140137l1.812012-8.568359h3.299316ZM242.629703,144.622205c.448242,0,.810547-.05957,1.085938-.179688.276367-.120117.490234-.265625.642578-.438477.151367-.171875.253906-.355469.305664-.551758s.078125-.370117.078125-.521484c0-.264648-.047852-.480469-.144531-.648438-.095703-.167969-.22168-.299805-.37793-.396484-.155273-.095703-.333984-.161133-.53418-.197266-.199219-.036133-.407227-.054688-.624023-.054688h-2.363281l-.636719,2.988281h2.568359Z"/>
  <path d="M248.795718,152.242322v-5.080078h-1.839844v-.679688c.240234,0,.473633-.018555.700195-.055664.226562-.036133.431641-.104492.615234-.204102.182617-.100586.337891-.237305.464844-.410156.125977-.173828.212891-.393555.259766-.660156h.650391v7.089844h-.850586Z"/>
  <path d="M281.835758,140.673963c.360352,0,.709961.03418,1.050781.102539.339844.068359.641602.185547.905273.353516.264648.167969.474609.392578.630859.671875.155273.280273.233398.632812.233398,1.056641,0,.288086-.047852.561523-.143555.822266-.09668.259766-.228516.493164-.396484.701172s-.370117.380859-.605469.516602c-.236328.135742-.498047.223633-.786133.263672v.024414c.183594.055664.337891.143555.461914.263672s.219727.261719.288086.425781c.067383.164062.111328.34668.131836.545898.019531.200195.017578.408203-.005859.624023-.016602.192383-.040039.382812-.072266.570312-.032227.188477-.055664.375977-.072266.564453-.015625.1875-.015625.370117,0,.545898.016602.175781.068359.347656.15625.515625h-1.1875c-.056641-.160156-.088867-.396484-.09668-.708008s.032227-.6875.120117-1.12793c.064453-.383789.082031-.694336.053711-.929688-.027344-.236328-.085938-.417969-.173828-.545898s-.196289-.216797-.324219-.264648-.255859-.076172-.383789-.083984h-2.987305l-.768555,3.660156h-1.139648l1.811523-8.568359h3.299805ZM281.404117,144.622205c.448242,0,.810547-.05957,1.085938-.179688.276367-.120117.490234-.265625.642578-.438477.151367-.171875.253906-.355469.305664-.551758s.078125-.370117.078125-.521484c0-.264648-.047852-.480469-.144531-.648438-.095703-.167969-.22168-.299805-.37793-.396484-.155273-.095703-.333984-.161133-.53418-.197266-.199219-.036133-.407227-.054688-.624023-.054688h-2.363281l-.636719,2.988281h2.568359Z"/>
  <path d="M285.409976,146.662244c.092773-.306641.238281-.571289.43457-.794922.197266-.223633.442383-.398438.735352-.525391.292969-.125977.626953-.189453,1-.189453.306641,0,.594727.044922.865234.134766.269531.089844.504883.219727.705078.389648.200195.170898.358398.381836.474609.635742.116211.25293.174805.546875.174805.879883,0,.313477-.047852.589844-.144531.830078-.09668.239258-.225586.455078-.384766.644531-.160156.19043-.34375.362305-.550781.515625-.206055.15332-.419922.299805-.639648.439453-.219727.133789-.44043.264648-.660156.395508-.219727.129883-.421875.267578-.604492.415039-.183594.146484-.339844.304688-.470703.474609-.129883.169922-.214844.365234-.254883.584961h3.640625v.75h-4.629883c.033203-.419922.107422-.77832.224609-1.075195.116211-.295898.264648-.554688.445312-.774414.179688-.220703.382812-.414062.609375-.580078.226562-.166992.463867-.323242.709961-.470703.299805-.186523.563477-.357422.790039-.514648.226562-.15625.415039-.31543.56543-.474609.149414-.160156.262695-.333984.339844-.520508.076172-.186523.115234-.40332.115234-.649414,0-.193359-.037109-.369141-.110352-.525391s-.171875-.291992-.294922-.405273-.268555-.200195-.43457-.259766c-.166992-.05957-.34375-.089844-.530273-.089844-.24707,0-.458984.051758-.634766.155273-.176758.102539-.322266.238281-.435547.404297-.113281.166992-.195312.355469-.245117.56543s-.071289.421875-.064453.634766h-.850586c-.019531-.360352.016602-.693359.110352-1Z"/>
  <path d="M321.322086,140.673963c.360352,0,.709961.03418,1.049805.102539s.642578.185547.90625.353516.473633.392578.629883.671875c.15625.280273.234375.632812.234375,1.056641,0,.288086-.048828.561523-.144531.822266-.095703.259766-.227539.493164-.395508.701172s-.370117.380859-.606445.516602-.498047.223633-.786133.263672v.024414c.18457.055664.337891.143555.461914.263672s.220703.261719.288086.425781c.068359.164062.112305.34668.131836.545898.020508.200195.018555.408203-.005859.624023-.015625.192383-.040039.382812-.071289.570312-.032227.188477-.056641.375977-.072266.564453-.016602.1875-.016602.370117,0,.545898.015625.175781.067383.347656.15625.515625h-1.188477c-.055664-.160156-.087891-.396484-.095703-.708008s.03125-.6875.120117-1.12793c.063477-.383789.082031-.694336.053711-.929688-.02832-.236328-.085938-.417969-.173828-.545898s-.196289-.216797-.324219-.264648-.255859-.076172-.383789-.083984h-2.988281l-.767578,3.660156h-1.140625l1.8125-8.568359h3.299805ZM320.890445,144.622205c.447266,0,.80957-.05957,1.085938-.179688.275391-.120117.489258-.265625.641602-.438477.152344-.171875.253906-.355469.305664-.551758.052734-.196289.078125-.370117.078125-.521484,0-.264648-.047852-.480469-.143555-.648438s-.222656-.299805-.37793-.396484c-.15625-.095703-.333984-.161133-.53418-.197266s-.408203-.054688-.624023-.054688h-2.364258l-.635742,2.988281h2.568359Z"/>
  <path d="M324.895328,146.662244c.09375-.306641.238281-.571289.435547-.794922.196289-.223633.441406-.398438.735352-.525391.292969-.125977.625977-.189453,1-.189453.305664,0,.594727.044922.864258.134766.270508.089844.504883.219727.705078.389648.200195.170898.358398.381836.475586.635742.116211.25293.174805.546875.174805.879883,0,.313477-.048828.589844-.145508.830078-.09668.239258-.224609.455078-.384766.644531-.160156.19043-.34375.362305-.549805.515625-.207031.15332-.419922.299805-.639648.439453-.220703.133789-.44043.264648-.660156.395508-.220703.129883-.421875.267578-.605469.415039-.183594.146484-.339844.304688-.469727.474609s-.214844.365234-.254883.584961h3.639648v.75h-4.629883c.033203-.419922.108398-.77832.224609-1.075195.117188-.295898.265625-.554688.445312-.774414.179688-.220703.383789-.414062.610352-.580078.226562-.166992.462891-.323242.709961-.470703.299805-.186523.563477-.357422.790039-.514648.226562-.15625.415039-.31543.564453-.474609.150391-.160156.263672-.333984.339844-.520508.077148-.186523.115234-.40332.115234-.649414,0-.193359-.036133-.369141-.109375-.525391-.074219-.15625-.171875-.291992-.295898-.405273-.123047-.113281-.267578-.200195-.43457-.259766s-.34375-.089844-.530273-.089844c-.246094,0-.458008.051758-.634766.155273-.176758.102539-.321289.238281-.43457.404297-.114258.166992-.195312.355469-.245117.56543s-.072266.421875-.06543.634766h-.849609c-.020508-.360352.016602-.693359.109375-1Z"/>
  <path class="st9" d="M203.033969,113.201795c-4.559998-.843002-8.018982-4.845001-8.018982-9.64801,0-.570999.049988-1.140991.148987-1.702988l3.368011.592987c-.065002.367004-.098022.738007-.098022,1.110001,0,3.528,2.864014,6.392014,6.391998,6.392014,3.528015,0,6.392029-2.864014,6.392029-6.392014,0-.371994-.03302-.742996-.097015-1.110001l3.367004-.592987c.100006.561996.148987,1.131989.148987,1.702988,0,4.803009-3.457977,8.805008-8.018982,9.64801v11.477997h-3.584015v-11.477997Z"/>
  <path class="st9" d="M320.755985,113.201795c-4.559998-.843002-8.019012-4.845001-8.019012-9.64801,0-.570999.050018-1.140991.149017-1.702988l3.367981.592987c-.065002.367004-.097992.738007-.097992,1.110001,0,3.528,2.863983,6.392014,6.391998,6.392014,3.527985,0,6.391998-2.864014,6.391998-6.392014,0-.371994-.03299-.742996-.096985-1.110001l3.366974-.592987c.100006.561996.149017,1.131989.149017,1.702988,0,4.803009-3.458008,8.805008-8.019012,9.64801v11.477997h-3.583984v-11.477997Z"/>
  <path class="st9" d="M281.831973,113.201795c-4.561005-.843002-8.019989-4.845001-8.019989-9.64801,0-.570999.049988-1.140991.148987-1.702988l3.368011.592987c-.065002.367004-.097015.738007-.097015,1.110001,0,3.528,2.864014,6.392014,6.391998,6.392014,3.527008,0,6.391022-2.864014,6.391022-6.392014,0-.371994-.032013-.742996-.097015-1.110001l3.368011-.592987c.098999.561996.148987,1.131989.148987,1.702988,0,4.803009-3.458984,8.805008-8.018982,9.64801v11.477997h-3.584015v-11.477997Z"/>
  <path class="st9" d="M242.474979,113.201795c-4.561005-.843002-8.019989-4.845001-8.019989-9.64801,0-.570999.049988-1.140991.148987-1.702988l3.368011.592987c-.065002.367004-.097015.738007-.097015,1.110001,0,3.528,2.864014,6.392014,6.390991,6.392014,3.528015,0,6.391998-2.864014,6.391998-6.392014,0-.371994-.031982-.742996-.096985-1.110001l3.368011-.592987c.098999.561996.148987,1.131989.148987,1.702988,0,4.803009-3.458984,8.805008-8.019989,9.64801v11.477997h-3.583008v-11.477997Z"/>
  <path class="st8" d="M230.670963,41.320783c3.121002,0,5.654999,2.535004,5.654999,5.656006s-2.533997,5.656006-5.654999,5.656006c-3.121979,0-5.655975-2.535004-5.655975-5.656006s2.533997-5.656006,5.655975-5.656006Z"/>
  <path class="st10" d="M236.325961,74.591794c3.122009,0,5.656006,2.535004,5.656006,5.655991,0,3.122009-2.533997,5.656006-5.656006,5.656006-3.120972,0-5.654999-2.533997-5.654999-5.656006,0-3.120987,2.534027-5.655991,5.654999-5.655991Z"/>
  <path class="st8" d="M283.630985,97.940793c3.121002,0,5.654999,2.533997,5.654999,5.655991,0,3.121002-2.533997,5.656006-5.654999,5.656006-3.122009,0-5.656006-2.535004-5.656006-5.656006,0-3.121994,2.533997-5.655991,5.656006-5.655991Z"/>
  <path class="st8" d="M264.958988,14.672803c3.121979,0,5.655975,2.533997,5.655975,5.655975,0,3.121002-2.533997,5.654999-5.655975,5.654999-3.121002,0-5.654999-2.533997-5.654999-5.654999,0-3.121979,2.533997-5.655975,5.654999-5.655975Z"/>
  <circle cx="308.762973" cy="68.088792" r="5.656004"/>
  <path d="M416.338687,53.601209l-1.583984,7.608398h4.524414l-.204102.959961h-5.675781l1.799805-8.568359h1.139648Z"/>
  <path d="M422.697086,65.169568v-5.080078h-1.839844v-.679688c.239258,0,.472656-.018555.699219-.055664.226562-.036133.431641-.104492.615234-.204102.183594-.100586.338867-.237305.464844-.410156.126953-.173828.213867-.393555.260742-.660156h.649414v7.089844h-.849609Z"/>
  <path d="M435.272281,2.054334l-1.583984,7.608398h4.523438l-.204102.959961h-5.675781l1.799805-8.568359h1.140625Z"/>
  <path d="M441.19025,9.582654h.279297c.180664,0,.351562-.025391.515625-.075195.163086-.049805.306641-.123047.429688-.219727s.22168-.21875.294922-.365234.110352-.313477.110352-.5c0-.379883-.120117-.665039-.360352-.854492-.240234-.19043-.540039-.285156-.899414-.285156-.227539,0-.425781.041992-.595703.125s-.30957.195312-.419922.334961c-.109375.139648-.191406.303711-.245117.490234-.052734.186523-.080078.382812-.080078.589844h-.849609c.013672-.339844.068359-.650391.165039-.930664.09668-.279297.235352-.519531.415039-.719727s.405273-.356445.674805-.469727c.270508-.113281.582031-.169922.935547-.169922.306641,0,.59082.038086.854492.115234.263672.076172.491211.191406.685547.344727.192383.15332.344727.349609.454102.589844.110352.240234.165039.523438.165039.849609,0,.320312-.092773.603516-.279297.850586-.186523.246094-.419922.433594-.700195.55957v.020508c.433594.092773.754883.296875.964844.609375.209961.313477.31543.683594.31543,1.110352,0,.353516-.06543.665039-.195312.93457-.129883.270508-.304688.495117-.525391.675781-.219727.179688-.478516.314453-.774414.404297-.296875.09082-.612305.135742-.945312.135742-.360352,0-.686523-.050781-.979492-.150391-.293945-.099609-.543945-.248047-.75-.445312-.207031-.196289-.365234-.4375-.475586-.724609-.109375-.286133-.161133-.613281-.155273-.980469h.850586c.012695.459961.146484.834961.399414,1.125.253906.290039.624023.435547,1.110352.435547.207031,0,.40332-.03125.589844-.094727s.350586-.15332.490234-.270508c.139648-.116211.251953-.259766.334961-.429688s.125-.361328.125-.575195c0-.219727-.040039-.415039-.120117-.584961s-.186523-.313477-.320312-.429688c-.132812-.117188-.291016-.204102-.474609-.260742s-.381836-.084961-.594727-.084961c-.180664,0-.350586.010742-.509766.030273v-.719727c.033203.006836.0625.009766.089844.009766Z"/>
  <path d="M515.59064,85.129529l-1.583984,7.608398h4.524414l-.204102.959961h-5.675781l1.799805-8.568359h1.139648Z"/>
  <path d="M519.788883,91.11781c.092773-.306641.238281-.571289.43457-.794922.197266-.223633.442383-.398438.735352-.525391.292969-.125977.626953-.189453,1-.189453.306641,0,.594727.044922.865234.134766.269531.089844.504883.219727.705078.389648.200195.170898.358398.381836.474609.635742.116211.25293.174805.546875.174805.879883,0,.313477-.047852.589844-.144531.830078-.09668.239258-.225586.455078-.384766.644531-.160156.19043-.34375.362305-.550781.515625-.206055.15332-.419922.299805-.639648.439453-.219727.133789-.44043.264648-.660156.395508-.219727.129883-.421875.267578-.604492.415039-.183594.146484-.339844.304688-.470703.474609-.129883.169922-.214844.365234-.254883.584961h3.640625v.75h-4.629883c.033203-.419922.107422-.77832.224609-1.075195.116211-.295898.264648-.554688.445312-.774414.179688-.220703.382812-.414062.609375-.580078.226562-.166992.463867-.323242.709961-.470703.299805-.186523.563477-.357422.790039-.514648.226562-.15625.415039-.31543.56543-.474609.149414-.160156.262695-.333984.339844-.520508.076172-.186523.115234-.40332.115234-.649414,0-.193359-.037109-.369141-.110352-.525391s-.171875-.291992-.294922-.405273-.268555-.200195-.43457-.259766c-.166992-.05957-.34375-.089844-.530273-.089844-.24707,0-.458984.051758-.634766.155273-.176758.102539-.322266.238281-.435547.404297-.113281.166992-.195312.355469-.245117.56543s-.071289.421875-.064453.634766h-.850586c-.019531-.360352.016602-.693359.110352-1Z"/>
  <path d="M449.383609,88.55531l-1.583984,7.608398h4.524414l-.204102.959961h-5.675781l1.799805-8.568359h1.139648Z"/>
  <path d="M453.581851,94.543592c.092773-.306641.238281-.571289.43457-.794922.197266-.223633.442383-.398438.735352-.525391.292969-.125977.626953-.189453,1-.189453.306641,0,.594727.044922.865234.134766.269531.089844.504883.219727.705078.389648.200195.170898.358398.381836.474609.635742.116211.25293.174805.546875.174805.879883,0,.313477-.047852.589844-.144531.830078-.09668.239258-.225586.455078-.384766.644531-.160156.19043-.34375.362305-.550781.515625-.206055.15332-.419922.299805-.639648.439453-.219727.133789-.44043.264648-.660156.395508-.219727.129883-.421875.267578-.604492.415039-.183594.146484-.339844.304688-.470703.474609-.129883.169922-.214844.365234-.254883.584961h3.640625v.75h-4.629883c.033203-.419922.107422-.77832.224609-1.075195.116211-.295898.264648-.554688.445312-.774414.179688-.220703.382812-.414062.609375-.580078.226562-.166992.463867-.323242.709961-.470703.299805-.186523.563477-.357422.790039-.514648.226562-.15625.415039-.31543.56543-.474609.149414-.160156.262695-.333984.339844-.520508.076172-.186523.115234-.40332.115234-.649414,0-.193359-.037109-.369141-.110352-.525391s-.171875-.291992-.294922-.405273-.268555-.200195-.43457-.259766c-.166992-.05957-.34375-.089844-.530273-.089844-.24707,0-.458984.051758-.634766.155273-.176758.102539-.322266.238281-.435547.404297-.113281.166992-.195312.355469-.245117.56543s-.071289.421875-.064453.634766h-.850586c-.019531-.360352.016602-.693359.110352-1Z"/>
  <path d="M502.606265,22.879529l-1.583984,7.608398h4.523438l-.204102.959961h-5.675781l1.799805-8.568359h1.140625Z"/>
  <path d="M506.803531,28.86781c.09375-.306641.238281-.571289.435547-.794922.196289-.223633.441406-.398438.735352-.525391.292969-.125977.625977-.189453,1-.189453.305664,0,.594727.044922.864258.134766.270508.089844.504883.219727.705078.389648.200195.170898.358398.381836.475586.635742.116211.25293.174805.546875.174805.879883,0,.313477-.048828.589844-.145508.830078-.09668.239258-.224609.455078-.384766.644531-.160156.19043-.34375.362305-.549805.515625-.207031.15332-.419922.299805-.639648.439453-.220703.133789-.44043.264648-.660156.395508-.220703.129883-.421875.267578-.605469.415039-.183594.146484-.339844.304688-.469727.474609s-.214844.365234-.254883.584961h3.639648v.75h-4.629883c.033203-.419922.108398-.77832.224609-1.075195.117188-.295898.265625-.554688.445312-.774414.179688-.220703.383789-.414062.610352-.580078.226562-.166992.462891-.323242.709961-.470703.299805-.186523.563477-.357422.790039-.514648.226562-.15625.415039-.31543.564453-.474609.150391-.160156.263672-.333984.339844-.520508.077148-.186523.115234-.40332.115234-.649414,0-.193359-.036133-.369141-.109375-.525391-.074219-.15625-.171875-.291992-.295898-.405273-.123047-.113281-.267578-.200195-.43457-.259766s-.34375-.089844-.530273-.089844c-.246094,0-.458008.051758-.634766.155273-.176758.102539-.321289.238281-.43457.404297-.114258.166992-.195312.355469-.245117.56543s-.072266.421875-.06543.634766h-.849609c-.020508-.360352.016602-.693359.109375-1Z"/>
  <g class="st7">
    <rect class="st3" x="363.154971" y="124.2552" width="165.151001" height="18.955597"/>
  </g>
  <path d="M385.257633,140.330213c.360352,0,.709961.03418,1.050781.102539.339844.068359.641602.185547.905273.353516.264648.167969.474609.392578.630859.671875.155273.280273.233398.632812.233398,1.056641,0,.288086-.047852.561523-.143555.822266-.09668.259766-.228516.493164-.396484.701172s-.370117.380859-.605469.516602c-.236328.135742-.498047.223633-.786133.263672v.024414c.183594.055664.337891.143555.461914.263672s.219727.261719.288086.425781c.067383.164062.111328.34668.131836.545898.019531.200195.017578.408203-.005859.624023-.016602.192383-.040039.382812-.072266.570312-.032227.188477-.055664.375977-.072266.564453-.015625.1875-.015625.370117,0,.545898.016602.175781.068359.347656.15625.515625h-1.1875c-.056641-.160156-.088867-.396484-.09668-.708008s.032227-.6875.120117-1.12793c.064453-.383789.082031-.694336.053711-.929688-.027344-.236328-.085938-.417969-.173828-.545898s-.196289-.216797-.324219-.264648-.255859-.076172-.383789-.083984h-2.987305l-.768555,3.660156h-1.139648l1.811523-8.568359h3.299805ZM384.825992,144.278455c.448242,0,.810547-.05957,1.085938-.179688.276367-.120117.490234-.265625.642578-.438477.151367-.171875.253906-.355469.305664-.551758s.078125-.370117.078125-.521484c0-.264648-.047852-.480469-.144531-.648438-.095703-.167969-.22168-.299805-.37793-.396484-.155273-.095703-.333984-.161133-.53418-.197266-.199219-.036133-.407227-.054688-.624023-.054688h-2.363281l-.636719,2.988281h2.568359Z"/>
  <path d="M390.992008,151.898572v-5.080078h-1.839844v-.679688c.239258,0,.472656-.018555.699219-.055664.226562-.036133.431641-.104492.615234-.204102.183594-.100586.338867-.237305.464844-.410156.126953-.173828.213867-.393555.260742-.660156h.649414v7.089844h-.849609Z"/>
  <path d="M425.751773,140.330213c.360352,0,.709961.03418,1.050781.102539.339844.068359.641602.185547.905273.353516.264648.167969.473633.392578.629883.671875.15625.280273.234375.632812.234375,1.056641,0,.288086-.048828.561523-.144531.822266-.095703.259766-.227539.493164-.395508.701172s-.370117.380859-.606445.516602-.498047.223633-.785156.263672v.024414c.183594.055664.337891.143555.460938.263672.125.120117.220703.261719.289062.425781.067383.164062.111328.34668.130859.545898.020508.200195.018555.408203-.005859.624023-.015625.192383-.039062.382812-.071289.570312-.032227.188477-.055664.375977-.072266.564453-.016602.1875-.016602.370117,0,.545898s.067383.347656.15625.515625h-1.188477c-.055664-.160156-.087891-.396484-.095703-.708008s.03125-.6875.120117-1.12793c.063477-.383789.082031-.694336.053711-.929688-.027344-.236328-.085938-.417969-.173828-.545898s-.196289-.216797-.324219-.264648-.255859-.076172-.383789-.083984h-2.987305l-.768555,3.660156h-1.139648l1.811523-8.568359h3.299805ZM425.320133,144.278455c.447266,0,.810547-.05957,1.085938-.179688s.490234-.265625.642578-.438477c.151367-.171875.253906-.355469.304688-.551758.052734-.196289.078125-.370117.078125-.521484,0-.264648-.046875-.480469-.143555-.648438-.095703-.167969-.22168-.299805-.37793-.396484-.15625-.095703-.333984-.161133-.53418-.197266s-.407227-.054688-.624023-.054688h-2.363281l-.636719,2.988281h2.568359Z"/>
  <path d="M431.486148,151.898572v-5.080078h-1.839844v-.679688c.239258,0,.472656-.018555.699219-.055664.226562-.036133.431641-.104492.615234-.204102.183594-.100586.338867-.237305.464844-.410156.126953-.173828.213867-.393555.260742-.660156h.649414v7.089844h-.849609Z"/>
  <path d="M464.526187,140.330213c.360352,0,.709961.03418,1.049805.102539s.642578.185547.90625.353516.473633.392578.629883.671875c.15625.280273.234375.632812.234375,1.056641,0,.288086-.048828.561523-.144531.822266-.095703.259766-.227539.493164-.395508.701172s-.370117.380859-.606445.516602-.498047.223633-.786133.263672v.024414c.18457.055664.337891.143555.461914.263672s.220703.261719.288086.425781c.068359.164062.112305.34668.131836.545898.020508.200195.018555.408203-.005859.624023-.015625.192383-.040039.382812-.071289.570312-.032227.188477-.056641.375977-.072266.564453-.016602.1875-.016602.370117,0,.545898.015625.175781.067383.347656.15625.515625h-1.188477c-.055664-.160156-.087891-.396484-.095703-.708008s.03125-.6875.120117-1.12793c.063477-.383789.082031-.694336.053711-.929688-.02832-.236328-.085938-.417969-.173828-.545898s-.196289-.216797-.324219-.264648-.255859-.076172-.383789-.083984h-2.988281l-.767578,3.660156h-1.140625l1.8125-8.568359h3.299805ZM464.094547,144.278455c.447266,0,.80957-.05957,1.085938-.179688.275391-.120117.489258-.265625.641602-.438477.152344-.171875.253906-.355469.305664-.551758.052734-.196289.078125-.370117.078125-.521484,0-.264648-.047852-.480469-.143555-.648438s-.222656-.299805-.37793-.396484c-.15625-.095703-.333984-.161133-.53418-.197266s-.408203-.054688-.624023-.054688h-2.364258l-.635742,2.988281h2.568359Z"/>
  <path d="M468.099429,146.318494c.09375-.306641.238281-.571289.435547-.794922.196289-.223633.441406-.398438.735352-.525391.292969-.125977.625977-.189453,1-.189453.305664,0,.594727.044922.864258.134766.270508.089844.504883.219727.705078.389648.200195.170898.358398.381836.475586.635742.116211.25293.174805.546875.174805.879883,0,.313477-.048828.589844-.145508.830078-.09668.239258-.224609.455078-.384766.644531-.160156.19043-.34375.362305-.549805.515625-.207031.15332-.419922.299805-.639648.439453-.220703.133789-.44043.264648-.660156.395508-.220703.129883-.421875.267578-.605469.415039-.183594.146484-.339844.304688-.469727.474609s-.214844.365234-.254883.584961h3.639648v.75h-4.629883c.033203-.419922.108398-.77832.224609-1.075195.117188-.295898.265625-.554688.445312-.774414.179688-.220703.383789-.414062.610352-.580078.226562-.166992.462891-.323242.709961-.470703.299805-.186523.563477-.357422.790039-.514648.226562-.15625.415039-.31543.564453-.474609.150391-.160156.263672-.333984.339844-.520508.077148-.186523.115234-.40332.115234-.649414,0-.193359-.036133-.369141-.109375-.525391-.074219-.15625-.171875-.291992-.295898-.405273-.123047-.113281-.267578-.200195-.43457-.259766s-.34375-.089844-.530273-.089844c-.246094,0-.458008.051758-.634766.155273-.176758.102539-.321289.238281-.43457.404297-.114258.166992-.195312.355469-.245117.56543s-.072266.421875-.06543.634766h-.849609c-.020508-.360352.016602-.693359.109375-1Z"/>
  <path d="M504.010562,140.330213c.360352,0,.709961.03418,1.050781.102539.339844.068359.641602.185547.905273.353516.264648.167969.474609.392578.630859.671875.155273.280273.233398.632812.233398,1.056641,0,.288086-.047852.561523-.143555.822266-.09668.259766-.228516.493164-.396484.701172s-.370117.380859-.605469.516602c-.236328.135742-.498047.223633-.786133.263672v.024414c.183594.055664.337891.143555.461914.263672s.219727.261719.288086.425781c.067383.164062.111328.34668.131836.545898.019531.200195.017578.408203-.005859.624023-.016602.192383-.040039.382812-.072266.570312-.032227.188477-.055664.375977-.072266.564453-.015625.1875-.015625.370117,0,.545898.016602.175781.068359.347656.15625.515625h-1.1875c-.056641-.160156-.088867-.396484-.09668-.708008s.032227-.6875.120117-1.12793c.064453-.383789.082031-.694336.053711-.929688-.027344-.236328-.085938-.417969-.173828-.545898s-.196289-.216797-.324219-.264648-.255859-.076172-.383789-.083984h-2.987305l-.768555,3.660156h-1.139648l1.811523-8.568359h3.299805ZM503.578922,144.278455c.448242,0,.810547-.05957,1.085938-.179688.276367-.120117.490234-.265625.642578-.438477.151367-.171875.253906-.355469.305664-.551758s.078125-.370117.078125-.521484c0-.264648-.047852-.480469-.144531-.648438-.095703-.167969-.22168-.299805-.37793-.396484-.155273-.095703-.333984-.161133-.53418-.197266-.199219-.036133-.407227-.054688-.624023-.054688h-2.363281l-.636719,2.988281h2.568359Z"/>
  <path d="M507.584781,146.318494c.092773-.306641.238281-.571289.43457-.794922.197266-.223633.442383-.398438.736328-.525391.292969-.125977.625977-.189453,1-.189453.305664,0,.59375.044922.864258.134766s.504883.219727.705078.389648c.200195.170898.358398.381836.475586.635742.115234.25293.173828.546875.173828.879883,0,.313477-.047852.589844-.144531.830078-.09668.239258-.224609.455078-.384766.644531-.160156.19043-.34375.362305-.550781.515625-.206055.15332-.419922.299805-.638672.439453-.220703.133789-.441406.264648-.660156.395508-.220703.129883-.421875.267578-.605469.415039-.183594.146484-.339844.304688-.470703.474609-.128906.169922-.214844.365234-.253906.584961h3.639648v.75h-4.629883c.033203-.419922.107422-.77832.224609-1.075195.117188-.295898.265625-.554688.445312-.774414.179688-.220703.382812-.414062.609375-.580078.226562-.166992.463867-.323242.710938-.470703.298828-.186523.5625-.357422.789062-.514648.226562-.15625.416016-.31543.56543-.474609.149414-.160156.262695-.333984.339844-.520508s.115234-.40332.115234-.649414c0-.193359-.036133-.369141-.110352-.525391-.073242-.15625-.171875-.291992-.294922-.405273s-.267578-.200195-.43457-.259766-.34375-.089844-.530273-.089844c-.246094,0-.458984.051758-.634766.155273-.176758.102539-.322266.238281-.435547.404297-.113281.166992-.195312.355469-.244141.56543-.050781.209961-.072266.421875-.06543.634766h-.850586c-.019531-.360352.017578-.693359.110352-1Z"/>
  <path class="st9" d="M385.723972,112.857785c-4.561005-.842987-8.019989-4.845001-8.019989-9.647995,0-.570999.049988-1.141006.148987-1.703995l3.368011.593994c-.065002.365997-.097015.738007-.097015,1.110001,0,3.528,2.864014,6.391998,6.391998,6.391998,3.527008,0,6.391022-2.863998,6.391022-6.391998,0-.371994-.032013-.744003-.097015-1.110001l3.368011-.593994c.098999.562988.148987,1.132996.148987,1.703995,0,4.802994-3.458984,8.805008-8.019989,9.647995v11.478012h-3.583008v-11.478012Z"/>
  <path class="st9" d="M503.445987,112.857785c-4.561035-.842987-8.02002-4.845001-8.02002-9.647995,0-.570999.049988-1.141006.148987-1.703995l3.368042.593994c-.065002.365997-.097046.738007-.097046,1.110001,0,3.528,2.864014,6.391998,6.392029,6.391998,3.526978,0,6.390991-2.863998,6.390991-6.391998,0-.371994-.031982-.744003-.096985-1.110001l3.367981-.593994c.098999.562988.148987,1.132996.148987,1.703995,0,4.802994-3.458984,8.805008-8.019958,9.647995v11.478012h-3.583008v-11.478012Z"/>
  <path class="st9" d="M464.520999,112.857785c-4.559998-.842987-8.019043-4.845001-8.019043-9.647995,0-.570999.050049-1.141006.149048-1.703995l3.366943.593994c-.063965.365997-.096985.738007-.096985,1.110001,0,3.528,2.864014,6.391998,6.392029,6.391998s6.391968-2.863998,6.391968-6.391998c0-.371994-.032959-.744003-.096985-1.110001l3.367004-.593994c.099976.562988.148987,1.132996.148987,1.703995,0,4.802994-3.458008,8.805008-8.018982,9.647995v11.478012h-3.583984v-11.478012Z"/>
  <path class="st9" d="M425.163974,112.857785c-4.561005-.842987-8.019012-4.845001-8.019012-9.647995,0-.570999.049011-1.141006.149017-1.703995l3.367004.593994c-.063995.365997-.097015.738007-.097015,1.110001,0,3.528,2.864014,6.391998,6.391998,6.391998s6.391998-2.863998,6.391998-6.391998c0-.371994-.032959-.744003-.097961-1.110001l3.367981-.593994c.098999.562988.148987,1.132996.148987,1.703995,0,4.802994-3.458984,8.805008-8.018982,9.647995v11.478012h-3.584015v-11.478012Z"/>
  <path class="st8" d="M493.925968,36.257794c3.122009,0,5.656006,2.535004,5.656006,5.656006,0,3.121979-2.533997,5.655975-5.656006,5.655975-3.120972,0-5.654968-2.533997-5.654968-5.655975,0-3.121002,2.533997-5.656006,5.654968-5.656006Z"/>
  <path class="st10" d="M433.497989,60.304792c3.120972,0,5.654968,2.533997,5.654968,5.656006,0,3.120987-2.533997,5.654999-5.654968,5.654999-3.122009,0-5.656006-2.534012-5.656006-5.654999,0-3.122009,2.533997-5.656006,5.656006-5.656006Z"/>
  <path class="st8" d="M466.319949,97.596784c3.122009,0,5.656006,2.534012,5.656006,5.655014,0,3.121994-2.533997,5.655991-5.656006,5.655991-3.120972,0-5.655945-2.533997-5.655945-5.655991,0-3.121002,2.534973-5.655014,5.655945-5.655014Z"/>
  <path class="st8" d="M446.209964,18.07179c3.121033,0,5.656006,2.533997,5.656006,5.654999,0,3.122009-2.534973,5.656006-5.656006,5.656006-3.122009,0-5.656006-2.533997-5.656006-5.656006,0-3.121002,2.533997-5.654999,5.656006-5.654999Z"/>
  <path class="st8" d="M505.237979,97.596784c3.120972,0,5.654968,2.534012,5.654968,5.655014,0,3.121994-2.533997,5.655991-5.654968,5.655991-3.122009,0-5.656006-2.533997-5.656006-5.655991,0-3.121002,2.533997-5.655014,5.656006-5.655014Z"/>
  <path class="st1" d="M51.062976,47.610791c4.755005-4.755005,26.225006,3.692993,33.970001,3.692993,4.041,0,12.645996-2.242981,9.600006-8.334991-1.167007-2.333008-6.119003-15.187012-6.119003-16.985016"/>
  <path class="st1" d="M88.44498,52.330792c-11.286011,0-15.639008,21.522003-20.783005,21.522003"/>
  <path class="st1" d="M87.484973,52.079785c7.684006.001007,14.242004,17.908005,14.242004,23.947998"/>
  <path class="st1" d="M88.927982,51.893781c4.646988,0,23.73999-4.270996,27.007996-2.636993.856003.428009,12.634003,3.376007,13.082001,3.376007"/>
  <path class="st1" d="M282.827976,102.620786c0-2.276993-.269012-16.466995-1.160004-18.250992-.481995-.962997.407013-3.179001-.316986-3.903-.121002-.121002.600983-14.792007.105988-16.774002-1.643005-6.571014-5.541992-13.959991-8.574005-20.027008-1.260986-2.522003-5.54599-19.938995-7.490997-19.938995"/>
  <path class="st1" d="M279.160983,60.868787c-.001007-7.872009-23.903015-5.471008-30.048004-7.518982-3.929016-1.310028-7.540009-2.338013-10.972015-3.482025-.427979-.141998-6.186981-3.126984-4.641998-1.582001"/>
  <path class="st1" d="M280.364963,60.294782c0,3.127014,1.061005,6.219009-1.265991,8.545013-5.070984,5.069992-30.869995,11.903-37.886993,11.903"/>
  <path class="st1" d="M280.360965,66.699796c6.555023-6.554001,20.033997,1.160995,27.219025,1.160995"/>
  <path class="st1" d="M465.760989,102.067792c0-1.248001,6.256958-11.141998,7.596008-13.820007,5.759949-11.516998,2.85199-20.526001,10.971985-32.704987,2.921021-4.381012,5.598022-9.291992,8.122986-11.81601.164978-.164001.552979-1.371002.738037-1.371002"/>
  <path class="st1" d="M479.813968,66.607785c-2.872986-2.873001-4.588013-9.106979-7.289978-12.709-3.169006-4.225006-6.960022-7.06601-10.655029-10.760986-4.191956-4.192017-10.542969-19.201019-15.507996-19.201019"/>
  <path class="st1" d="M479.475955,67.662793c-13.440979,13.444992-29.656006-1.055008-43.464966-1.055008"/>
  <path class="st1" d="M480.039005,66.607785c-1.495056,1.496002,4.872986,7.975006,6.646973,8.862,9.250977,4.626007,20.255005,12.014008,20.255005,22.787003"/>
  <polygon class="st8" points="190.70499 51.229779 197.45499 53.479779 190.70499 55.729779 190.70499 51.229779"/>
  <line class="st2" x1="159.75397" y1="53.479779" x2="192.054965" y2="53.479779"/>
  <polygon class="st8" points="386.110965 51.229779 392.860965 53.479779 386.110965 55.729779 386.110965 51.229779"/>
  <line class="st2" x1="355.160983" y1="53.479779" x2="387.460971" y2="53.479779"/>
  <path d="M167.293277,69.773572l1.792969-8.589844h1.148438l-.861328,4.136719,4.664062-4.136719h1.617188l-3.990234,3.498047,2.923828,5.091797h-1.283203l-2.478516-4.353516-1.798828,1.564453-.585938,2.789062h-1.148438Z"/>
  <g>
    <path d="M178.592105,71.129041c-.306152.263672-.600586.457031-.883789.578125-.283203.123047-.585938.183594-.908203.183594-.478516,0-.864258-.140625-1.157227-.421875-.292969-.282227-.439453-.642578-.439453-1.082031,0-.290039.065918-.545898.197754-.769531.131836-.222656.306641-.401367.524902-.537109.218262-.134766.484863-.231445.800781-.290039.19873-.039062.575195-.070312,1.130371-.092773s.953125-.081055,1.193848-.175781c.068359-.241211.102539-.441406.102539-.600586,0-.205078-.074707-.366211-.224609-.483398-.205078-.163086-.504395-.244141-.898438-.244141-.371094,0-.674805.082031-.910645.246094-.23584.165039-.407715.398438-.515137.701172l-.893555-.078125c.182129-.514648.471191-.908203.866699-1.181641s.894531-.410156,1.496582-.410156c.641113,0,1.148926.15332,1.523438.458984.286621.227539.429688.524414.429688.888672,0,.276367-.040527.597656-.12207.961914l-.288086,1.289062c-.091309.410156-.136719.744141-.136719,1.000977,0,.163086.035645.397461.107422.703125h-.893555c-.048828-.168945-.083008-.383789-.102539-.644531ZM178.919254,69.146619c-.123535.048828-.256348.085938-.397949.112305s-.378418.053711-.710449.083008c-.51416.045898-.877441.103516-1.088867.173828-.211426.069336-.371094.180664-.478516.333984s-.161133.322266-.161133.507812c0,.24707.085449.451172.256348.610352s.414062.239258.72998.239258c.292969,0,.574707-.077148.844727-.232422.27002-.154297.483398-.370117.639648-.646484s.27832-.670898.366211-1.181641Z"/>
    <path d="M180.867496,71.773572l.209961-1.000977h1.005859l-.180664.874023c-.11084.524414-.282227.908203-.515137,1.152344s-.506836.383789-.822754.419922l.083008-.385742c.387207-.107422.643066-.460938.766602-1.05957h-.546875Z"/>
    <path d="M183.39191,71.773572l1.083984-5.185547h.883789l-1.083984,5.185547h-.883789ZM184.158511,73.721814l.15625-.751953c.20166.055664.380859.083008.537109.083008.188965,0,.339355-.0625.45166-.1875.112305-.125977.228516-.473633.349121-1.042969l1.088867-5.234375h.883789l-1.123047,5.395508c-.140137.673828-.30127,1.132812-.483398,1.376953-.244141.325195-.584473.488281-1.020508.488281-.230957,0-.51123-.041992-.839844-.126953ZM184.680972,65.616345l.209961-1.000977h.878906l-.209961,1.000977h-.878906ZM186.956363,65.616345l.209961-1.000977h.874023l-.209961,1.000977h-.874023Z"/>
  </g>
  <path d="M351.581851,69.773572l1.792969-8.589844h1.148438l-.861328,4.136719,4.664062-4.136719h1.617188l-3.990234,3.498047,2.923828,5.091797h-1.283203l-2.478516-4.353516-1.798828,1.564453-.585938,2.789062h-1.148438Z"/>
  <path d="M359.037906,71.773572l2.255859-2.631836-1.293945-2.553711h.976562l.439453.922852c.163086.344727.30957.675781.439453.991211l1.494141-1.914062h1.079102l-2.177734,2.62207,1.308594,2.563477h-.976562l-.517578-1.054688c-.110352-.224609-.235352-.50293-.375977-.834961l-1.542969,1.889648h-1.108398Z"/>
  <g>
    <path d="M365.435367,62.7599l.269531-.832031c.621094.21875,1.072266.408203,1.353516.568359-.074219-.707031-.113281-1.193359-.117188-1.458984h.849609c-.011719.386719-.056641.871094-.134766,1.453125.402344-.203125.863281-.390625,1.382812-.5625l.269531.832031c-.496094.164062-.982422.273438-1.458984.328125.238281.207031.574219.576172,1.007812,1.107422l-.703125.498047c-.226562-.308594-.494141-.728516-.802734-1.259766-.289062.550781-.542969.970703-.761719,1.259766l-.691406-.498047c.453125-.558594.777344-.927734.972656-1.107422-.503906-.097656-.982422-.207031-1.435547-.328125Z"/>
    <path d="M369.255679,69.773572l1.792969-8.589844h1.148438l-.861328,4.136719,4.664062-4.136719h1.617188l-3.990234,3.498047,2.923828,5.091797h-1.283203l-2.478516-4.353516-1.798828,1.564453-.585938,2.789062h-1.148438Z"/>
  </g>
  <g>
    <path d="M380.555484,71.129041c-.306641.263672-.600586.457031-.883789.578125-.283203.123047-.585938.183594-.908203.183594-.478516,0-.864258-.140625-1.157227-.421875-.292969-.282227-.439453-.642578-.439453-1.082031,0-.290039.06543-.545898.197266-.769531.131836-.222656.306641-.401367.525391-.537109.217773-.134766.484375-.231445.800781-.290039.198242-.039062.575195-.070312,1.129883-.092773.555664-.022461.953125-.081055,1.194336-.175781.068359-.241211.102539-.441406.102539-.600586,0-.205078-.075195-.366211-.224609-.483398-.205078-.163086-.504883-.244141-.898438-.244141-.371094,0-.674805.082031-.911133.246094-.235352.165039-.407227.398438-.514648.701172l-.893555-.078125c.181641-.514648.470703-.908203.866211-1.181641s.894531-.410156,1.49707-.410156c.640625,0,1.148438.15332,1.523438.458984.286133.227539.429688.524414.429688.888672,0,.276367-.041016.597656-.12207.961914l-.288086,1.289062c-.091797.410156-.136719.744141-.136719,1.000977,0,.163086.035156.397461.107422.703125h-.893555c-.048828-.168945-.083008-.383789-.102539-.644531ZM380.882633,69.146619c-.124023.048828-.256836.085938-.398438.112305s-.37793.053711-.709961.083008c-.514648.045898-.87793.103516-1.088867.173828-.211914.069336-.371094.180664-.478516.333984s-.161133.322266-.161133.507812c0,.24707.084961.451172.255859.610352s.414062.239258.730469.239258c.292969,0,.574219-.077148.844727-.232422.269531-.154297.483398-.370117.639648-.646484s.27832-.670898.366211-1.181641Z"/>
    <path d="M382.830875,71.773572l.209961-1.000977h1.005859l-.180664.874023c-.111328.524414-.282227.908203-.515625,1.152344-.232422.244141-.506836.383789-.822266.419922l.083008-.385742c.386719-.107422.642578-.460938.766602-1.05957h-.546875Z"/>
    <path d="M385.355289,71.773572l1.083984-5.185547h.883789l-1.083984,5.185547h-.883789ZM386.12189,73.721814l.15625-.751953c.201172.055664.380859.083008.537109.083008.188477,0,.338867-.0625.451172-.1875.112305-.125977.228516-.473633.349609-1.042969l1.088867-5.234375h.883789l-1.123047,5.395508c-.140625.673828-.301758,1.132812-.483398,1.376953-.244141.325195-.584961.488281-1.020508.488281-.231445,0-.511719-.041992-.839844-.126953ZM386.644351,65.616345l.209961-1.000977h.878906l-.209961,1.000977h-.878906ZM388.919742,65.616345l.209961-1.000977h.874023l-.209961,1.000977h-.874023Z"/>
  </g>
  <g>
    <path d="M164.668765,24.99867v-1.212891h1.054688v1.212891h-1.054688ZM164.668765,32.375623v-6.222656h1.054688v6.222656h-1.054688Z"/>
    <path d="M167.328922,32.375623v-6.222656h.949219v.884766c.457031-.683594,1.117188-1.025391,1.980469-1.025391.375,0,.719727.067383,1.03418.202148s.549805.311523.706055.530273.265625.478516.328125.779297c.039062.195312.058594.537109.058594,1.025391v3.826172h-1.054688v-3.785156c0-.429688-.041016-.750977-.123047-.963867s-.227539-.382812-.436523-.509766-.454102-.19043-.735352-.19043c-.449219,0-.836914.142578-1.163086.427734s-.489258.826172-.489258,1.623047v3.398438h-1.054688Z"/>
    <path d="M174.008609,24.99867v-1.212891h1.054688v1.212891h-1.054688ZM174.008609,32.375623v-6.222656h1.054688v6.222656h-1.054688Z"/>
    <path d="M178.9715,31.432263l.152344.931641c-.296875.0625-.5625.09375-.796875.09375-.382812,0-.679688-.060547-.890625-.181641s-.359375-.280273-.445312-.477539-.128906-.612305-.128906-1.245117v-3.580078h-.773438v-.820312h.773438v-1.541016l1.048828-.632812v2.173828h1.060547v.820312h-1.060547v3.638672c0,.300781.018555.494141.055664.580078s.097656.154297.181641.205078.204102.076172.360352.076172c.117188,0,.271484-.013672.462891-.041016Z"/>
    <path d="M180.008609,24.99867v-1.212891h1.054688v1.212891h-1.054688ZM180.008609,32.375623v-6.222656h1.054688v6.222656h-1.054688Z"/>
    <path d="M186.729312,31.608045c-.390625.332031-.766602.566406-1.12793.703125s-.749023.205078-1.163086.205078c-.683594,0-1.208984-.166992-1.576172-.500977s-.550781-.760742-.550781-1.280273c0-.304688.069336-.583008.208008-.834961s.320312-.454102.544922-.606445.477539-.267578.758789-.345703c.207031-.054688.519531-.107422.9375-.158203.851562-.101562,1.478516-.222656,1.880859-.363281.003906-.144531.005859-.236328.005859-.275391,0-.429688-.099609-.732422-.298828-.908203-.269531-.238281-.669922-.357422-1.201172-.357422-.496094,0-.862305.086914-1.098633.260742s-.411133.481445-.524414.922852l-1.03125-.140625c.09375-.441406.248047-.797852.462891-1.069336s.525391-.480469.931641-.626953.876953-.219727,1.412109-.219727c.53125,0,.962891.0625,1.294922.1875s.576172.282227.732422.47168.265625.428711.328125.717773c.035156.179688.052734.503906.052734.972656v1.40625c0,.980469.022461,1.600586.067383,1.860352s.133789.508789.266602.74707h-1.101562c-.109375-.21875-.179688-.474609-.210938-.767578ZM186.641422,29.252576c-.382812.15625-.957031.289062-1.722656.398438-.433594.0625-.740234.132812-.919922.210938s-.318359.192383-.416016.342773-.146484.317383-.146484.500977c0,.28125.106445.515625.319336.703125s.524414.28125.93457.28125c.40625,0,.767578-.088867,1.083984-.266602s.548828-.420898.697266-.729492c.113281-.238281.169922-.589844.169922-1.054688v-.386719Z"/>
    <path d="M189.319156,32.375623v-8.589844h1.054688v8.589844h-1.054688Z"/>
  </g>
  <g>
    <path d="M159.957828,44.768689h-.978516v-8.589844h1.054688v3.064453c.445312-.558594,1.013672-.837891,1.705078-.837891.382812,0,.745117.077148,1.086914.231445s.623047.371094.84375.650391.393555.616211.518555,1.010742.1875.816406.1875,1.265625c0,1.066406-.263672,1.890625-.791016,2.472656s-1.160156.873047-1.898438.873047c-.734375,0-1.310547-.306641-1.728516-.919922v.779297ZM159.946109,41.610486c0,.746094.101562,1.285156.304688,1.617188.332031.542969.78125.814453,1.347656.814453.460938,0,.859375-.200195,1.195312-.600586s.503906-.99707.503906-1.790039c0-.8125-.161133-1.412109-.483398-1.798828s-.711914-.580078-1.168945-.580078c-.460938,0-.859375.200195-1.195312.600586s-.503906.979492-.503906,1.737305Z"/>
    <path d="M165.664859,37.391736v-1.212891h1.054688v1.212891h-1.054688ZM165.664859,44.768689v-6.222656h1.054688v6.222656h-1.054688Z"/>
    <path d="M168.325015,44.768689v-6.222656h.949219v.884766c.457031-.683594,1.117188-1.025391,1.980469-1.025391.375,0,.719727.067383,1.03418.202148s.549805.311523.706055.530273.265625.478516.328125.779297c.039062.195312.058594.537109.058594,1.025391v3.826172h-1.054688v-3.785156c0-.429688-.041016-.750977-.123047-.963867s-.227539-.382812-.436523-.509766-.454102-.19043-.735352-.19043c-.449219,0-.836914.142578-1.163086.427734s-.489258.826172-.489258,1.623047v3.398438h-1.054688Z"/>
    <path d="M179.035953,44.768689v-.785156c-.394531.617188-.974609.925781-1.740234.925781-.496094,0-.952148-.136719-1.368164-.410156s-.738281-.655273-.966797-1.145508-.342773-1.053711-.342773-1.69043c0-.621094.103516-1.18457.310547-1.69043s.517578-.893555.931641-1.163086.876953-.404297,1.388672-.404297c.375,0,.708984.079102,1.001953.237305s.53125.364258.714844.618164v-3.082031h1.048828v8.589844h-.978516ZM175.701968,41.66322c0,.796875.167969,1.392578.503906,1.787109s.732422.591797,1.189453.591797c.460938,0,.852539-.188477,1.174805-.56543s.483398-.952148.483398-1.725586c0-.851562-.164062-1.476562-.492188-1.875s-.732422-.597656-1.212891-.597656c-.46875,0-.860352.191406-1.174805.574219s-.47168.986328-.47168,1.810547Z"/>
    <path d="M181.678531,37.391736v-1.212891h1.054688v1.212891h-1.054688ZM181.678531,44.768689v-6.222656h1.054688v6.222656h-1.054688Z"/>
    <path d="M184.338687,44.768689v-6.222656h.949219v.884766c.457031-.683594,1.117188-1.025391,1.980469-1.025391.375,0,.719727.067383,1.03418.202148s.549805.311523.706055.530273.265625.478516.328125.779297c.039062.195312.058594.537109.058594,1.025391v3.826172h-1.054688v-3.785156c0-.429688-.041016-.750977-.123047-.963867s-.227539-.382812-.436523-.509766-.454102-.19043-.735352-.19043c-.449219,0-.836914.142578-1.163086.427734s-.489258.826172-.489258,1.623047v3.398438h-1.054688Z"/>
    <path d="M190.819156,45.284314l1.025391.152344c.042969.316406.162109.546875.357422.691406.261719.195312.619141.292969,1.072266.292969.488281,0,.865234-.097656,1.130859-.292969s.445312-.46875.539062-.820312c.054688-.214844.080078-.666016.076172-1.353516-.460938.542969-1.035156.814453-1.722656.814453-.855469,0-1.517578-.308594-1.986328-.925781s-.703125-1.357422-.703125-2.220703c0-.59375.107422-1.141602.322266-1.643555s.526367-.889648.93457-1.163086.887695-.410156,1.438477-.410156c.734375,0,1.339844.296875,1.816406.890625v-.75h.972656v5.378906c0,.96875-.098633,1.655273-.295898,2.05957s-.509766.723633-.9375.958008-.954102.351562-1.579102.351562c-.742188,0-1.341797-.166992-1.798828-.500977s-.677734-.836914-.662109-1.508789ZM191.692203,41.546033c0,.816406.162109,1.412109.486328,1.787109s.730469.5625,1.21875.5625c.484375,0,.890625-.186523,1.21875-.55957s.492188-.958008.492188-1.754883c0-.761719-.168945-1.335938-.506836-1.722656s-.745117-.580078-1.22168-.580078c-.46875,0-.867188.19043-1.195312.571289s-.492188.946289-.492188,1.696289Z"/>
  </g>
  <g>
    <path d="M341.339664,30.518201l1.042969-.164062c.058594.417969.22168.738281.489258.960938s.641602.333984,1.12207.333984c.484375,0,.84375-.098633,1.078125-.295898s.351562-.428711.351562-.694336c0-.238281-.103516-.425781-.310547-.5625-.144531-.09375-.503906-.212891-1.078125-.357422-.773438-.195312-1.30957-.364258-1.608398-.506836s-.525391-.339844-.679688-.591797-.231445-.530273-.231445-.834961c0-.277344.063477-.53418.19043-.770508s.299805-.432617.518555-.588867c.164062-.121094.387695-.223633.670898-.307617s.586914-.125977.911133-.125977c.488281,0,.916992.070312,1.286133.210938s.641602.331055.817383.571289.296875.561523.363281.963867l-1.03125.140625c-.046875-.320312-.182617-.570312-.407227-.75s-.541992-.269531-.952148-.269531c-.484375,0-.830078.080078-1.037109.240234s-.310547.347656-.310547.5625c0,.136719.042969.259766.128906.369141.085938.113281.220703.207031.404297.28125.105469.039062.416016.128906.931641.269531.746094.199219,1.266602.362305,1.561523.489258s.526367.311523.694336.553711.251953.542969.251953.902344c0,.351562-.102539.682617-.307617.993164s-.500977.550781-.887695.720703-.824219.254883-1.3125.254883c-.808594,0-1.424805-.167969-1.848633-.503906s-.694336-.833984-.811523-1.494141Z"/>
    <path d="M351.839664,32.375623v-.914062c-.484375.703125-1.142578,1.054688-1.974609,1.054688-.367188,0-.709961-.070312-1.02832-.210938s-.554688-.317383-.708984-.530273-.262695-.473633-.325195-.782227c-.042969-.207031-.064453-.535156-.064453-.984375v-3.855469h1.054688v3.451172c0,.550781.021484.921875.064453,1.113281.066406.277344.207031.495117.421875.65332s.480469.237305.796875.237305.613281-.081055.890625-.243164.473633-.382812.588867-.662109.172852-.68457.172852-1.21582v-3.333984h1.054688v6.222656h-.943359Z"/>
    <path d="M355.408023,32.375623h-.978516v-8.589844h1.054688v3.064453c.445312-.558594,1.013672-.837891,1.705078-.837891.382812,0,.745117.077148,1.086914.231445s.623047.371094.84375.650391.393555.616211.518555,1.010742.1875.816406.1875,1.265625c0,1.066406-.263672,1.890625-.791016,2.472656s-1.160156.873047-1.898438.873047c-.734375,0-1.310547-.306641-1.728516-.919922v.779297ZM355.396304,29.21742c0,.746094.101562,1.285156.304688,1.617188.332031.542969.78125.814453,1.347656.814453.460938,0,.859375-.200195,1.195312-.600586s.503906-.99707.503906-1.790039c0-.8125-.161133-1.412109-.483398-1.798828s-.711914-.580078-1.168945-.580078c-.460938,0-.859375.200195-1.195312.600586s-.503906.979492-.503906,1.737305Z"/>
    <path d="M360.68732,30.518201l1.042969-.164062c.058594.417969.22168.738281.489258.960938s.641602.333984,1.12207.333984c.484375,0,.84375-.098633,1.078125-.295898s.351562-.428711.351562-.694336c0-.238281-.103516-.425781-.310547-.5625-.144531-.09375-.503906-.212891-1.078125-.357422-.773438-.195312-1.30957-.364258-1.608398-.506836s-.525391-.339844-.679688-.591797-.231445-.530273-.231445-.834961c0-.277344.063477-.53418.19043-.770508s.299805-.432617.518555-.588867c.164062-.121094.387695-.223633.670898-.307617s.586914-.125977.911133-.125977c.488281,0,.916992.070312,1.286133.210938s.641602.331055.817383.571289.296875.561523.363281.963867l-1.03125.140625c-.046875-.320312-.182617-.570312-.407227-.75s-.541992-.269531-.952148-.269531c-.484375,0-.830078.080078-1.037109.240234s-.310547.347656-.310547.5625c0,.136719.042969.259766.128906.369141.085938.113281.220703.207031.404297.28125.105469.039062.416016.128906.931641.269531.746094.199219,1.266602.362305,1.561523.489258s.526367.311523.694336.553711.251953.542969.251953.902344c0,.351562-.102539.682617-.307617.993164s-.500977.550781-.887695.720703-.824219.254883-1.3125.254883c-.808594,0-1.424805-.167969-1.848633-.503906s-.694336-.833984-.811523-1.494141Z"/>
    <path d="M371.368961,30.371717l1.089844.134766c-.171875.636719-.490234,1.130859-.955078,1.482422s-1.058594.527344-1.78125.527344c-.910156,0-1.631836-.280273-2.165039-.84082s-.799805-1.34668-.799805-2.358398c0-1.046875.269531-1.859375.808594-2.4375s1.238281-.867188,2.097656-.867188c.832031,0,1.511719.283203,2.039062.849609s.791016,1.363281.791016,2.390625c0,.0625-.001953.15625-.005859.28125h-4.640625c.039062.683594.232422,1.207031.580078,1.570312s.78125.544922,1.300781.544922c.386719,0,.716797-.101562.990234-.304688s.490234-.527344.650391-.972656ZM367.90607,28.666638h3.474609c-.046875-.523438-.179688-.916016-.398438-1.177734-.335938-.40625-.771484-.609375-1.306641-.609375-.484375,0-.891602.162109-1.22168.486328s-.512695.757812-.547852,1.300781Z"/>
    <path d="M377.74982,34.760388v-3.046875c-.164062.230469-.393555.421875-.688477.574219s-.608398.228516-.94043.228516c-.738281,0-1.374023-.294922-1.907227-.884766s-.799805-1.398438-.799805-2.425781c0-.625.108398-1.185547.325195-1.681641s.53125-.87207.943359-1.12793.864258-.383789,1.356445-.383789c.769531,0,1.375.324219,1.816406.972656v-.832031h.949219v8.607422h-1.054688ZM374.497867,29.246717c0,.800781.167969,1.401367.503906,1.801758s.738281.600586,1.207031.600586c.449219,0,.835938-.19043,1.160156-.571289s.486328-.959961.486328-1.737305c0-.828125-.170898-1.451172-.512695-1.869141s-.743164-.626953-1.204102-.626953c-.457031,0-.844727.194336-1.163086.583008s-.477539.995117-.477539,1.819336Z"/>
    <path d="M384.534976,32.375623v-.914062c-.484375.703125-1.142578,1.054688-1.974609,1.054688-.367188,0-.709961-.070312-1.02832-.210938s-.554688-.317383-.708984-.530273-.262695-.473633-.325195-.782227c-.042969-.207031-.064453-.535156-.064453-.984375v-3.855469h1.054688v3.451172c0,.550781.021484.921875.064453,1.113281.066406.277344.207031.495117.421875.65332s.480469.237305.796875.237305.613281-.081055.890625-.243164.473633-.382812.588867-.662109.172852-.68457.172852-1.21582v-3.333984h1.054688v6.222656h-.943359Z"/>
    <path d="M391.390445,30.371717l1.089844.134766c-.171875.636719-.490234,1.130859-.955078,1.482422s-1.058594.527344-1.78125.527344c-.910156,0-1.631836-.280273-2.165039-.84082s-.799805-1.34668-.799805-2.358398c0-1.046875.269531-1.859375.808594-2.4375s1.238281-.867188,2.097656-.867188c.832031,0,1.511719.283203,2.039062.849609s.791016,1.363281.791016,2.390625c0,.0625-.001953.15625-.005859.28125h-4.640625c.039062.683594.232422,1.207031.580078,1.570312s.78125.544922,1.300781.544922c.386719,0,.716797-.101562.990234-.304688s.490234-.527344.650391-.972656ZM387.927554,28.666638h3.474609c-.046875-.523438-.179688-.916016-.398438-1.177734-.335938-.40625-.771484-.609375-1.306641-.609375-.484375,0-.891602.162109-1.22168.486328s-.512695.757812-.547852,1.300781Z"/>
    <path d="M393.804508,32.375623v-6.222656h.949219v.884766c.457031-.683594,1.117188-1.025391,1.980469-1.025391.375,0,.719727.067383,1.03418.202148s.549805.311523.706055.530273.265625.478516.328125.779297c.039062.195312.058594.537109.058594,1.025391v3.826172h-1.054688v-3.785156c0-.429688-.041016-.750977-.123047-.963867s-.227539-.382812-.436523-.509766-.454102-.19043-.735352-.19043c-.449219,0-.836914.142578-1.163086.427734s-.489258.826172-.489258,1.623047v3.398438h-1.054688Z"/>
    <path d="M402.78107,31.432263l.152344.931641c-.296875.0625-.5625.09375-.796875.09375-.382812,0-.679688-.060547-.890625-.181641s-.359375-.280273-.445312-.477539-.128906-.612305-.128906-1.245117v-3.580078h-.773438v-.820312h.773438v-1.541016l1.048828-.632812v2.173828h1.060547v.820312h-1.060547v3.638672c0,.300781.018555.494141.055664.580078s.097656.154297.181641.205078.204102.076172.360352.076172c.117188,0,.271484-.013672.462891-.041016Z"/>
  </g>
  <g>
    <path d="M354.409,44.768689h-.978516v-8.589844h1.054688v3.064453c.445312-.558594,1.013672-.837891,1.705078-.837891.382812,0,.745117.077148,1.086914.231445s.623047.371094.84375.650391.393555.616211.518555,1.010742.1875.816406.1875,1.265625c0,1.066406-.263672,1.890625-.791016,2.472656s-1.160156.873047-1.898438.873047c-.734375,0-1.310547-.306641-1.728516-.919922v.779297ZM354.397281,41.610486c0,.746094.101562,1.285156.304688,1.617188.332031.542969.78125.814453,1.347656.814453.460938,0,.859375-.200195,1.195312-.600586s.503906-.99707.503906-1.790039c0-.8125-.161133-1.412109-.483398-1.798828s-.711914-.580078-1.168945-.580078c-.460938,0-.859375.200195-1.195312.600586s-.503906.979492-.503906,1.737305Z"/>
    <path d="M360.116031,37.391736v-1.212891h1.054688v1.212891h-1.054688ZM360.116031,44.768689v-6.222656h1.054688v6.222656h-1.054688Z"/>
    <path d="M362.776187,44.768689v-6.222656h.949219v.884766c.457031-.683594,1.117188-1.025391,1.980469-1.025391.375,0,.719727.067383,1.03418.202148s.549805.311523.706055.530273.265625.478516.328125.779297c.039062.195312.058594.537109.058594,1.025391v3.826172h-1.054688v-3.785156c0-.429688-.041016-.750977-.123047-.963867s-.227539-.382812-.436523-.509766-.454102-.19043-.735352-.19043c-.449219,0-.836914.142578-1.163086.427734s-.489258.826172-.489258,1.623047v3.398438h-1.054688Z"/>
    <path d="M373.487125,44.768689v-.785156c-.394531.617188-.974609.925781-1.740234.925781-.496094,0-.952148-.136719-1.368164-.410156s-.738281-.655273-.966797-1.145508-.342773-1.053711-.342773-1.69043c0-.621094.103516-1.18457.310547-1.69043s.517578-.893555.931641-1.163086.876953-.404297,1.388672-.404297c.375,0,.708984.079102,1.001953.237305s.53125.364258.714844.618164v-3.082031h1.048828v8.589844h-.978516ZM370.15314,41.66322c0,.796875.167969,1.392578.503906,1.787109s.732422.591797,1.189453.591797c.460938,0,.852539-.188477,1.174805-.56543s.483398-.952148.483398-1.725586c0-.851562-.164062-1.476562-.492188-1.875s-.732422-.597656-1.212891-.597656c-.46875,0-.860352.191406-1.174805.574219s-.47168.986328-.47168,1.810547Z"/>
    <path d="M376.129703,37.391736v-1.212891h1.054688v1.212891h-1.054688ZM376.129703,44.768689v-6.222656h1.054688v6.222656h-1.054688Z"/>
    <path d="M378.789859,44.768689v-6.222656h.949219v.884766c.457031-.683594,1.117188-1.025391,1.980469-1.025391.375,0,.719727.067383,1.03418.202148s.549805.311523.706055.530273.265625.478516.328125.779297c.039062.195312.058594.537109.058594,1.025391v3.826172h-1.054688v-3.785156c0-.429688-.041016-.750977-.123047-.963867s-.227539-.382812-.436523-.509766-.454102-.19043-.735352-.19043c-.449219,0-.836914.142578-1.163086.427734s-.489258.826172-.489258,1.623047v3.398438h-1.054688Z"/>
    <path d="M385.270328,45.284314l1.025391.152344c.042969.316406.162109.546875.357422.691406.261719.195312.619141.292969,1.072266.292969.488281,0,.865234-.097656,1.130859-.292969s.445312-.46875.539062-.820312c.054688-.214844.080078-.666016.076172-1.353516-.460938.542969-1.035156.814453-1.722656.814453-.855469,0-1.517578-.308594-1.986328-.925781s-.703125-1.357422-.703125-2.220703c0-.59375.107422-1.141602.322266-1.643555s.526367-.889648.93457-1.163086.887695-.410156,1.438477-.410156c.734375,0,1.339844.296875,1.816406.890625v-.75h.972656v5.378906c0,.96875-.098633,1.655273-.295898,2.05957s-.509766.723633-.9375.958008-.954102.351562-1.579102.351562c-.742188,0-1.341797-.166992-1.798828-.500977s-.677734-.836914-.662109-1.508789ZM386.143375,41.546033c0,.816406.162109,1.412109.486328,1.787109s.730469.5625,1.21875.5625c.484375,0,.890625-.186523,1.21875-.55957s.492188-.958008.492188-1.754883c0-.761719-.168945-1.335938-.506836-1.722656s-.745117-.580078-1.22168-.580078c-.46875,0-.867188.19043-1.195312.571289s-.492188.946289-.492188,1.696289Z"/>
  </g>
</svg>