<svg id="Layer_1" data-name="Layer 1" xmlns="http://www.w3.org/2000/svg" xmlns:xlink="http://www.w3.org/1999/xlink" viewBox="0 0 356.157 262.202"><defs><radialGradient id="radial-gradient" cx="134.963" cy="150.708" r="39.862" gradientUnits="userSpaceOnUse"><stop offset="0" stop-color="#fff"/><stop offset="1" stop-color="#618464"/></radialGradient><radialGradient id="radial-gradient-2" cx="44.896" cy="149.946" r="39.862" gradientUnits="userSpaceOnUse"><stop offset="0" stop-color="#fff"/><stop offset="1" stop-color="#958484"/></radialGradient><radialGradient id="radial-gradient-3" cx="281.162" cy="163.114" r="76.704" gradientUnits="userSpaceOnUse"><stop offset="0" stop-color="#bfbfbf"/><stop offset="1" stop-color="#703a3a"/></radialGradient><radialGradient id="radial-gradient-4" cx="43.063" cy="48.434" r="39.823" gradientUnits="userSpaceOnUse"><stop offset="0" stop-color="#dedede"/><stop offset="1" stop-color="#5e5e5e"/></radialGradient><radialGradient id="radial-gradient-5" cx="129.566" cy="48.434" r="39.823" xlink:href="#radial-gradient-4"/><radialGradient id="radial-gradient-6" cx="237.232" cy="45.148" r="48.747" xlink:href="#radial-gradient-4"/><radialGradient id="radial-gradient-7" cx="85.552" cy="222.612" r="39.862" gradientUnits="userSpaceOnUse"><stop offset="0" stop-color="#fff"/><stop offset="1" stop-color="#61849e"/></radialGradient></defs><title>TAM</title><line x1="112.408" y1="205.498" x2="117.498" y2="200.785" style="fill:none;stroke:#db3109;stroke-linecap:round;stroke-linejoin:round;stroke-width:2px"/><polyline points="123.739 195.688 123.075 201.651 117.498 200.785" style="fill:none;stroke:#db3109;stroke-linecap:round;stroke-linejoin:round;stroke-width:2px"/><path d="M135.149,191.585a4.675,4.675,0,0,1-6.529,6.692" transform="translate(-4.611 -2.335)" style="fill:none;stroke:#db3109;stroke-linecap:round;stroke-linejoin:round;stroke-width:2px"/><line x1="83.476" y1="185.08" x2="83.158" y2="178.151" style="fill:none;stroke:#15129b;stroke-linecap:round;stroke-linejoin:round;stroke-width:2px"/><polyline points="83.288 170.093 87.416 174.447 83.158 178.151" style="fill:none;stroke:#15129b;stroke-linecap:round;stroke-linejoin:round;stroke-width:2px"/><path d="M87.366,163.08a4.675,4.675,0,0,1,.9,9.306" transform="translate(-4.611 -2.335)" style="fill:none;stroke:#15129b;stroke-linecap:round;stroke-linejoin:round;stroke-width:2px"/><g style="opacity:0.5"><line x1="163.342" y1="17.247" x2="168.432" y2="12.535" style="fill:none;stroke:#020202;stroke-linecap:round;stroke-linejoin:round;stroke-width:2px"/><polyline points="174.673 7.437 174.009 13.4 168.432 12.535" style="fill:none;stroke:#020202;stroke-linecap:round;stroke-linejoin:round;stroke-width:2px"/><path d="M186.083,3.335a4.675,4.675,0,0,1-6.529,6.692" transform="translate(-4.611 -2.335)" style="fill:none;stroke:#020202;stroke-linecap:round;stroke-linejoin:round;stroke-width:2px"/></g><g style="opacity:0.5"><line x1="282.474" y1="32.466" x2="287.564" y2="27.754" style="fill:none;stroke:#020202;stroke-linecap:round;stroke-linejoin:round;stroke-width:2px"/><polyline points="293.805 22.656 293.141 28.619 287.564 27.754" style="fill:none;stroke:#020202;stroke-linecap:round;stroke-linejoin:round;stroke-width:2px"/><path d="M305.215,18.554a4.675,4.675,0,0,1-6.529,6.692" transform="translate(-4.611 -2.335)" style="fill:none;stroke:#020202;stroke-linecap:round;stroke-linejoin:round;stroke-width:2px"/></g><line x1="278.475" y1="61.248" x2="284.558" y2="64.582" style="fill:none;stroke:#bf2f0d;stroke-linecap:round;stroke-linejoin:round;stroke-width:2px"/><polyline points="291.371 68.885 285.505 70.145 284.558 64.582" style="fill:none;stroke:#bf2f0d;stroke-linecap:round;stroke-linejoin:round;stroke-width:2px"/><path d="M304.243,75.627a4.675,4.675,0,0,1-8.417-4.07" transform="translate(-4.611 -2.335)" style="fill:none;stroke:#bf2f0d;stroke-linecap:round;stroke-linejoin:round;stroke-width:2px"/><line x1="280.644" y1="113.748" x2="285.733" y2="109.036" style="fill:none;stroke:#db3109;stroke-linecap:round;stroke-linejoin:round;stroke-width:2px"/><polyline points="291.975 103.938 291.311 109.901 285.733 109.036" style="fill:none;stroke:#db3109;stroke-linecap:round;stroke-linejoin:round;stroke-width:2px"/><path d="M303.385,99.836a4.675,4.675,0,0,1-6.529,6.692" transform="translate(-4.611 -2.335)" style="fill:none;stroke:#db3109;stroke-linecap:round;stroke-linejoin:round;stroke-width:2px"/><line x1="310.687" y1="124.708" x2="310.369" y2="117.779" style="fill:none;stroke:#15129b;stroke-linecap:round;stroke-linejoin:round;stroke-width:2px"/><polyline points="310.499 109.721 314.627 114.075 310.369 117.779" style="fill:none;stroke:#15129b;stroke-linecap:round;stroke-linejoin:round;stroke-width:2px"/><path d="M314.577,102.709a4.675,4.675,0,0,1,.9,9.306" transform="translate(-4.611 -2.335)" style="fill:none;stroke:#15129b;stroke-linecap:round;stroke-linejoin:round;stroke-width:2px"/><g style="opacity:0.5"><line x1="59.754" y1="116.442" x2="64.844" y2="111.73" style="fill:none;stroke:#020202;stroke-linecap:round;stroke-linejoin:round;stroke-width:2px"/><polyline points="71.085 106.632 70.421 112.595 64.844 111.73" style="fill:none;stroke:#020202;stroke-linecap:round;stroke-linejoin:round;stroke-width:2px"/><path d="M82.5,102.53a4.675,4.675,0,0,1-6.529,6.692" transform="translate(-4.611 -2.335)" style="fill:none;stroke:#020202;stroke-linecap:round;stroke-linejoin:round;stroke-width:2px"/></g><g style="opacity:0.5"><line x1="118.209" y1="215.844" x2="123.298" y2="211.131" style="fill:none;stroke:#020202;stroke-linecap:round;stroke-linejoin:round;stroke-width:2px"/><polyline points="129.54 206.034 128.876 211.997 123.298 211.131" style="fill:none;stroke:#020202;stroke-linecap:round;stroke-linejoin:round;stroke-width:2px"/><path d="M140.95,201.931a4.675,4.675,0,0,1-6.529,6.692" transform="translate(-4.611 -2.335)" style="fill:none;stroke:#020202;stroke-linecap:round;stroke-linejoin:round;stroke-width:2px"/></g><line x1="73.115" y1="134.112" x2="78.205" y2="129.4" style="fill:none;stroke:#175ece;stroke-linecap:round;stroke-linejoin:round;stroke-width:2px"/><polyline points="84.446 124.302 83.782 130.265 78.205 129.4" style="fill:none;stroke:#175ece;stroke-linecap:round;stroke-linejoin:round;stroke-width:2px"/><path d="M95.856,120.2a4.675,4.675,0,0,1-6.529,6.692" transform="translate(-4.611 -2.335)" style="fill:none;stroke:#175ece;stroke-linecap:round;stroke-linejoin:round;stroke-width:2px"/><path d="M159.168,122.8c.973.812,2.755.59,3.627,1.473.888.9,2.98.785,3.763,1.751.793.982.586,2.78,1.27,3.821s.266,2.709.844,3.814,2.8,1.457,3.269,2.615,2.16,2.057,2.512,3.258-.455,2.844-.223,4.073-.656,2.663-.543,3.912-.7,2.48-.713,3.735,1.781,2.6,1.648,3.85-2.164,2.188-2.418,3.42.082,2.535-.293,3.736-2.549,1.589-3.041,2.749,1.414,3.355.809,4.463c-.6,1.091-1.264,2.2-1.977,3.244-.7,1.026-.08,3.224-.891,4.2s-1.873,1.987-2.756,2.859c-.9.889-3.184.389-4.151,1.171s-2.209,1.249-3.25,1.934-2.06,1.445-3.165,2.024-2.988-.7-4.147-.237-1.81,2.043-3.011,2.4-1.825,3.451-3.054,3.686-2.916-2.088-4.164-1.975-2.482,1.9-3.736,1.887-2.395-2.408-3.644-2.539-3.01,2.682-4.24,2.428-2.381-1.449-3.583-1.824-1.175-3.936-2.335-4.427-3.367,1.4-4.476.8c-1.091-.6-2.579-.735-3.624-1.448-1.026-.7-1.212-2.616-2.185-3.428s-2.419-1.116-3.292-2c-.888-.9.331-3.568-.452-4.534-.794-.981-3.722-.3-4.406-1.345s1.006-3.428.427-4.533-2.05-1.657-2.519-2.815.152-2.559-.2-3.758a34.594,34.594,0,0,1-.605-3.509c-.234-1.232-4.83-1.857-4.943-3.105s1.458-2.709,1.468-3.964.262-2.546.393-3.794,1.33-2.32,1.584-3.551-.775-2.8-.4-4,.7-2.5,1.192-3.659,2.846-1.392,3.451-2.5c.6-1.092-.574-3.277.138-4.323.7-1.026,1.661-1.989,2.473-2.962s.739-2.951,1.623-3.823c.9-.888,4.44,1.14,5.407.357s.818-3.034,1.86-3.719,2.367-.949,3.473-1.528,2.318-.912,3.477-1.38,2.392-.621,3.591-.974,2.519.172,3.749-.062,2.185-2.065,3.433-2.179,2.538-1.812,3.793-1.8,2.72-.192,3.968-.061,2.082,3.329,3.313,3.583,3.238-2.284,4.439-1.909,1.482,3.43,2.643,3.921,3.463-1.281,4.571-.676c1.091.6,2.38,1.267,3.425,1.979C159.389,118.295,158.2,121.99,159.168,122.8Z" transform="translate(-4.611 -2.335)" style="fill-rule:evenodd;fill:url(#radial-gradient)"/><path d="M69.1,122.039c.973.811,2.755.59,3.627,1.473.888.9,2.981.785,3.763,1.751.794.982.586,2.78,1.27,3.821s.265,2.708.844,3.814,2.8,1.457,3.268,2.615,2.16,2.057,2.513,3.258-.456,2.844-.223,4.073-.656,2.663-.543,3.912-.7,2.48-.714,3.735,1.781,2.6,1.649,3.85-2.165,2.188-2.419,3.419.082,2.535-.292,3.736-2.55,1.589-3.042,2.749,1.414,3.355.81,4.463c-.6,1.091-1.265,2.2-1.977,3.244-.7,1.026-.08,3.224-.892,4.2s-1.873,1.987-2.756,2.859c-.9.889-3.185.389-4.151,1.171s-2.209,1.249-3.25,1.934-2.06,1.445-3.165,2.024-2.988-.7-4.147-.237-1.81,2.044-3.011,2.4-1.825,3.452-3.054,3.686-2.916-2.087-4.164-1.974-2.482,1.9-3.736,1.886-2.395-2.407-3.644-2.539-3.01,2.682-4.24,2.428-2.381-1.449-3.582-1.823-1.175-3.936-2.335-4.428-3.367,1.4-4.476.8c-1.091-.6-2.579-.735-3.624-1.448-1.026-.7-1.211-2.616-2.185-3.428s-2.419-1.116-3.292-2c-.888-.9.331-3.568-.452-4.534s-3.722-.3-4.406-1.345,1.006-3.428.427-4.533-2.05-1.657-2.519-2.815.152-2.559-.2-3.758a34.622,34.622,0,0,1-.605-3.509c-.234-1.232-4.83-1.857-4.943-3.105s1.458-2.71,1.468-3.964.262-2.546.393-3.794,1.33-2.32,1.584-3.551-.775-2.8-.4-4,.7-2.5,1.192-3.659,2.846-1.392,3.451-2.5c.6-1.092-.574-3.277.138-4.323.7-1.026,1.661-1.989,2.473-2.962s.739-2.951,1.623-3.823c.9-.888,4.44,1.14,5.407.357s.818-3.034,1.86-3.719,2.367-.949,3.473-1.528,2.318-.912,3.477-1.38,2.392-.621,3.591-.974,2.52.172,3.749-.062,2.185-2.065,3.433-2.179,2.538-1.812,3.793-1.8,2.72-.192,3.968-.061,2.082,3.329,3.313,3.583,3.238-2.284,4.439-1.909,1.482,3.43,2.643,3.921,3.463-1.281,4.571-.676c1.091.6,2.38,1.267,3.425,1.979C69.322,117.532,68.128,121.228,69.1,122.039Z" transform="translate(-4.611 -2.335)" style="fill-rule:evenodd;fill:url(#radial-gradient-2)"/><circle cx="49.29" cy="154.767" r="20.234" style="fill:#020202;opacity:0.4"/><path d="M336.648,171.14c0,3.91,24.836,11.966,24.1,15.661-.753,3.808-9.247,9.068-10.7,12.571-1.478,3.564-12.18,4.583-14.3,7.751-2.138,3.192-2.391,10.056-5.1,12.763s-4.708,10.225-7.9,12.363c-3.168,2.121-15.99-11.184-19.556-9.706-3.5,1.453-7.706-3.064-11.515-2.31-3.7.731-5.865,16.569-9.775,16.569s-3.915-26.778-7.611-27.509c-3.808-.753-.315-9.073-3.818-10.526-3.564-1.478-24.91,33.6-28.078,31.483-3.193-2.137,2.171-16.36-.536-19.067s-29.34,10.968-31.478,7.775c-2.121-3.168,4.994-16.079,3.516-19.643-1.452-3.5-11.585-8.409-12.338-12.216-.731-3.7,44.563-12.047,44.563-15.958s-24.127-8.075-23.4-11.77c.754-3.808-3.83-10.225-2.377-13.729,1.478-3.565,6.767-6.527,8.888-9.7,2.138-3.193,8.443-3.616,11.15-6.323s-7.6-25.04-4.407-27.177c3.169-2.121,8.52-11.5,12.085-12.974,3.5-1.453,20.083,32.456,23.892,31.7,3.7-.731,6.037-26.3,9.947-26.3s6.2,25.84,9.894,26.572c3.808.753-2.142,21.036,1.362,22.488,3.564,1.478,17.918-23.326,21.087-21.2,3.192,2.138,10.623.027,13.33,2.734s-16.276,21.431-14.14,24.623c2.121,3.168,32.725-9.748,34.2-6.184,1.452,3.5,11.979,7.839,12.732,11.646C361.108,159.249,336.648,167.23,336.648,171.14Z" transform="translate(-4.611 -2.335)" style="fill-rule:evenodd;fill:url(#radial-gradient-3)"/><ellipse cx="291.579" cy="179.039" rx="24.278" ry="15.99" style="fill:#070707;opacity:0.4"/><rect x="3.24" y="8.611" width="79.645" height="79.645" rx="12" ry="12" style="fill:url(#radial-gradient-4)"/><rect x="89.743" y="8.611" width="79.646" height="79.645" rx="12" ry="12" style="fill:url(#radial-gradient-5)"/><path d="M291.028,53.148a39.415,39.415,0,0,0-29.45-47.326L251.017,3.363C240.51,7.392,231.559,9.522,231.126,8.1s-8.475,5.621-17.871,15.66L187.766,50.987c-9.4,10.039-6.127,20.8,7.265,23.921l36.329,8.458c13.392,3.118,23.977,4.447,23.523,2.952s9.665-6.782,22.485-11.75C277.368,74.569,286.9,70.874,291.028,53.148Z" transform="translate(-4.611 -2.335)" style="fill:url(#radial-gradient-6)"/><path d="M109.758,194.706c.973.811,2.755.59,3.627,1.473.888.9,2.98.785,3.763,1.751.794.982.586,2.78,1.271,3.821s.264,2.709.844,3.814,2.8,1.457,3.268,2.615,2.161,2.057,2.513,3.258-.457,2.844-.223,4.072-.656,2.664-.543,3.912-.7,2.48-.714,3.734,1.781,2.6,1.649,3.85-2.166,2.188-2.419,3.42.082,2.535-.292,3.736-2.55,1.59-3.042,2.75,1.415,3.354.81,4.463c-.6,1.091-1.264,2.2-1.977,3.243-.7,1.026-.08,3.224-.892,4.2s-1.873,1.986-2.756,2.858c-.9.889-3.185.389-4.151,1.172s-2.209,1.248-3.25,1.934-2.059,1.443-3.164,2.023-2.988-.705-4.147-.236-1.81,2.043-3.011,2.4-1.825,3.451-3.054,3.685-2.916-2.088-4.165-1.975-2.482,1.9-3.736,1.887-2.395-2.408-3.644-2.539-3.01,2.682-4.24,2.428S75.7,261,74.5,260.627s-1.175-3.936-2.335-4.428-3.367,1.4-4.476.8c-1.091-.6-2.579-.736-3.624-1.449-1.026-.7-1.211-2.615-2.184-3.428s-2.419-1.114-3.292-2c-.888-.9.331-3.568-.452-4.533-.794-.982-3.722-.3-4.406-1.346s1.006-3.429.427-4.533-2.05-1.657-2.518-2.816.152-2.559-.2-3.758a34.632,34.632,0,0,1-.605-3.51C50.6,228.4,46,227.77,45.89,226.522s1.458-2.709,1.468-3.963.262-2.547.394-3.795,1.33-2.32,1.584-3.551-.775-2.8-.4-4,.7-2.5,1.192-3.658,2.846-1.392,3.451-2.5c.6-1.092-.574-3.277.138-4.323.7-1.026,1.661-1.989,2.473-2.962s.739-2.951,1.623-3.823c.9-.888,4.44,1.14,5.407.357s.818-3.034,1.86-3.719,2.367-.949,3.473-1.528,2.318-.912,3.477-1.38,2.392-.621,3.591-.974,2.519.172,3.749-.062,2.185-2.065,3.433-2.179,2.538-1.811,3.793-1.8,2.72-.192,3.968-.061,2.082,3.329,3.313,3.583,3.238-2.284,4.439-1.909,1.482,3.43,2.643,3.921,3.463-1.281,4.571-.676c1.091.6,2.38,1.267,3.425,1.979C109.978,190.2,108.785,193.894,109.758,194.706Z" transform="translate(-4.611 -2.335)" style="fill-rule:evenodd;fill:url(#radial-gradient-7)"/><circle cx="316.369" cy="80.405" r="2.422" style="fill:#348c73"/><circle cx="328.084" cy="77.983" r="2.422" style="fill:#348c73"/><circle cx="344.928" cy="77.983" r="2.422" style="fill:#348c73"/><circle cx="330.506" cy="93.687" r="2.422" style="fill:#348c73"/><circle cx="304.369" cy="85.248" r="2.422" style="fill:#348c73"/><circle cx="336.506" cy="82.826" r="2.422" style="fill:#a4c44b"/><circle cx="324.506" cy="96.826" r="2.422" style="fill:#a4c44b"/><circle cx="341.35" cy="96.826" r="2.422" style="fill:#a4c44b"/><circle cx="326.928" cy="112.529" r="2.422" style="fill:#a4c44b"/><circle cx="324.506" cy="87.669" r="2.422" style="fill:#a4c44b"/><circle cx="173.112" cy="186.332" r="2.422" style="fill:#a4c44b"/><circle cx="188.945" cy="148.41" r="2.422" style="fill:#a4c44b"/><circle cx="183.703" cy="197.374" r="2.422" style="fill:#a4c44b"/><circle cx="178.494" cy="164.832" r="2.422" style="fill:#a4c44b"/><circle cx="190.673" cy="178.332" r="2.422" style="fill:#a4c44b"/><path d="M12.953,43.27a9.734,9.734,0,0,1,2.177-.24,3.7,3.7,0,0,1,2.817.9,2.315,2.315,0,0,1,.672,1.761,2.607,2.607,0,0,1-1.857,2.4v.048a2.807,2.807,0,0,1,2.289,2.753,2.916,2.916,0,0,1-.8,2.065,4.722,4.722,0,0,1-3.425,1.024c-.816,0-1.441-.064-1.873-.1Zm.769,4.578H15.29c1.569,0,2.545-.929,2.545-2.113,0-1.521-1.153-2.065-2.753-2.065a5.74,5.74,0,0,0-1.36.112Zm0,5.41a7.312,7.312,0,0,0,1.329.08c1.648,0,3.2-.592,3.2-2.433,0-1.7-1.457-2.433-3.169-2.433h-1.36Z" transform="translate(-4.611 -2.335)"/><path d="M26.955,52.026c0,.672.016,1.28.064,1.873H26.3l-.048-1.376h-.032a2.952,2.952,0,0,1-2.625,1.553c-.976,0-2.625-.5-2.625-3.394V46.215h.769v4.322c0,1.665.512,2.865,2.033,2.865a2.541,2.541,0,0,0,2.273-1.553A2.766,2.766,0,0,0,26.187,51V46.215h.768Z" transform="translate(-4.611 -2.335)"/><path d="M29.528,42.533H30.3V53.9h-.769Z" transform="translate(-4.611 -2.335)"/><path d="M33.672,49.912H33.7c.192-.24.5-.592.736-.848l2.721-2.849h.929L34.985,49.4l3.538,4.5h-.929l-3.137-4.034-.784.833v3.2H32.9V42.533h.769Z" transform="translate(-4.611 -2.335)"/><path d="M44.249,44.518v1.7h2.193v.624H44.249v4.994c0,.977.3,1.585,1.121,1.585a2.863,2.863,0,0,0,.88-.112l.1.576a2.671,2.671,0,0,1-1.072.192,1.593,1.593,0,0,1-1.312-.544,2.807,2.807,0,0,1-.48-1.841v-4.85h-1.3v-.624h1.3V44.806Z" transform="translate(-4.611 -2.335)"/><path d="M54.058,52.026c0,.672.016,1.28.064,1.873H53.4l-.048-1.376h-.032A2.952,2.952,0,0,1,50.7,54.074c-.976,0-2.625-.5-2.625-3.394V46.215h.769v4.322c0,1.665.512,2.865,2.033,2.865a2.541,2.541,0,0,0,2.273-1.553A2.766,2.766,0,0,0,53.29,51V46.215h.768Z" transform="translate(-4.611 -2.335)"/><path d="M56.632,48.056c0-.7-.016-1.232-.064-1.841h.72l.048,1.36h.032a2.7,2.7,0,0,1,2.5-1.537,2.345,2.345,0,0,1,2.209,1.681h.032a2.872,2.872,0,0,1,.785-1.04,2.582,2.582,0,0,1,1.825-.641c.752,0,2.513.417,2.513,3.33V53.9H66.46v-4.45c0-1.729-.672-2.753-2-2.753a2.227,2.227,0,0,0-2.017,1.521,2.738,2.738,0,0,0-.128.752V53.9h-.769V49.1c0-1.393-.656-2.4-1.9-2.4a2.379,2.379,0,0,0-2.129,1.729,2.632,2.632,0,0,0-.112.736V53.9h-.769Z" transform="translate(-4.611 -2.335)"/><path d="M76.3,49.977a3.731,3.731,0,0,1-3.682,4.1c-1.985,0-3.521-1.553-3.521-3.954,0-2.625,1.729-4.082,3.633-4.082C74.857,46.039,76.3,47.64,76.3,49.977Zm-6.435.1c0,1.921,1.232,3.361,2.8,3.361,1.6,0,2.865-1.44,2.865-3.409,0-1.409-.784-3.345-2.817-3.345C70.744,46.679,69.864,48.424,69.864,50.072Z" transform="translate(-4.611 -2.335)"/><path d="M78.231,48.52c0-.769-.016-1.553-.064-2.305h.7l.032,1.553h.048a2.387,2.387,0,0,1,2.177-1.729,1.964,1.964,0,0,1,.32.032v.736a1.308,1.308,0,0,0-.368-.032c-1.057,0-1.809.913-2.017,2.145a3.615,3.615,0,0,0-.064.736V53.9h-.769Z" transform="translate(-4.611 -2.335)"/><path d="M204.42,40.442V51.23h-.769V40.442Z" transform="translate(-4.611 -2.335)"/><path d="M207.268,45.388c0-.7-.017-1.232-.064-1.841h.721l.048,1.393H208a2.9,2.9,0,0,1,2.641-1.569c.736,0,2.689.368,2.689,3.25v4.61h-.769V46.684c0-1.393-.544-2.657-2.129-2.657a2.472,2.472,0,0,0-2.306,1.761,3.042,3.042,0,0,0-.1.688V51.23h-.768Z" transform="translate(-4.611 -2.335)"/><path d="M215.443,43.547l1.793,4.77c.3.752.544,1.409.752,2.049h.031c.209-.64.5-1.312.785-2.049l1.824-4.77h.8l-3.121,7.683h-.672l-3.01-7.683Z" transform="translate(-4.611 -2.335)"/><path d="M227.7,49.405a11.561,11.561,0,0,0,.112,1.825h-.7l-.112-1.1h-.032a2.935,2.935,0,0,1-2.465,1.281,2.087,2.087,0,0,1-2.257-2.113c0-1.776,1.553-2.849,4.69-2.817v-.208c0-.752-.145-2.273-1.969-2.257a3.354,3.354,0,0,0-1.937.576l-.24-.561a4.255,4.255,0,0,1,2.258-.656c2.225,0,2.656,1.665,2.656,3.025Zm-.768-2.289c-1.682-.048-3.89.208-3.89,2.049a1.468,1.468,0,0,0,1.536,1.6,2.3,2.3,0,0,0,2.273-1.537,1.276,1.276,0,0,0,.08-.464Z" transform="translate(-4.611 -2.335)"/><path d="M229.859,50.222a3.4,3.4,0,0,0,1.729.528c1.217,0,1.793-.656,1.793-1.457,0-.848-.512-1.3-1.617-1.745-1.264-.48-1.953-1.168-1.953-2.1a2.158,2.158,0,0,1,2.369-2.081,3.01,3.01,0,0,1,1.7.48l-.288.624a2.592,2.592,0,0,0-1.536-.464,1.342,1.342,0,0,0-1.489,1.328c0,.8.544,1.153,1.585,1.585,1.248.48,1.984,1.1,1.984,2.273,0,1.313-1.024,2.193-2.593,2.193a3.773,3.773,0,0,1-1.953-.528Z" transform="translate(-4.611 -2.335)"/><path d="M237.14,41.354a.626.626,0,0,1-.641.656.616.616,0,0,1-.592-.656.657.657,0,0,1,.624-.672A.635.635,0,0,1,237.14,41.354Zm-.993,9.876V43.547h.77V51.23Z" transform="translate(-4.611 -2.335)"/><path d="M239.251,43.547l1.792,4.77c.3.752.545,1.409.753,2.049h.032c.208-.64.5-1.312.784-2.049l1.825-4.77h.8l-3.122,7.683h-.672l-3.009-7.683Z" transform="translate(-4.611 -2.335)"/><path d="M246.723,47.309c0,2.449,1.329,3.425,2.93,3.425a4.465,4.465,0,0,0,2.129-.432l.191.592a5.068,5.068,0,0,1-2.416.5,3.522,3.522,0,0,1-3.586-3.857c0-2.561,1.473-4.162,3.457-4.162,2.514,0,2.994,2.369,2.994,3.474a1.906,1.906,0,0,1-.033.464Zm4.9-.608c.016-1.072-.432-2.689-2.289-2.689a2.742,2.742,0,0,0-2.577,2.689Z" transform="translate(-4.611 -2.335)"/><path d="M263.173,50.894a5.251,5.251,0,0,1-2.257.5,3.622,3.622,0,0,1-3.682-3.922,3.863,3.863,0,0,1,3.953-4.1,3.934,3.934,0,0,1,2.018.48l-.272.624a3.606,3.606,0,0,0-1.809-.448A3.091,3.091,0,0,0,258,47.4a3.034,3.034,0,0,0,3.041,3.33,4.267,4.267,0,0,0,1.921-.448Z" transform="translate(-4.611 -2.335)"/><path d="M265.123,47.309c0,2.449,1.328,3.425,2.93,3.425a4.471,4.471,0,0,0,2.129-.432l.191.592a5.073,5.073,0,0,1-2.417.5,3.521,3.521,0,0,1-3.585-3.857c0-2.561,1.473-4.162,3.457-4.162,2.513,0,2.993,2.369,2.993,3.474a1.962,1.962,0,0,1-.032.464Zm4.9-.608c.016-1.072-.433-2.689-2.289-2.689a2.744,2.744,0,0,0-2.578,2.689Z" transform="translate(-4.611 -2.335)"/><path d="M272.771,39.865h.769V51.23h-.769Z" transform="translate(-4.611 -2.335)"/><path d="M276.162,39.865h.77V51.23h-.77Z" transform="translate(-4.611 -2.335)"/><path d="M279.234,50.222a3.4,3.4,0,0,0,1.729.528c1.217,0,1.793-.656,1.793-1.457,0-.848-.512-1.3-1.617-1.745-1.264-.48-1.953-1.168-1.953-2.1a2.158,2.158,0,0,1,2.369-2.081,3.01,3.01,0,0,1,1.7.48l-.288.624a2.592,2.592,0,0,0-1.536-.464,1.342,1.342,0,0,0-1.489,1.328c0,.8.544,1.153,1.585,1.585,1.248.48,1.984,1.1,1.984,2.273,0,1.313-1.024,2.193-2.593,2.193a3.773,3.773,0,0,1-1.953-.528Z" transform="translate(-4.611 -2.335)"/><path d="M237.317,153.27a16.088,16.088,0,0,1,2.769-.24,5.849,5.849,0,0,1,4.354,1.472,5.144,5.144,0,0,1,1.345,3.746,5.9,5.9,0,0,1-1.408,4.082,6.176,6.176,0,0,1-4.658,1.649,23.51,23.51,0,0,1-2.4-.1Zm.769,9.988a13.292,13.292,0,0,0,1.744.08c3.458,0,5.17-1.937,5.17-5.058.033-2.737-1.488-4.61-4.961-4.61a9.82,9.82,0,0,0-1.953.176Z" transform="translate(-4.611 -2.335)"/><path d="M247.877,159.977c0,2.449,1.329,3.425,2.93,3.425a4.465,4.465,0,0,0,2.129-.432l.191.592a5.068,5.068,0,0,1-2.416.5,3.522,3.522,0,0,1-3.586-3.857c0-2.561,1.473-4.162,3.457-4.162,2.514,0,2.994,2.369,2.994,3.474a1.906,1.906,0,0,1-.033.464Zm4.9-.608c.016-1.072-.432-2.689-2.289-2.689a2.742,2.742,0,0,0-2.577,2.689Z" transform="translate(-4.611 -2.335)"/><path d="M255.525,158.056c0-.7-.017-1.232-.064-1.841h.721l.048,1.393h.032a2.9,2.9,0,0,1,2.641-1.569c.736,0,2.689.368,2.689,3.25v4.61h-.769v-4.546c0-1.393-.544-2.657-2.129-2.657a2.472,2.472,0,0,0-2.306,1.761,3.042,3.042,0,0,0-.1.688V163.9h-.768Z" transform="translate(-4.611 -2.335)"/><path d="M270.231,152.533v9.572c0,.577.017,1.249.064,1.793h-.688l-.064-1.457h-.031a2.912,2.912,0,0,1-2.737,1.633c-1.905,0-3.313-1.585-3.313-3.874-.016-2.561,1.568-4.162,3.457-4.162a2.713,2.713,0,0,1,2.514,1.361h.031v-4.866Zm-.769,6.723a2.626,2.626,0,0,0-.08-.7,2.46,2.46,0,0,0-2.416-1.873c-1.682,0-2.737,1.457-2.737,3.441,0,1.729.864,3.313,2.688,3.313a2.549,2.549,0,0,0,2.465-2,2.056,2.056,0,0,0,.08-.641Z" transform="translate(-4.611 -2.335)"/><path d="M272.789,158.52c0-.769-.016-1.553-.064-2.305h.705l.031,1.553h.049a2.386,2.386,0,0,1,2.176-1.729,1.953,1.953,0,0,1,.32.032v.736a1.3,1.3,0,0,0-.367-.032c-1.057,0-1.81.913-2.018,2.145a3.614,3.614,0,0,0-.064.736V163.9h-.768Z" transform="translate(-4.611 -2.335)"/><path d="M278.629,154.022a.626.626,0,0,1-.641.656.617.617,0,0,1-.592-.656.657.657,0,0,1,.624-.672A.634.634,0,0,1,278.629,154.022Zm-.992,9.876v-7.683h.768V163.9Z" transform="translate(-4.611 -2.335)"/><path d="M282.037,154.518v1.7h2.193v.624h-2.193v4.994c0,.977.3,1.585,1.121,1.585a2.861,2.861,0,0,0,.88-.112l.1.576a2.671,2.671,0,0,1-1.072.192,1.593,1.593,0,0,1-1.312-.544,2.8,2.8,0,0,1-.48-1.841v-4.85h-1.3v-.624h1.3v-1.409Z" transform="translate(-4.611 -2.335)"/><path d="M286.917,154.022a.626.626,0,0,1-.641.656.616.616,0,0,1-.592-.656.657.657,0,0,1,.624-.672A.635.635,0,0,1,286.917,154.022Zm-.993,9.876v-7.683h.77V163.9Z" transform="translate(-4.611 -2.335)"/><path d="M294.566,163.562a5.247,5.247,0,0,1-2.257.5,3.622,3.622,0,0,1-3.682-3.922,3.864,3.864,0,0,1,3.954-4.1,3.926,3.926,0,0,1,2.016.48l-.271.624a3.609,3.609,0,0,0-1.809-.448,3.092,3.092,0,0,0-3.121,3.377,3.033,3.033,0,0,0,3.041,3.33,4.271,4.271,0,0,0,1.921-.448Z" transform="translate(-4.611 -2.335)"/><path d="M305.207,163.562a5.252,5.252,0,0,1-2.258.5,3.622,3.622,0,0,1-3.682-3.922,3.864,3.864,0,0,1,3.954-4.1,3.93,3.93,0,0,1,2.017.48l-.271.624a3.612,3.612,0,0,0-1.809-.448,3.091,3.091,0,0,0-3.121,3.377,3.033,3.033,0,0,0,3.041,3.33,4.262,4.262,0,0,0,1.92-.448Z" transform="translate(-4.611 -2.335)"/><path d="M307.156,159.977c0,2.449,1.329,3.425,2.93,3.425a4.465,4.465,0,0,0,2.129-.432l.191.592a5.068,5.068,0,0,1-2.416.5A3.522,3.522,0,0,1,306.4,160.2c0-2.561,1.473-4.162,3.457-4.162,2.514,0,2.994,2.369,2.994,3.474a1.906,1.906,0,0,1-.033.464Zm4.9-.608c.016-1.072-.432-2.689-2.289-2.689a2.742,2.742,0,0,0-2.577,2.689Z" transform="translate(-4.611 -2.335)"/><path d="M314.8,152.533h.768V163.9H314.8Z" transform="translate(-4.611 -2.335)"/><path d="M318.2,152.533h.77V163.9h-.77Z" transform="translate(-4.611 -2.335)"/><path d="M321.268,162.89a3.4,3.4,0,0,0,1.729.528c1.217,0,1.793-.656,1.793-1.457,0-.848-.512-1.3-1.617-1.745-1.264-.48-1.953-1.168-1.953-2.1a2.158,2.158,0,0,1,2.369-2.081,3.01,3.01,0,0,1,1.7.48l-.288.624a2.592,2.592,0,0,0-1.536-.464,1.342,1.342,0,0,0-1.489,1.328c0,.8.544,1.153,1.585,1.585,1.248.48,1.984,1.1,1.984,2.273,0,1.313-1.024,2.193-2.593,2.193A3.773,3.773,0,0,1,321,163.53Z" transform="translate(-4.611 -2.335)"/><path d="M120.365,124.892h-3.521v-.641h7.812v.641h-3.521V135.04h-.769Z" transform="translate(-4.611 -2.335)"/><path d="M134.558,134.7a5.249,5.249,0,0,1-2.257.5,3.622,3.622,0,0,1-3.682-3.922,3.864,3.864,0,0,1,3.954-4.1,3.93,3.93,0,0,1,2.017.48l-.272.624a3.607,3.607,0,0,0-1.809-.448,3.091,3.091,0,0,0-3.121,3.377,3.033,3.033,0,0,0,3.041,3.33,4.269,4.269,0,0,0,1.921-.448Z" transform="translate(-4.611 -2.335)"/><path d="M136.508,131.118c0,2.449,1.329,3.425,2.929,3.425a4.467,4.467,0,0,0,2.129-.432l.192.592a5.073,5.073,0,0,1-2.417.5,3.521,3.521,0,0,1-3.585-3.857c0-2.561,1.473-4.162,3.458-4.162,2.513,0,2.993,2.369,2.993,3.474a1.962,1.962,0,0,1-.032.464Zm4.9-.608c.016-1.072-.432-2.689-2.289-2.689a2.743,2.743,0,0,0-2.577,2.689Z" transform="translate(-4.611 -2.335)"/><path d="M144.155,123.675h.769V135.04h-.769Z" transform="translate(-4.611 -2.335)"/><path d="M147.547,123.675h.769V135.04h-.769Z" transform="translate(-4.611 -2.335)"/><path d="M150.62,134.031a3.4,3.4,0,0,0,1.729.528c1.216,0,1.793-.656,1.793-1.457,0-.848-.512-1.3-1.617-1.745-1.265-.48-1.953-1.168-1.953-2.1a2.158,2.158,0,0,1,2.369-2.081,3.009,3.009,0,0,1,1.7.48l-.288.624a2.592,2.592,0,0,0-1.537-.464,1.342,1.342,0,0,0-1.489,1.328c0,.8.544,1.153,1.584,1.585,1.249.48,1.985,1.1,1.985,2.273,0,1.313-1.024,2.193-2.593,2.193a3.771,3.771,0,0,1-1.953-.528Z" transform="translate(-4.611 -2.335)"/><path d="M13.175,140.73c-.1-1.632-.208-3.537-.176-4.738h-.064c-.352,1.185-.736,2.449-1.3,4.034l-2.065,5.842H9.109L7.172,140.2c-.576-1.681-.992-2.993-1.28-4.209H5.844c-.016,1.28-.1,3.089-.208,4.882l-.288,4.994H4.611l.72-10.789H6.18L8.261,141.1c.464,1.409.816,2.449,1.1,3.554h.048a35,35,0,0,1,1.1-3.538l2.113-6.035h.9l.688,10.789h-.736Z" transform="translate(-4.611 -2.335)"/><path d="M20.757,144.075a13.169,13.169,0,0,0,.1,1.793h-.672l-.1-1.024h-.048a2.47,2.47,0,0,1-2.145,1.185,2.019,2.019,0,0,1-2.1-2.113c0-1.793,1.521-2.8,4.226-2.785v-.224c0-.929-.16-2.257-1.776-2.241a2.889,2.889,0,0,0-1.681.512l-.224-.544a3.551,3.551,0,0,1,2.017-.608c1.857,0,2.4,1.345,2.4,2.865Zm-.736-2.321c-1.344-.032-3.441.16-3.441,2.065a1.385,1.385,0,0,0,1.393,1.584,2.008,2.008,0,0,0,1.985-1.521,1.683,1.683,0,0,0,.064-.464Z" transform="translate(-4.611 -2.335)"/><path d="M27.8,145.564a4.223,4.223,0,0,1-1.953.448c-2,0-3.346-1.537-3.346-3.921,0-2.337,1.441-4.066,3.585-4.066a3.369,3.369,0,0,1,1.729.417l-.256.624A3.058,3.058,0,0,0,26,138.681c-1.857,0-2.753,1.633-2.753,3.394,0,2.017,1.121,3.3,2.721,3.3a3.7,3.7,0,0,0,1.633-.384Z" transform="translate(-4.611 -2.335)"/><path d="M29.443,140.33c0-.7-.032-1.473-.064-2.145h.688l.032,1.457h.032a2.238,2.238,0,0,1,2.033-1.617,1.237,1.237,0,0,1,.256.032v.72a1.545,1.545,0,0,0-.288-.016c-1.041,0-1.745.944-1.9,2.081a5.073,5.073,0,0,0-.048.7v4.322h-.736Z" transform="translate(-4.611 -2.335)"/><path d="M39.413,141.978c0,2.849-1.713,4.05-3.265,4.05-1.729,0-3.138-1.425-3.138-3.954,0-2.689,1.553-4.05,3.25-4.05C38.068,138.025,39.413,139.481,39.413,141.978Zm-5.65.064c0,1.713.928,3.361,2.433,3.361s2.465-1.648,2.465-3.409c0-1.345-.624-3.345-2.449-3.345C34.451,138.649,33.763,140.506,33.763,142.042Z" transform="translate(-4.611 -2.335)"/><path d="M41.219,140.618c0-1.073-.032-1.793-.064-2.433h.7l.048,1.329h.032a2.647,2.647,0,0,1,2.481-1.489c1.713,0,2.945,1.489,2.945,3.906,0,2.8-1.489,4.1-3.137,4.1a2.475,2.475,0,0,1-2.241-1.281h-.032v4.258h-.736Zm.736,2.289a2.538,2.538,0,0,0,.064.608A2.243,2.243,0,0,0,44.2,145.4c1.6,0,2.417-1.488,2.417-3.441,0-1.712-.8-3.313-2.369-3.313a2.411,2.411,0,0,0-2.208,1.985,4.344,4.344,0,0,0-.08.64Z" transform="translate(-4.611 -2.335)"/><path d="M49.17,134.583h.736V139.4h.032a2.625,2.625,0,0,1,.929-.992,2.542,2.542,0,0,1,1.393-.384c.72,0,2.369.4,2.369,2.993v4.85h-.736v-4.722c0-1.3-.464-2.481-1.841-2.481a2.224,2.224,0,0,0-2.064,1.681,2.439,2.439,0,0,0-.08.7v4.818H49.17Z" transform="translate(-4.611 -2.335)"/><path d="M61.316,144.075a13.169,13.169,0,0,0,.1,1.793H60.74l-.1-1.024H60.6a2.47,2.47,0,0,1-2.145,1.185,2.019,2.019,0,0,1-2.1-2.113c0-1.793,1.521-2.8,4.226-2.785v-.224c0-.929-.16-2.257-1.776-2.241a2.889,2.889,0,0,0-1.681.512l-.224-.544a3.551,3.551,0,0,1,2.017-.608c1.857,0,2.4,1.345,2.4,2.865Zm-.736-2.321c-1.344-.032-3.441.16-3.441,2.065a1.385,1.385,0,0,0,1.393,1.584,2.007,2.007,0,0,0,1.985-1.521,1.683,1.683,0,0,0,.064-.464Z" transform="translate(-4.611 -2.335)"/><path d="M69.109,144.763c0,2.049-.352,2.945-.929,3.521a3.323,3.323,0,0,1-2.353.88,4,4,0,0,1-2.177-.576l.256-.608a3.752,3.752,0,0,0,2.033.56c1.409,0,2.433-.752,2.433-2.977v-1.041H68.34a2.471,2.471,0,0,1-2.321,1.345c-1.7,0-2.961-1.569-2.961-3.793,0-2.785,1.633-4.05,3.122-4.05a2.374,2.374,0,0,1,2.241,1.345h.032l.032-1.185h.688c-.032.528-.064,1.136-.064,2.1Zm-.736-3.746a2.324,2.324,0,0,0-.08-.688,2.194,2.194,0,0,0-2.1-1.681c-1.425,0-2.385,1.328-2.385,3.345,0,1.9.864,3.25,2.385,3.25a2.15,2.15,0,0,0,2.064-1.649,2.838,2.838,0,0,0,.112-.8Z" transform="translate(-4.611 -2.335)"/><path d="M71.65,141.882c0,2.657,1.265,3.49,2.625,3.49a3.658,3.658,0,0,0,1.856-.4l.176.576a4.255,4.255,0,0,1-2.129.464c-2.049,0-3.266-1.6-3.266-3.874,0-2.529,1.3-4.114,3.105-4.114,2.225,0,2.689,2.209,2.689,3.394a4.022,4.022,0,0,1-.016.464Zm4.274-.592c.032-1.313-.528-2.641-2-2.641-1.457,0-2.113,1.44-2.241,2.641Z" transform="translate(-4.611 -2.335)"/><path d="M78.178,144.876a2.885,2.885,0,0,0,1.553.5c1.088,0,1.648-.625,1.648-1.441,0-.8-.416-1.264-1.44-1.745-1.137-.528-1.825-1.168-1.825-2.129a2.053,2.053,0,0,1,2.209-2.033,2.684,2.684,0,0,1,1.568.464l-.3.608a2.163,2.163,0,0,0-1.36-.433,1.276,1.276,0,0,0-1.393,1.281c0,.752.448,1.088,1.409,1.569,1.088.5,1.873,1.12,1.873,2.289a2.191,2.191,0,0,1-2.433,2.209,3.315,3.315,0,0,1-1.776-.512Z" transform="translate(-4.611 -2.335)"/><path d="M64.665,208.287V197.5h.72l4.194,6.371a35.577,35.577,0,0,1,2.033,3.394l.032-.016c-.112-1.457-.128-2.689-.128-4.386V197.5h.736v10.789h-.7l-4.114-6.274c-.8-1.249-1.537-2.385-2.1-3.49l-.032.016c.08,1.329.1,2.5.1,4.29v5.458Z" transform="translate(-4.611 -2.335)"/><path d="M74.856,197.5h.769v5.458h.048c.32-.416.64-.784.928-1.121l3.826-4.338h.928l-4.1,4.578,4.482,6.21h-.912l-4.1-5.682-1.1,1.216v4.466h-.769Z" transform="translate(-4.611 -2.335)"/><path d="M91.626,207.951a5.249,5.249,0,0,1-2.257.5,3.622,3.622,0,0,1-3.682-3.922,3.864,3.864,0,0,1,3.954-4.1,3.93,3.93,0,0,1,2.017.48l-.272.624a3.607,3.607,0,0,0-1.809-.448,3.091,3.091,0,0,0-3.121,3.377,3.033,3.033,0,0,0,3.041,3.33,4.269,4.269,0,0,0,1.921-.448Z" transform="translate(-4.611 -2.335)"/><path d="M93.577,204.365c0,2.449,1.329,3.425,2.929,3.425a4.467,4.467,0,0,0,2.129-.432l.192.592a5.073,5.073,0,0,1-2.417.5,3.521,3.521,0,0,1-3.585-3.857c0-2.561,1.473-4.162,3.458-4.162,2.513,0,2.993,2.369,2.993,3.474a1.962,1.962,0,0,1-.032.464Zm4.9-.608c.016-1.072-.432-2.689-2.289-2.689a2.743,2.743,0,0,0-2.577,2.689Z" transform="translate(-4.611 -2.335)"/><path d="M101.224,196.922h.769v11.365h-.769Z" transform="translate(-4.611 -2.335)"/><path d="M104.616,196.922h.769v11.365h-.769Z" transform="translate(-4.611 -2.335)"/><path d="M107.688,207.278a3.4,3.4,0,0,0,1.729.528c1.216,0,1.793-.656,1.793-1.457,0-.848-.512-1.3-1.617-1.745-1.265-.48-1.953-1.168-1.953-2.1a2.158,2.158,0,0,1,2.369-2.081,3.009,3.009,0,0,1,1.7.48l-.288.624a2.592,2.592,0,0,0-1.537-.464,1.342,1.342,0,0,0-1.489,1.328c0,.8.544,1.153,1.584,1.585,1.249.48,1.985,1.1,1.985,2.273,0,1.313-1.024,2.193-2.593,2.193a3.771,3.771,0,0,1-1.953-.528Z" transform="translate(-4.611 -2.335)"/><ellipse cx="42.18" cy="75.764" rx="23.125" ry="9.485" style="fill:#020202;opacity:0.4"/><ellipse cx="129.18" cy="75.764" rx="23.125" ry="9.485" style="fill:#020202;opacity:0.4"/><circle cx="214.06" cy="51.434" r="17.003" style="fill:#070707;opacity:0.4"/><line x1="176.905" y1="155.611" x2="208.062" y2="159.488" style="fill:none;stroke:#020202;stroke-linecap:round;stroke-linejoin:round;stroke-width:2px"/><rect x="206.174" y="160.823" width="13" height="2" transform="translate(21.201 350.537) rotate(-82.902)" style="fill:#020202"/><line x1="196.389" y1="78.562" x2="220.838" y2="115.604" style="fill:none;stroke:#020202;stroke-linecap:round;stroke-linejoin:round;stroke-width:2px"/><rect x="218.949" y="116.94" width="13" height="2" transform="translate(-32.29 141.364) rotate(-33.426)" style="fill:#020202"/><circle cx="136.026" cy="214.112" r="2.422" style="fill:#a4c44b"/><circle cx="136.026" cy="233.659" r="2.422" style="fill:#348c73"/><path d="M147.564,211.521a13.083,13.083,0,0,1,2.321-.208,4.022,4.022,0,0,1,2.849.912,2.806,2.806,0,0,1,.832,2.113,3.035,3.035,0,0,1-.752,2.161,4.15,4.15,0,0,1-3.169,1.2,4.754,4.754,0,0,1-1.312-.128v4.61h-.769Zm.769,5.378a4.4,4.4,0,0,0,1.376.16c1.937,0,3.089-.928,3.089-2.641,0-1.7-1.232-2.465-2.945-2.465a7.571,7.571,0,0,0-1.521.128Z" transform="translate(-4.611 -2.335)"/><path d="M155.244,216.8c0-.769-.016-1.553-.064-2.305h.7l.032,1.553h.048a2.387,2.387,0,0,1,2.177-1.729,1.964,1.964,0,0,1,.32.032v.736a1.308,1.308,0,0,0-.368-.032c-1.057,0-1.809.913-2.017,2.145a3.615,3.615,0,0,0-.064.736v4.242h-.769Z" transform="translate(-4.611 -2.335)"/><path d="M166.368,218.259a3.731,3.731,0,0,1-3.682,4.1c-1.985,0-3.521-1.553-3.521-3.954,0-2.625,1.729-4.082,3.633-4.082C164.927,214.321,166.368,215.923,166.368,218.259Zm-6.435.1c0,1.921,1.232,3.361,2.8,3.361,1.6,0,2.865-1.44,2.865-3.409,0-1.409-.784-3.345-2.817-3.345C160.813,214.962,159.933,216.707,159.933,218.355Z" transform="translate(-4.611 -2.335)"/><path d="M169.374,212.8v1.7h2.193v.624h-2.193v4.994c0,.977.3,1.585,1.121,1.585a2.857,2.857,0,0,0,.88-.112l.1.576a2.669,2.669,0,0,1-1.072.192,1.594,1.594,0,0,1-1.312-.544,2.807,2.807,0,0,1-.48-1.841v-4.85h-1.3V214.5h1.3v-1.409Z" transform="translate(-4.611 -2.335)"/><path d="M173.277,218.259c0,2.449,1.329,3.425,2.929,3.425a4.467,4.467,0,0,0,2.129-.432l.192.592a5.073,5.073,0,0,1-2.417.5,3.521,3.521,0,0,1-3.585-3.857c0-2.561,1.473-4.162,3.458-4.162,2.513,0,2.993,2.369,2.993,3.474a1.962,1.962,0,0,1-.032.464Zm4.9-.608c.016-1.072-.432-2.689-2.289-2.689a2.743,2.743,0,0,0-2.577,2.689Z" transform="translate(-4.611 -2.335)"/><path d="M181.917,212.3a.626.626,0,0,1-.641.656.617.617,0,0,1-.592-.656.657.657,0,0,1,.624-.672A.634.634,0,0,1,181.917,212.3Zm-.993,9.876V214.5h.769v7.683Z" transform="translate(-4.611 -2.335)"/><path d="M184.268,216.339c0-.7-.016-1.232-.064-1.841h.72l.048,1.393H185a2.9,2.9,0,0,1,2.641-1.569c.736,0,2.688.368,2.688,3.25v4.61h-.768v-4.546c0-1.393-.545-2.657-2.129-2.657a2.471,2.471,0,0,0-2.305,1.761,2.988,2.988,0,0,0-.1.688v4.754h-.769Z" transform="translate(-4.611 -2.335)"/><path d="M196.012,221a4.265,4.265,0,0,0,2.354.7c1.617,0,2.609-.913,2.609-2.241,0-1.216-.625-1.921-2.193-2.529-1.729-.608-2.77-1.5-2.77-2.978a2.848,2.848,0,0,1,3.138-2.737,4.007,4.007,0,0,1,2.146.512l-.289.64a3.442,3.442,0,0,0-1.9-.512,2.044,2.044,0,0,0-2.337,1.969c0,1.2.688,1.809,2.241,2.417,1.776.72,2.721,1.521,2.721,3.137,0,1.569-1.121,2.978-3.426,2.978a4.709,4.709,0,0,1-2.576-.736Z" transform="translate(-4.611 -2.335)"/><path d="M155.312,240.9a8.468,8.468,0,0,1-3.153.592,5.235,5.235,0,0,1-3.809-1.408,5.69,5.69,0,0,1-1.489-4.066,5.3,5.3,0,0,1,5.634-5.538,6.187,6.187,0,0,1,2.513.48l-.256.641a5.071,5.071,0,0,0-2.3-.464,4.5,4.5,0,0,0-4.786,4.85c0,3.041,1.777,4.85,4.626,4.85a5.173,5.173,0,0,0,2.257-.368v-3.809h-2.5v-.625h3.265Z" transform="translate(-4.611 -2.335)"/><path d="M162.462,239.556a11.571,11.571,0,0,0,.112,1.825h-.7l-.112-1.105h-.032a2.935,2.935,0,0,1-2.465,1.281A2.088,2.088,0,0,1,157,239.444c0-1.776,1.553-2.849,4.69-2.817v-.208c0-.752-.144-2.273-1.969-2.257a3.35,3.35,0,0,0-1.937.576l-.24-.561a4.25,4.25,0,0,1,2.257-.656c2.225,0,2.657,1.665,2.657,3.025Zm-.769-2.289c-1.681-.048-3.889.208-3.889,2.049a1.469,1.469,0,0,0,1.537,1.6,2.3,2.3,0,0,0,2.272-1.537,1.273,1.273,0,0,0,.08-.463Z" transform="translate(-4.611 -2.335)"/><path d="M164.62,240.373a3.4,3.4,0,0,0,1.729.528c1.216,0,1.793-.656,1.793-1.457,0-.848-.512-1.3-1.617-1.745-1.265-.48-1.953-1.168-1.953-2.1a2.158,2.158,0,0,1,2.369-2.081,3.009,3.009,0,0,1,1.7.48l-.288.624a2.592,2.592,0,0,0-1.537-.464,1.342,1.342,0,0,0-1.489,1.328c0,.8.544,1.153,1.584,1.585,1.249.48,1.985,1.1,1.985,2.273,0,1.313-1.024,2.193-2.593,2.193a3.772,3.772,0,0,1-1.953-.529Z" transform="translate(-4.611 -2.335)"/><path d="M175.87,231.505a5.229,5.229,0,0,0-1.136.112A4.827,4.827,0,0,0,171,236.051h.032a3.159,3.159,0,0,1,2.705-1.457,3.055,3.055,0,0,1,3.089,3.345,3.343,3.343,0,0,1-3.233,3.618c-1.873,0-3.394-1.521-3.394-4.37a6.7,6.7,0,0,1,1.712-4.722,5.322,5.322,0,0,1,2.914-1.537,4.454,4.454,0,0,1,1.04-.128Zm.176,6.5a2.438,2.438,0,0,0-2.5-2.753,2.776,2.776,0,0,0-2.4,1.5,1.284,1.284,0,0,0-.176.608c0,2.1.944,3.553,2.673,3.553C175.054,240.917,176.046,239.764,176.046,238Z" transform="translate(-4.611 -2.335)"/><path d="M238.165,250.851h-3.521v-.641h7.811v.641h-3.521V261h-.768Z" transform="translate(-4.611 -2.335)" style="fill:#828282"/><path d="M242.724,253.316l2.017,5.026c.209.544.417,1.168.561,1.648h.032c.16-.465.352-1.072.592-1.7l1.873-4.978h.816l-2.3,5.73c-.929,2.385-1.585,3.81-2.594,4.69a4.391,4.391,0,0,1-1.344.8l-.24-.641a4.014,4.014,0,0,0,1.345-.849,6.1,6.1,0,0,0,1.28-1.937,1,1,0,0,0,.1-.336,1.111,1.111,0,0,0-.1-.336l-2.85-7.123Z" transform="translate(-4.611 -2.335)" style="fill:#828282"/><path d="M250.052,255.622c0-.77-.016-1.553-.063-2.306h.7l.032,1.553h.048a2.389,2.389,0,0,1,2.177-1.729,1.909,1.909,0,0,1,.32.033v.736a1.272,1.272,0,0,0-.368-.033c-1.057,0-1.809.913-2.017,2.146a3.54,3.54,0,0,0-.064.736V261h-.769Z" transform="translate(-4.611 -2.335)" style="fill:#828282"/><path d="M261.175,257.078a3.731,3.731,0,0,1-3.682,4.1c-1.984,0-3.521-1.553-3.521-3.954,0-2.625,1.729-4.082,3.634-4.082C259.734,253.139,261.175,254.741,261.175,257.078Zm-6.435.1c0,1.921,1.232,3.361,2.8,3.361,1.6,0,2.865-1.44,2.865-3.409,0-1.408-.784-3.346-2.817-3.346C255.62,253.78,254.74,255.525,254.74,257.174Z" transform="translate(-4.611 -2.335)" style="fill:#828282"/><path d="M262.867,259.863a4.131,4.131,0,0,0,2.241.656,2.325,2.325,0,0,0,2.625-2.4c-.016-1.744-1.521-2.449-3.073-2.449H264v-.64h.7c1.152,0,2.609-.656,2.609-2.1a1.776,1.776,0,0,0-2.017-1.857,3.507,3.507,0,0,0-2.017.721l-.3-.561a4.134,4.134,0,0,1,2.417-.816,2.384,2.384,0,0,1,2.705,2.418,2.667,2.667,0,0,1-1.937,2.465v.031a2.768,2.768,0,0,1,2.353,2.754c0,1.553-1.1,3.089-3.5,3.089a4.413,4.413,0,0,1-2.449-.7Z" transform="translate(-4.611 -2.335)" style="fill:#828282"/><path d="M282.74,257.221,281.412,261h-.784l3.905-10.788h.736L289.144,261h-.785L287,257.221Zm4.034-.641-1.312-3.6a15.992,15.992,0,0,1-.561-1.905h-.048a17.333,17.333,0,0,1-.561,1.873l-1.312,3.633Z" transform="translate(-4.611 -2.335)" style="fill:#bf2f0d"/><path d="M296.759,261l-1.633-2.656c-.673-1.009-1.057-1.617-1.425-2.241h-.032c-.352.624-.687,1.216-1.36,2.257L290.756,261h-.88l3.425-5.457-3.281-5.331h.864l1.745,2.882c.448.72.784,1.28,1.1,1.856h.032c.336-.624.672-1.12,1.136-1.856l1.81-2.882h.9l-3.441,5.251L297.639,261Z" transform="translate(-4.611 -2.335)" style="fill:#bf2f0d"/><path d="M299.428,250.211h.768v10.148H305V261h-5.57Z" transform="translate(-4.611 -2.335)" style="fill:#bf2f0d"/><path d="M326.215,255.878c-.1-1.617-.225-3.6-.225-4.771h-.031c-.4,1.169-.833,2.417-1.457,4.018L322.229,261H321.7l-2.129-5.73c-.608-1.68-1.072-2.977-1.393-4.161h-.032c-.032,1.265-.112,3.138-.24,4.931L317.571,261h-.752l.784-10.788h.88l2.321,6.211c.512,1.376.88,2.465,1.185,3.5h.048c.272-.992.656-2.049,1.2-3.489l2.417-6.227h.913l.72,10.788h-.752Z" transform="translate(-4.611 -2.335)" style="fill:#15129b"/><path d="M329.795,257.078c0,2.448,1.329,3.425,2.93,3.425a4.469,4.469,0,0,0,2.129-.432l.192.592a5.074,5.074,0,0,1-2.417.5,3.521,3.521,0,0,1-3.586-3.857c0-2.561,1.473-4.162,3.457-4.162,2.514,0,2.993,2.369,2.993,3.475a2.02,2.02,0,0,1-.031.464Zm4.9-.608c.016-1.072-.433-2.689-2.289-2.689a2.744,2.744,0,0,0-2.577,2.689Z" transform="translate(-4.611 -2.335)" style="fill:#15129b"/><path d="M337.427,255.622c0-.77-.016-1.553-.063-2.306h.7l.032,1.553h.048a2.389,2.389,0,0,1,2.177-1.729,1.909,1.909,0,0,1,.32.033v.736a1.272,1.272,0,0,0-.368-.033c-1.057,0-1.809.913-2.017,2.146a3.54,3.54,0,0,0-.064.736V261h-.769Z" transform="translate(-4.611 -2.335)" style="fill:#15129b"/><path d="M344.052,250.851H340.53v-.641h7.811v.641h-3.521V261h-.768Z" transform="translate(-4.611 -2.335)" style="fill:#15129b"/><path d="M349.443,250.211h.768v5.458h.049c.319-.416.64-.783.928-1.12l3.826-4.338h.928l-4.1,4.578,4.482,6.21h-.913l-4.1-5.682-1.1,1.217V261h-.768Z" transform="translate(-4.611 -2.335)" style="fill:#15129b"/><circle cx="139.772" cy="159.611" r="20.234" style="fill:#020202;opacity:0.4"/><circle cx="84.716" cy="231.925" r="20.234" style="fill:#020202;opacity:0.4"/></svg>