<?xml version="1.0" encoding="UTF-8" standalone="no"?>
<svg
   xmlns:dc="http://purl.org/dc/elements/1.1/"
   xmlns:cc="http://creativecommons.org/ns#"
   xmlns:rdf="http://www.w3.org/1999/02/22-rdf-syntax-ns#"
   xmlns:svg="http://www.w3.org/2000/svg"
   xmlns="http://www.w3.org/2000/svg"
   xmlns:sodipodi="http://sodipodi.sourceforge.net/DTD/sodipodi-0.dtd"
   xmlns:inkscape="http://www.inkscape.org/namespaces/inkscape"
   version="1.1"
   width="21.902128"
   height="7.052"
   id="svg6435"
   inkscape:version="0.91 r13725"
   sodipodi:docname="UCLA.svg">
  <metadata
     id="metadata6443">
    <rdf:RDF>
      <cc:Work
         rdf:about="">
        <dc:format>image/svg+xml</dc:format>
        <dc:type
           rdf:resource="http://purl.org/dc/dcmitype/StillImage" />
        <dc:title></dc:title>
      </cc:Work>
    </rdf:RDF>
  </metadata>
  <defs
     id="defs6441" />
  <sodipodi:namedview
     pagecolor="#ffffff"
     bordercolor="#666666"
     borderopacity="1"
     objecttolerance="10"
     gridtolerance="10"
     guidetolerance="10"
     inkscape:pageopacity="0"
     inkscape:pageshadow="2"
     inkscape:window-width="1263"
     inkscape:window-height="723"
     id="namedview6439"
     showgrid="false"
     fit-margin-top="0"
     fit-margin-left="0"
     fit-margin-right="0"
     fit-margin-bottom="0"
     inkscape:zoom="13.478261"
     inkscape:cx="-1.5851618"
     inkscape:cy="3.673"
     inkscape:window-x="20"
     inkscape:window-y="42"
     inkscape:window-maximized="0"
     inkscape:current-layer="svg6435" />
  <path
     d="m 0.01712852,4.987 c -0.027,-0.23 -0.014,-0.565 -0.014,-0.733 l 0.351,-3.955 1.28999998,0 -0.351,3.99 c -0.075,0.866 0.263,1.479 1.127,1.479 0.877,0 1.343,-0.62 1.417,-1.388 l 0.372,-4.081 1.296,0 -0.358,4.026 c -0.148,1.555 -1.174,2.713 -2.835,2.713 -1.296,0 -2.13299998,-0.836 -2.29499998,-2.051 M 6.0311285,3.648 c 0.169,-1.897 1.452,-3.474 3.659,-3.474 0.5870005,0 1.1470005,0.133 1.7020005,0.496 l -0.149,1.569 c -0.506,-0.677 -1.114,-0.781 -1.6740005,-0.781 -1.377,0 -2.133,0.956 -2.241,2.163 -0.102,1.185 0.506,2.141 1.843,2.141 0.581,0 1.1950005,-0.168 1.8430005,-0.816 l -0.142,1.611 c -0.628,0.342 -1.2150005,0.495 -1.8020005,0.495 -2.195,0 -3.2,-1.626 -3.039,-3.404 m 6.4000005,-3.349 1.289,0 -0.473,5.371 c 0,0 1.796,0 1.85,0 0.135,0 0.574,-0.006 0.695,-0.006 -0.006,0.063 -0.121,1.234 -0.121,1.234 l -3.828,0 0.588,-6.599 m 7.061,-0.299 -0.094,0 -3.537,6.899 1.377,0 0.492,-1.047 2.498,0 0.311,1.047 1.363,0 -2.41,-6.899 m -0.33,2.762 c 0.041,-0.091 0.074,-0.209 0.094,-0.272 l 0.021,0 c 0.006,0.084 0.02,0.182 0.047,0.279 0.067,0.3 0.574,1.968 0.574,1.968 l -1.635,0 c 0,0 0.878,-1.926 0.899,-1.975 z"
     id="path6437"
     inkscape:connector-curvature="0"
     style="fill:#3284bf" />
</svg>
