<?xml version="1.0" encoding="utf-8"?>
<!-- Generator: Adobe Illustrator 16.0.0, SVG Export Plug-In . SVG Version: 6.00 Build 0)  -->
<!DOCTYPE svg PUBLIC "-//W3C//DTD SVG 1.1//EN" "http://www.w3.org/Graphics/SVG/1.1/DTD/svg11.dtd">
<svg version="1.1" id="Layer_1" xmlns="http://www.w3.org/2000/svg" xmlns:xlink="http://www.w3.org/1999/xlink" x="0px" y="0px"
	 width="273.3335px" height="83.5px" viewBox="0 0 273.3335 83.5" enable-background="new 0 0 273.3335 83.5" xml:space="preserve">
<path fill="none" stroke="#231F20" stroke-width="0.25" d="M178.0288,75.3984c0,3.7393-3.0312,6.7715-6.7705,6.7715h-70.3691
	c-3.7383,0-6.7715-3.0322-6.7715-6.7715V31.5283c0-3.7397,3.0332-6.772,6.7715-6.772h70.3691c3.7393,0,6.7705,3.0322,6.7705,6.772
	V75.3984z"/>
<path fill="none" stroke="#231F20" stroke-width="0.25" d="M178.0288,75.3984c0,3.7393-3.0312,6.7715-6.7705,6.7715h-70.3691
	c-3.7383,0-6.7715-3.0322-6.7715-6.7715V31.5283c0-3.7397,3.0332-6.772,6.7715-6.772h70.3691c3.7393,0,6.7705,3.0322,6.7705,6.772
	V75.3984z"/>
<path fill="none" stroke="#231F20" stroke-width="0.25" d="M271.8589,75.2686c0,3.7402-3.0312,6.7715-6.7705,6.7715h-71.3691
	c-3.7393,0-6.7705-3.0312-6.7705-6.7715V31.3989c0-3.7402,3.0312-6.7715,6.7705-6.7715h71.3691
	c3.7393,0,6.7705,3.0312,6.7705,6.7715V75.2686z"/>
<path fill="none" stroke="#231F20" stroke-width="0.25" d="M85.6919,75.2744c0,3.7393-3.0312,6.771-6.7705,6.771H8.1992
	c-3.7397,0-6.771-3.0317-6.771-6.771V31.4043c0-3.7397,3.0312-6.772,6.771-6.772h70.7222c3.7393,0,6.7705,3.0322,6.7705,6.772
	V75.2744z"/>
<path fill="none" stroke="#BCBEC0" stroke-width="0.5" d="M84.1558,13.9619c0,3.5161-2.8506,6.3652-6.3643,6.3652
	c-3.5176,0-6.3662-2.8491-6.3662-6.3652"/>
<line fill="none" stroke="#BCBEC0" stroke-width="1.499" x1="77.7915" y1="20.3721" x2="77.7915" y2="27.2261"/>
<path fill="none" stroke="#BCBEC0" stroke-width="0.625" d="M30.9995,10.9951v8.3989c6.729,0,12.1807-3.7598,12.1807-8.3989"/>
<line fill="none" stroke="#B87844" stroke-width="1.874" x1="10.4189" y1="18.4795" x2="10.4189" y2="27.0464"/>
<polyline fill="none" stroke="#B87844" stroke-width="0.625" points="16.4307,10.7266 16.4497,18.7397 3.9067,18.7666 
	3.8877,10.7544 "/>
<line fill="#9F1E22" x1="28.3208" y1="19.4502" x2="28.3208" y2="28.0171"/>
<line fill="none" stroke="#BCBEC0" stroke-width="1.874" x1="28.3208" y1="19.4502" x2="28.3208" y2="28.0171"/>
<path fill="#BCBEC0" d="M29.1772,11.5v8.0093c-6.1851,0-11.1968-3.5864-11.1968-8.0093"/>
<path fill="none" stroke="#BCBEC0" stroke-width="0.625" d="M29.1772,11.5v8.0093c-6.1851,0-11.1968-3.5864-11.1968-8.0093"/>
<line fill="none" stroke="#BCBEC0" stroke-width="1.874" x1="31.855" y1="19.3359" x2="31.855" y2="27.9028"/>
<line fill="none" stroke="#D1D3D4" stroke-width="1.874" x1="34.4946" y1="28.3008" x2="49.9946" y2="28.3008"/>
<path fill="#D1D3D4" d="M52.8218,28.3008c-1.3301,0.4932-2.9814,1.3359-4.0039,2.228l0.8057-2.228l-0.8057-2.228
	C49.8403,26.9648,51.4917,27.8076,52.8218,28.3008"/>
<line fill="none" stroke="#231F20" stroke-width="1.874" x1="52.6021" y1="43.3721" x2="54.9136" y2="52.1719"/>
<path fill="#231F20" d="M55.6323,54.9062c-0.8154-1.1611-2.0488-2.5439-3.1719-3.3071l2.3604,0.2144l1.9482-1.3452
	C56.1675,51.6831,55.771,53.4941,55.6323,54.9062"/>
<line fill="none" stroke="#D1D3D4" stroke-width="1.874" x1="76.8481" y1="30.3008" x2="71.2437" y2="30.3008"/>
<path fill="#D1D3D4" d="M68.4175,30.3008c1.3301-0.4941,2.9805-1.3359,4.0039-2.228l-0.8057,2.228l0.8057,2.228
	C71.3979,31.6367,69.7476,30.7939,68.4175,30.3008"/>
<line fill="none" stroke="#D1D3D4" stroke-width="1.874" x1="77.7915" y1="33.8301" x2="69.7446" y2="56.1719"/>
<path fill="#D1D3D4" d="M68.7866,58.832c-0.0137-1.4189-0.2471-3.2578-0.7393-4.521l1.8232,1.5122l2.3691-0.0044
	C71.0532,56.479,69.7017,57.7471,68.7866,58.832"/>
<line fill="none" stroke="#231F20" stroke-width="1.874" x1="13.2515" y1="31.7617" x2="52.7583" y2="31.7617"/>
<path fill="#231F20" d="M55.5854,31.7617c-1.3301,0.4932-2.9814,1.3359-4.0039,2.228l0.8057-2.228l-0.8057-2.228
	C52.604,30.4258,54.2554,31.2686,55.5854,31.7617"/>
<line fill="none" stroke="#231F20" stroke-width="1.874" x1="44.6597" y1="42.5889" x2="35.4116" y2="52.6318"/>
<path fill="#231F20" d="M33.4966,54.7119c0.5381-1.312,1.0371-3.0981,1.0737-4.4541l1.0933,2.1011l2.1841,0.916
	C36.4985,53.4238,34.7607,54.0669,33.4966,54.7119"/>
<line fill="none" stroke="#231F20" stroke-width="1.874" x1="8.1685" y1="32.6377" x2="8.1685" y2="53.0796"/>
<path fill="#231F20" d="M8.1685,55.9072c-0.4941-1.3301-1.3359-2.98-2.228-4.0039l2.228,0.8062l2.228-0.8062
	C9.5044,52.9272,8.6616,54.5771,8.1685,55.9072"/>
<line fill="none" stroke="#231F20" stroke-width="1.874" x1="60.1646" y1="33.9854" x2="60.2446" y2="49.8306"/>
<path fill="#231F20" d="M60.2593,52.6572c-0.5-1.3281-1.3516-2.9741-2.248-3.9922l2.2314,0.7944l2.2246-0.8174
	C61.5796,49.6704,60.7456,51.3242,60.2593,52.6572"/>
<line fill="none" stroke="#D1D3D4" stroke-width="1.874" x1="27.3208" y1="29.9473" x2="13.252" y2="53.0801"/>
<path fill="#D1D3D4" d="M11.7822,55.4961c0.27-1.395,0.4082-3.2412,0.1782-4.5791l1.4839,1.8462l2.3218,0.4688
	C14.4722,53.6421,12.895,54.6152,11.7822,55.4961"/>
<line fill="none" stroke="#D1D3D4" stroke-width="1.874" x1="31.855" y1="33.9854" x2="41.353" y2="37.8882"/>
<path fill="#D1D3D4" d="M43.9673,38.9629c-1.418-0.0488-3.2646,0.103-4.5493,0.5391l1.5913-1.7539l0.1016-2.3672
	C41.7173,36.5947,42.9243,38.001,43.9673,38.9629"/>
<path fill="#231F20" d="M66.4546,31.0723c0,1.1382-0.7705,2.061-1.7197,2.061h-6.3994c-0.9502,0-1.7197-0.9229-1.7197-2.061
	c0-1.1392,0.7695-2.062,1.7197-2.062h6.3994C65.6841,29.0103,66.4546,29.9331,66.4546,31.0723"/>
<path fill="#231F20" d="M54.9136,40.0527c0,1.1382-0.7705,2.061-1.7197,2.061h-6.3984c-0.9502,0-1.7207-0.9229-1.7207-2.061
	c0-1.1392,0.7705-2.062,1.7207-2.062h6.3984C54.1431,37.9907,54.9136,38.9136,54.9136,40.0527"/>
<path fill="#231F20" d="M15.1704,59.4131c0,1.1382-0.771,2.061-1.7202,2.061H7.0513c-0.9497,0-1.7197-0.9229-1.7197-2.061
	c0-1.1392,0.77-2.063,1.7197-2.063h6.3989C14.3994,57.3501,15.1704,58.2739,15.1704,59.4131"/>
<path fill="none" stroke="#BCBEC0" stroke-width="0.5" d="M176.4927,14.0859c0,3.5171-2.8506,6.3652-6.3643,6.3652
	c-3.5176,0-6.3662-2.8481-6.3662-6.3652"/>
<line fill="none" stroke="#BCBEC0" stroke-width="1.499" x1="170.1284" y1="20.4961" x2="170.1284" y2="27.3501"/>
<path fill="none" stroke="#BE202E" stroke-width="0.625" d="M123.6899,11.1191v8.3989c6.7285,0,12.1807-3.7588,12.1807-8.3989"/>
<line fill="none" stroke="#BCBEC0" stroke-width="1.874" x1="103.1099" y1="18.6035" x2="103.1099" y2="27.1704"/>
<polyline fill="none" stroke="#BCBEC0" stroke-width="0.625" points="109.1216,10.8506 109.1401,18.8647 96.5972,18.8906 
	96.5786,10.8774 "/>
<line fill="#9F1E22" x1="121.0112" y1="19.5742" x2="121.0112" y2="28.1411"/>
<line fill="none" stroke="#9F1E22" stroke-width="1.874" x1="121.0112" y1="19.5742" x2="121.0112" y2="28.1411"/>
<path fill="#9F1E22" d="M121.8677,11.624v8.0088c-6.1855,0-11.1973-3.5859-11.1973-8.0088"/>
<path fill="none" stroke="#9F1E22" stroke-width="0.625" d="M121.8677,11.624v8.0088c-6.1855,0-11.1973-3.5859-11.1973-8.0088"/>
<line fill="none" stroke="#BE202E" stroke-width="1.874" x1="124.5454" y1="19.46" x2="124.5454" y2="28.0259"/>
<path fill="none" stroke="#91298D" stroke-width="0.5" d="M270.3237,13.9565c0,3.5166-2.8516,6.3652-6.3652,6.3652
	c-3.5176,0-6.3672-2.8486-6.3672-6.3652"/>
<line fill="none" stroke="#91298D" stroke-width="1.499" x1="263.9585" y1="20.3667" x2="263.9585" y2="27.2202"/>
<path fill="none" stroke="#BCBEC0" stroke-width="0.625" d="M216.52,10.9897v8.3994c6.7285,0,12.1807-3.7598,12.1807-8.3994"/>
<line fill="none" stroke="#BCBEC0" stroke-width="1.874" x1="195.939" y1="18.4741" x2="195.939" y2="27.0415"/>
<polyline fill="none" stroke="#BCBEC0" stroke-width="0.625" points="201.9507,10.7212 201.9712,18.7349 189.4282,18.7612 
	189.4077,10.7485 "/>
<line fill="#9F1E22" x1="213.8413" y1="19.4448" x2="213.8413" y2="28.0122"/>
<line fill="none" stroke="#BCBEC0" stroke-width="1.874" x1="213.8413" y1="19.4448" x2="213.8413" y2="28.0122"/>
<path fill="#BCBEC0" d="M214.6978,11.4946v8.0088c-6.1855,0-11.1973-3.5859-11.1973-8.0088"/>
<path fill="none" stroke="#BCBEC0" stroke-width="0.625" d="M214.6978,11.4946v8.0088c-6.1855,0-11.1973-3.5859-11.1973-8.0088"/>
<line fill="none" stroke="#BCBEC0" stroke-width="1.874" x1="217.3755" y1="19.3306" x2="217.3755" y2="27.897"/>
<g>
	<path fill="#231F20" d="M24.8335,4.1235c0,1.855-1.1274,2.8384-2.5029,2.8384c-1.4233,0-2.4229-1.1035-2.4229-2.7344
		c0-1.7109,1.0635-2.8306,2.5029-2.8306C23.8818,1.397,24.8335,2.5244,24.8335,4.1235z M20.6514,4.2114
		c0,1.1514,0.624,2.1831,1.7192,2.1831c1.1035,0,1.7271-1.0156,1.7271-2.2393c0-1.0713-0.5596-2.1904-1.7192-2.1904
		C21.2271,1.9648,20.6514,3.0283,20.6514,4.2114z"/>
</g>
<g>
	<path fill="#231F20" d="M25.7158,4.2114c0-0.4556-0.0078-0.8477-0.0317-1.2075h0.6157l0.0239,0.7598h0.0317
		c0.1763-0.5195,0.6001-0.8477,1.0718-0.8477c0.0796,0,0.1357,0.0083,0.1997,0.0244V3.604
		c-0.0718-0.0161-0.144-0.0239-0.2397-0.0239c-0.4961,0-0.8477,0.3755-0.9434,0.9033c-0.0161,0.0957-0.0322,0.208-0.0322,0.3276
		v2.063h-0.6958V4.2114z"/>
</g>
<g>
	<path fill="#231F20" d="M29.1475,1.917c0.0083,0.2397-0.168,0.4316-0.4478,0.4316c-0.248,0-0.4238-0.1919-0.4238-0.4316
		c0-0.248,0.1841-0.4399,0.4399-0.4399C28.9795,1.4771,29.1475,1.6689,29.1475,1.917z M28.3638,6.874V3.0039h0.7036V6.874H28.3638z"
		/>
</g>
<g>
	<path fill="#231F20" d="M33.5698,3.0039c-0.0161,0.2803-0.0322,0.5918-0.0322,1.0635v2.2471c0,0.8872-0.1758,1.4312-0.5518,1.7671
		c-0.3755,0.3516-0.9194,0.4634-1.4072,0.4634c-0.4634,0-0.9751-0.1118-1.2871-0.3198l0.1758-0.5356
		c0.2559,0.1602,0.6558,0.3037,1.1357,0.3037c0.7192,0,1.2471-0.3755,1.2471-1.3511V6.2104H32.834
		c-0.2158,0.3599-0.6313,0.6475-1.231,0.6475c-0.96,0-1.6475-0.8154-1.6475-1.8867c0-1.3115,0.8555-2.0552,1.7432-2.0552
		c0.6719,0,1.0396,0.3521,1.2075,0.6719h0.0156l0.0322-0.584H33.5698z M32.8423,4.5312c0-0.1201-0.0083-0.2236-0.04-0.3198
		c-0.1279-0.4077-0.4717-0.7437-0.9834-0.7437c-0.6719,0-1.1514,0.5679-1.1514,1.4634c0,0.7593,0.3838,1.3911,1.1431,1.3911
		c0.4321,0,0.8237-0.272,0.9756-0.7197c0.04-0.1196,0.0562-0.2559,0.0562-0.3755V4.5312z"/>
</g>
<g>
	<path fill="#231F20" d="M35.4512,1.917c0.0083,0.2397-0.168,0.4316-0.4478,0.4316c-0.248,0-0.4238-0.1919-0.4238-0.4316
		c0-0.248,0.1841-0.4399,0.4399-0.4399C35.2832,1.4771,35.4512,1.6689,35.4512,1.917z M34.6675,6.874V3.0039h0.7036V6.874H34.6675z"
		/>
	<path fill="#231F20" d="M36.5396,4.0518c0-0.3999-0.0078-0.7275-0.0317-1.0479h0.6235l0.04,0.6396h0.0161
		c0.1919-0.3677,0.6396-0.7275,1.2793-0.7275c0.5356,0,1.3667,0.3198,1.3667,1.6475V6.874h-0.7031v-2.231
		c0-0.6235-0.2319-1.1431-0.8955-1.1431c-0.4639,0-0.8237,0.3276-0.9434,0.7197c-0.0322,0.0879-0.0483,0.2075-0.0483,0.3276V6.874
		h-0.7036V4.0518z"/>
	<path fill="#231F20" d="M43.1226,6.874l-0.0557-0.4878h-0.0244c-0.2158,0.3037-0.6318,0.5757-1.1836,0.5757
		c-0.7832,0-1.1826-0.5518-1.1826-1.1113c0-0.9355,0.8311-1.4473,2.3262-1.4395V4.3315c0-0.3198-0.0879-0.8955-0.8789-0.8955
		c-0.3604,0-0.7363,0.1118-1.0078,0.2876l-0.1602-0.4639c0.3203-0.2075,0.7832-0.3438,1.2715-0.3438
		c1.1836,0,1.4707,0.8076,1.4707,1.5835v1.4468c0,0.3359,0.0166,0.6641,0.0645,0.9277H43.1226z M43.0181,4.8989
		c-0.7676-0.0156-1.6387,0.1201-1.6387,0.8716c0,0.4561,0.3037,0.6719,0.6641,0.6719c0.5029,0,0.8232-0.3198,0.9355-0.6479
		c0.0234-0.0718,0.0391-0.1519,0.0391-0.2236V4.8989z"/>
	<path fill="#231F20" d="M44.8354,1.1973h0.7031V6.874h-0.7031V1.1973z"/>
</g>
<g>
</g>
<g>
	<path fill="#231F20" d="M49.147,2.0767h-1.6387V1.4849h3.9893v0.5918h-1.6465V6.874H49.147V2.0767z"/>
</g>
<g>
	<path fill="#231F20" d="M54.9546,5.8184c0,0.3999,0.0078,0.752,0.0312,1.0557h-0.623l-0.04-0.6318h-0.0166
		c-0.1836,0.312-0.5908,0.7197-1.2793,0.7197c-0.6074,0-1.335-0.3359-1.335-1.6948V3.0039h0.7041V5.147
		c0,0.7358,0.2236,1.2314,0.8633,1.2314c0.4717,0,0.7998-0.3281,0.9277-0.6396c0.04-0.104,0.0635-0.2319,0.0635-0.3599v-2.375
		h0.7041V5.8184z"/>
	<path fill="#231F20" d="M56.1245,4.0518c0-0.3999-0.0088-0.7275-0.0322-1.0479h0.6152l0.0322,0.624h0.0244
		C56.98,3.2598,57.3394,2.916,57.979,2.916c0.5283,0,0.9277,0.3198,1.0957,0.7759h0.0156c0.1201-0.2158,0.2725-0.3838,0.4316-0.5039
		c0.2324-0.1758,0.4883-0.272,0.8555-0.272c0.5117,0,1.2715,0.3359,1.2715,1.6792V6.874h-0.6875V4.6831
		c0-0.7437-0.2715-1.1914-0.8398-1.1914c-0.3994,0-0.7109,0.2959-0.8311,0.6396c-0.0322,0.0962-0.0557,0.2241-0.0557,0.3521V6.874
		h-0.6875V4.5552c0-0.6157-0.2725-1.0635-0.8076-1.0635c-0.4404,0-0.7598,0.3521-0.8721,0.7036
		c-0.04,0.104-0.0557,0.2241-0.0557,0.3438v2.335h-0.6875V4.0518z"/>
	<path fill="#231F20" d="M66.2983,4.9072c0,1.4312-0.9912,2.0547-1.9268,2.0547c-1.0479,0-1.8555-0.7676-1.8555-1.9907
		c0-1.2954,0.8477-2.0552,1.9189-2.0552C65.5464,2.916,66.2983,3.7236,66.2983,4.9072z M63.228,4.9473
		c0,0.8472,0.4873,1.4868,1.1748,1.4868c0.6719,0,1.1758-0.6313,1.1758-1.5029c0-0.6558-0.3281-1.4873-1.1592-1.4873
		C63.5874,3.4438,63.228,4.2114,63.228,4.9473z"/>
	<path fill="#231F20" d="M67.188,4.2114c0-0.4556-0.0078-0.8477-0.0322-1.2075h0.6152l0.0244,0.7598h0.0322
		c0.1758-0.5195,0.5996-0.8477,1.0713-0.8477c0.0801,0,0.1357,0.0083,0.1992,0.0244V3.604
		c-0.0713-0.0161-0.1436-0.0239-0.2393-0.0239c-0.4961,0-0.8477,0.3755-0.9434,0.9033c-0.0166,0.0957-0.0322,0.208-0.0322,0.3276
		v2.063H67.188V4.2114z"/>
</g>
<g>
	<path fill="#231F20" d="M97.3149,6.6982c-0.2559,0.1279-0.7676,0.2559-1.4238,0.2559c-1.5195,0-2.6621-0.9595-2.6621-2.7266
		c0-1.687,1.1426-2.8306,2.8145-2.8306c0.6719,0,1.0957,0.144,1.2793,0.2397l-0.168,0.5679
		c-0.2637-0.1279-0.6396-0.2241-1.0879-0.2241c-1.2637,0-2.1025,0.8076-2.1025,2.2231c0,1.3193,0.7598,2.1665,2.0713,2.1665
		c0.4238,0,0.8555-0.0879,1.1348-0.2236L97.3149,6.6982z"/>
</g>
<g>
	<path fill="#231F20" d="M101.5864,4.9072c0,1.4312-0.9912,2.0547-1.9268,2.0547c-1.0479,0-1.8545-0.7676-1.8545-1.9907
		c0-1.2954,0.8477-2.0552,1.918-2.0552C100.8345,2.916,101.5864,3.7236,101.5864,4.9072z M98.5161,4.9473
		c0,0.8472,0.4883,1.4868,1.1758,1.4868c0.6719,0,1.1758-0.6313,1.1758-1.5029c0-0.6558-0.3281-1.4873-1.1602-1.4873
		C98.8765,3.4438,98.5161,4.2114,98.5161,4.9473z"/>
	<path fill="#231F20" d="M102.4771,4.0518c0-0.3999-0.0078-0.7275-0.0322-1.0479h0.6162l0.0312,0.624h0.0234
		c0.2168-0.3682,0.5762-0.7119,1.2158-0.7119c0.5283,0,0.9277,0.3198,1.0957,0.7759h0.0156
		c0.1201-0.2158,0.2725-0.3838,0.4326-0.5039c0.2314-0.1758,0.4873-0.272,0.8555-0.272c0.5117,0,1.2705,0.3359,1.2705,1.6792V6.874
		h-0.6875V4.6831c0-0.7437-0.2715-1.1914-0.8389-1.1914c-0.4004,0-0.7119,0.2959-0.832,0.6396
		c-0.0322,0.0962-0.0566,0.2241-0.0566,0.3521V6.874h-0.6875V4.5552c0-0.6157-0.2715-1.0635-0.8066-1.0635
		c-0.4404,0-0.7598,0.3521-0.8721,0.7036c-0.04,0.104-0.0557,0.2241-0.0557,0.3438v2.335h-0.6875V4.0518z"/>
	<path fill="#231F20" d="M109.1489,4.2676c0-0.4961-0.0156-0.8955-0.0322-1.2637h0.6318l0.0312,0.6641h0.0166
		c0.2881-0.4717,0.7432-0.752,1.375-0.752c0.9355,0,1.6396,0.792,1.6396,1.9673c0,1.3911-0.8477,2.0786-1.7598,2.0786
		c-0.5117,0-0.959-0.2236-1.1914-0.6074h-0.0156V8.457h-0.6953V4.2676z M109.8442,5.2988c0,0.104,0.0156,0.2002,0.0322,0.2881
		c0.1279,0.4873,0.5518,0.8232,1.0557,0.8232c0.7432,0,1.1748-0.6074,1.1748-1.4951c0-0.7754-0.4072-1.439-1.1514-1.439
		c-0.4795,0-0.9277,0.3438-1.0635,0.8716c-0.0244,0.0879-0.0479,0.1914-0.0479,0.2876V5.2988z"/>
	<path fill="#231F20" d="M114.0923,5.0669c0.0156,0.9517,0.623,1.3433,1.3271,1.3433c0.5039,0,0.8076-0.0879,1.0713-0.1997
		l0.1201,0.5034c-0.248,0.1123-0.6719,0.2402-1.2871,0.2402c-1.1914,0-1.9033-0.7837-1.9033-1.9512
		c0-1.167,0.6875-2.0869,1.8145-2.0869c1.2637,0,1.5996,1.1113,1.5996,1.8232c0,0.144-0.0156,0.2559-0.0234,0.3276H114.0923z
		 M116.1548,4.5635c0.0078-0.4478-0.1836-1.1436-0.9746-1.1436c-0.7129,0-1.0234,0.6558-1.0801,1.1436H116.1548z"/>
	<path fill="#231F20" d="M117.7075,4.0518c0-0.3999-0.0078-0.7275-0.0312-1.0479h0.623l0.041,0.6396h0.0156
		c0.1914-0.3677,0.6396-0.7275,1.2793-0.7275c0.5352,0,1.3672,0.3198,1.3672,1.6475V6.874h-0.7031v-2.231
		c0-0.6235-0.2324-1.1431-0.8965-1.1431c-0.4629,0-0.8232,0.3276-0.9434,0.7197c-0.0312,0.0879-0.0479,0.2075-0.0479,0.3276V6.874
		h-0.7041V4.0518z"/>
	<path fill="#231F20" d="M122.0532,6.1543c0.207,0.1362,0.5752,0.2798,0.9268,0.2798c0.5117,0,0.752-0.2559,0.752-0.5757
		c0-0.3354-0.2002-0.5195-0.7197-0.7114c-0.6953-0.248-1.0234-0.6318-1.0234-1.0952c0-0.624,0.5039-1.1357,1.335-1.1357
		c0.3916,0,0.7354,0.1123,0.9521,0.2402l-0.1758,0.5117c-0.1523-0.0962-0.4316-0.2241-0.792-0.2241
		c-0.416,0-0.6475,0.2397-0.6475,0.5278c0,0.3198,0.2314,0.4639,0.7354,0.6558c0.6709,0.2559,1.0156,0.5913,1.0156,1.167
		c0,0.6797-0.5283,1.1597-1.4473,1.1597c-0.4238,0-0.8154-0.104-1.0869-0.2642L122.0532,6.1543z"/>
</g>
<g>
	<path fill="#231F20" d="M127.4595,6.874l-0.0566-0.4878h-0.0234c-0.2158,0.3037-0.6318,0.5757-1.1836,0.5757
		c-0.7832,0-1.1836-0.5518-1.1836-1.1113c0-0.9355,0.832-1.4473,2.3271-1.4395V4.3315c0-0.3198-0.0879-0.8955-0.8799-0.8955
		c-0.3594,0-0.7354,0.1118-1.0068,0.2876l-0.1602-0.4639c0.3193-0.2075,0.7842-0.3438,1.2715-0.3438
		c1.1826,0,1.4717,0.8076,1.4717,1.5835v1.4468c0,0.3359,0.0156,0.6641,0.0635,0.9277H127.4595z M127.356,4.8989
		c-0.7676-0.0156-1.6396,0.1201-1.6396,0.8716c0,0.4561,0.3037,0.6719,0.6631,0.6719c0.5039,0,0.8242-0.3198,0.9355-0.6479
		c0.0244-0.0718,0.041-0.1519,0.041-0.2236V4.8989z"/>
</g>
<g>
	<path fill="#231F20" d="M129.9966,1.8926v1.1113h1.0068V3.54h-1.0068V5.627c0,0.4795,0.1357,0.7515,0.5273,0.7515
		c0.1836,0,0.3203-0.0239,0.4082-0.0483l0.0312,0.5278c-0.1357,0.0562-0.3516,0.0962-0.623,0.0962
		c-0.3281,0-0.5918-0.104-0.7598-0.2959c-0.2002-0.208-0.2715-0.5518-0.2715-1.0073V3.54h-0.5996V3.0039h0.5996V2.0767
		L129.9966,1.8926z"/>
</g>
<g>
	<path fill="#231F20" d="M135.2505,4.9072c0,1.4312-0.9912,2.0547-1.9268,2.0547c-1.0469,0-1.8545-0.7676-1.8545-1.9907
		c0-1.2954,0.8467-2.0552,1.9189-2.0552C134.4995,2.916,135.2505,3.7236,135.2505,4.9072z M132.1802,4.9473
		c0,0.8472,0.4883,1.4868,1.1758,1.4868c0.6719,0,1.1748-0.6313,1.1748-1.5029c0-0.6558-0.3271-1.4873-1.1592-1.4873
		C132.5405,3.4438,132.1802,4.2114,132.1802,4.9473z"/>
</g>
<g>
	<path fill="#231F20" d="M136.1411,4.2114c0-0.4556-0.0088-0.8477-0.0322-1.2075h0.6152l0.0244,0.7598h0.0322
		c0.1758-0.5195,0.5996-0.8477,1.0713-0.8477c0.0801,0,0.1357,0.0083,0.2002,0.0244V3.604
		c-0.0723-0.0161-0.1445-0.0239-0.2402-0.0239c-0.4961,0-0.8477,0.3755-0.9434,0.9033c-0.0166,0.0957-0.0322,0.208-0.0322,0.3276
		v2.063h-0.6953V4.2114z"/>
</g>
<g>
	<path fill="#231F20" d="M139.2046,3.0039l0.8477,2.2871c0.0879,0.2559,0.1836,0.5596,0.2471,0.7915h0.0166
		c0.0713-0.2319,0.1514-0.5278,0.248-0.8076l0.7676-2.271h0.7432l-1.0557,2.7588c-0.5039,1.3271-0.8477,2.0068-1.3271,2.4229
		c-0.3438,0.3037-0.6875,0.4233-0.8633,0.4556l-0.1758-0.5918c0.1758-0.0562,0.4072-0.168,0.6152-0.3438
		c0.1924-0.1519,0.4316-0.4238,0.5918-0.7837c0.0322-0.0718,0.0557-0.1279,0.0557-0.168s-0.0156-0.0957-0.0479-0.1836
		l-1.4307-3.5664H139.2046z"/>
</g>
<g>
	<path fill="#231F20" d="M144.437,1.5571c0.3516-0.0723,0.8555-0.1123,1.3359-0.1123c0.7432,0,1.2227,0.1362,1.5586,0.4399
		c0.2715,0.2397,0.4238,0.6074,0.4238,1.0234c0,0.7114-0.4473,1.1836-1.0156,1.375v0.0244c0.416,0.1436,0.6641,0.5273,0.792,1.0874
		c0.1758,0.7515,0.3037,1.271,0.416,1.479h-0.7197c-0.0879-0.1519-0.208-0.6157-0.3604-1.2871
		c-0.1592-0.7437-0.4473-1.0234-1.0791-1.0479h-0.6553v2.335h-0.6963V1.5571z M145.1333,4.0117h0.7109
		c0.7441,0,1.2158-0.4077,1.2158-1.0234c0-0.6958-0.5039-0.9995-1.2393-1.0078c-0.3359,0-0.5762,0.0322-0.6875,0.0645V4.0117z"/>
</g>
<g>
	<path fill="#231F20" d="M149.1323,5.0669c0.0156,0.9517,0.623,1.3433,1.3271,1.3433c0.5039,0,0.8076-0.0879,1.0713-0.1997
		l0.1201,0.5034c-0.248,0.1123-0.6719,0.2402-1.2871,0.2402c-1.1914,0-1.9033-0.7837-1.9033-1.9512
		c0-1.167,0.6875-2.0869,1.8154-2.0869c1.2627,0,1.5986,1.1113,1.5986,1.8232c0,0.144-0.0156,0.2559-0.0234,0.3276H149.1323z
		 M151.1948,4.5635c0.0078-0.4478-0.1836-1.1436-0.9756-1.1436c-0.7109,0-1.0234,0.6558-1.0791,1.1436H151.1948z"/>
	<path fill="#231F20" d="M152.6519,6.1543c0.208,0.1362,0.5762,0.2798,0.9277,0.2798c0.5117,0,0.752-0.2559,0.752-0.5757
		c0-0.3354-0.2002-0.5195-0.7197-0.7114c-0.6953-0.248-1.0234-0.6318-1.0234-1.0952c0-0.624,0.5039-1.1357,1.335-1.1357
		c0.3916,0,0.7363,0.1123,0.9521,0.2402l-0.1768,0.5117c-0.1514-0.0962-0.4316-0.2241-0.791-0.2241
		c-0.416,0-0.6475,0.2397-0.6475,0.5278c0,0.3198,0.2314,0.4639,0.7354,0.6558c0.6719,0.2559,1.0156,0.5913,1.0156,1.167
		c0,0.6797-0.5283,1.1597-1.4473,1.1597c-0.4238,0-0.8154-0.104-1.0879-0.2642L152.6519,6.1543z"/>
	<path fill="#231F20" d="M156.6997,1.917c0.0078,0.2397-0.168,0.4316-0.4473,0.4316c-0.248,0-0.4238-0.1919-0.4238-0.4316
		c0-0.248,0.1836-0.4399,0.4395-0.4399C156.5317,1.4771,156.6997,1.6689,156.6997,1.917z M155.9165,6.874V3.0039h0.7031V6.874
		H155.9165z"/>
	<path fill="#231F20" d="M157.6919,6.1543c0.208,0.1362,0.5762,0.2798,0.9277,0.2798c0.5117,0,0.752-0.2559,0.752-0.5757
		c0-0.3354-0.2002-0.5195-0.7197-0.7114c-0.6953-0.248-1.0234-0.6318-1.0234-1.0952c0-0.624,0.5039-1.1357,1.335-1.1357
		c0.3916,0,0.7354,0.1123,0.9521,0.2402l-0.1768,0.5117c-0.1514-0.0962-0.4316-0.2241-0.791-0.2241
		c-0.416,0-0.6475,0.2397-0.6475,0.5278c0,0.3198,0.2314,0.4639,0.7354,0.6558c0.6719,0.2559,1.0156,0.5913,1.0156,1.167
		c0,0.6797-0.5283,1.1597-1.4473,1.1597c-0.4238,0-0.8154-0.104-1.0879-0.2642L157.6919,6.1543z"/>
	<path fill="#231F20" d="M161.8042,1.8926v1.1113h1.0068V3.54h-1.0068V5.627c0,0.4795,0.1357,0.7515,0.5273,0.7515
		c0.1836,0,0.3193-0.0239,0.4082-0.0483l0.0312,0.5278c-0.1357,0.0562-0.3516,0.0962-0.623,0.0962
		c-0.3281,0-0.5918-0.104-0.7598-0.2959c-0.2002-0.208-0.2725-0.5518-0.2725-1.0073V3.54h-0.5996V3.0039h0.5996V2.0767
		L161.8042,1.8926z"/>
	<path fill="#231F20" d="M165.7476,6.874l-0.0557-0.4878h-0.0244c-0.2158,0.3037-0.6318,0.5757-1.1836,0.5757
		c-0.7832,0-1.1826-0.5518-1.1826-1.1113c0-0.9355,0.8311-1.4473,2.3262-1.4395V4.3315c0-0.3198-0.0879-0.8955-0.8799-0.8955
		c-0.3594,0-0.7354,0.1118-1.0068,0.2876l-0.1602-0.4639c0.3203-0.2075,0.7842-0.3438,1.2715-0.3438
		c1.1836,0,1.4707,0.8076,1.4707,1.5835v1.4468c0,0.3359,0.0166,0.6641,0.0645,0.9277H165.7476z M165.644,4.8989
		c-0.7676-0.0156-1.6396,0.1201-1.6396,0.8716c0,0.4561,0.3037,0.6719,0.6641,0.6719c0.5029,0,0.8232-0.3198,0.9355-0.6479
		c0.0234-0.0718,0.04-0.1519,0.04-0.2236V4.8989z"/>
	<path fill="#231F20" d="M167.4604,4.0518c0-0.3999-0.0078-0.7275-0.0322-1.0479h0.624l0.0391,0.6396h0.0166
		c0.1914-0.3677,0.6396-0.7275,1.2793-0.7275c0.5352,0,1.3672,0.3198,1.3672,1.6475V6.874h-0.7041v-2.231
		c0-0.6235-0.2314-1.1431-0.8955-1.1431c-0.4629,0-0.8232,0.3276-0.9434,0.7197c-0.0312,0.0879-0.0479,0.2075-0.0479,0.3276V6.874
		h-0.7031V4.0518z"/>
</g>
<g>
	<path fill="#231F20" d="M174.6587,6.73c-0.1836,0.0962-0.5908,0.2241-1.1113,0.2241c-1.167,0-1.9268-0.7915-1.9268-1.9751
		c0-1.1914,0.8154-2.0547,2.0791-2.0547c0.416,0,0.7832,0.104,0.9756,0.1997l-0.1602,0.5439
		c-0.168-0.0962-0.4316-0.1841-0.8154-0.1841c-0.8877,0-1.3672,0.6558-1.3672,1.4634c0,0.8955,0.5752,1.4473,1.3428,1.4473
		c0.4004,0,0.6641-0.104,0.8643-0.1924L174.6587,6.73z"/>
</g>
<g>
	<path fill="#231F20" d="M175.8364,5.0669c0.0156,0.9517,0.624,1.3433,1.3271,1.3433c0.5039,0,0.8076-0.0879,1.0713-0.1997
		l0.1201,0.5034c-0.248,0.1123-0.6719,0.2402-1.2871,0.2402c-1.1914,0-1.9033-0.7837-1.9033-1.9512
		c0-1.167,0.6875-2.0869,1.8154-2.0869c1.2627,0,1.5986,1.1113,1.5986,1.8232c0,0.144-0.0156,0.2559-0.0234,0.3276H175.8364z
		 M177.8989,4.5635c0.0078-0.4478-0.1836-1.1436-0.9756-1.1436c-0.7109,0-1.0234,0.6558-1.0791,1.1436H177.8989z"/>
</g>
<g>
	<path fill="#231F20" d="M188.5464,6.7446V1.356h0.7598l1.7275,2.7266c0.3994,0.6309,0.7109,1.1992,0.9668,1.751l0.0156-0.0088
		c-0.0635-0.7188-0.0791-1.375-0.0791-2.2148V1.356h0.6553v5.3887h-0.7031l-1.7109-2.7344
		c-0.377-0.5996-0.7363-1.2158-1.0078-1.7988l-0.0234,0.0078c0.0391,0.6797,0.0547,1.3271,0.0547,2.2227v2.3027H188.5464z"/>
	<path fill="#231F20" d="M197.2886,4.7778c0,1.4307-0.9912,2.0547-1.9268,2.0547c-1.0479,0-1.8555-0.7676-1.8555-1.9912
		c0-1.2949,0.8477-2.0547,1.9189-2.0547C196.5366,2.7866,197.2886,3.5942,197.2886,4.7778z M194.2183,4.8179
		c0,0.8477,0.4873,1.4873,1.1748,1.4873c0.6719,0,1.1758-0.6318,1.1758-1.5039c0-0.6553-0.3281-1.4863-1.1592-1.4863
		C194.5776,3.3149,194.2183,4.0825,194.2183,4.8179z"/>
</g>
<g>
	<path fill="#231F20" d="M199.8989,1.4272c0.3516-0.0713,0.8555-0.1113,1.335-0.1113c0.7432,0,1.2236,0.1357,1.5596,0.4395
		c0.2715,0.2402,0.4238,0.6074,0.4238,1.0234c0,0.7119-0.4482,1.1836-1.0156,1.375v0.0244c0.416,0.1436,0.6641,0.5273,0.791,1.0869
		c0.1758,0.752,0.3047,1.2715,0.416,1.4795h-0.7197c-0.0879-0.1523-0.208-0.6152-0.3594-1.2871
		c-0.1602-0.7441-0.4482-1.0234-1.0791-1.0479h-0.6562v2.335h-0.6953V1.4272z M200.5942,3.8823h0.7119
		c0.7432,0,1.2148-0.4082,1.2148-1.0234c0-0.6953-0.5029-1-1.2393-1.0078c-0.3359,0-0.5762,0.0322-0.6875,0.0645V3.8823z"/>
</g>
<g>
	<path fill="#231F20" d="M204.5942,4.938c0.0166,0.9512,0.624,1.3428,1.3281,1.3428c0.5039,0,0.8066-0.0879,1.0703-0.2002
		l0.1211,0.5039c-0.248,0.1123-0.6719,0.2402-1.2881,0.2402c-1.1904,0-1.9033-0.7832-1.9033-1.9512
		c0-1.167,0.6885-2.0869,1.8154-2.0869c1.2637,0,1.5986,1.1113,1.5986,1.8232c0,0.1436-0.0156,0.2559-0.0234,0.3281H204.5942z
		 M206.6577,4.4341c0.0078-0.4482-0.1846-1.1436-0.9756-1.1436c-0.7119,0-1.0234,0.6553-1.0801,1.1436H206.6577z"/>
	<path fill="#231F20" d="M208.1147,6.0249c0.208,0.1357,0.5752,0.2803,0.9268,0.2803c0.5117,0,0.752-0.2559,0.752-0.5762
		c0-0.3359-0.1992-0.5195-0.7188-0.7109c-0.6963-0.248-1.0234-0.6318-1.0234-1.0957c0-0.624,0.5029-1.1357,1.335-1.1357
		c0.3916,0,0.7354,0.1123,0.9512,0.2402l-0.1758,0.5117c-0.1514-0.0957-0.4316-0.2236-0.792-0.2236
		c-0.416,0-0.6475,0.2393-0.6475,0.5273c0,0.3193,0.2314,0.4639,0.7354,0.6553c0.6719,0.2559,1.0156,0.5918,1.0156,1.168
		c0,0.6797-0.5273,1.1592-1.4473,1.1592c-0.4238,0-0.8154-0.1045-1.0869-0.2637L208.1147,6.0249z"/>
	<path fill="#231F20" d="M212.1626,1.7876c0.0078,0.2393-0.168,0.4316-0.4482,0.4316c-0.248,0-0.4238-0.1924-0.4238-0.4316
		c0-0.248,0.1846-0.4404,0.4404-0.4404C211.9946,1.3472,212.1626,1.5396,212.1626,1.7876z M211.3784,6.7446V2.8745h0.7041v3.8701
		H211.3784z"/>
	<path fill="#231F20" d="M213.1548,6.0249c0.208,0.1357,0.5762,0.2803,0.9277,0.2803c0.5117,0,0.752-0.2559,0.752-0.5762
		c0-0.3359-0.2012-0.5195-0.7207-0.7109c-0.6953-0.248-1.0234-0.6318-1.0234-1.0957c0-0.624,0.5039-1.1357,1.3359-1.1357
		c0.3916,0,0.7354,0.1123,0.9512,0.2402l-0.1758,0.5117c-0.1523-0.0957-0.4316-0.2236-0.791-0.2236
		c-0.416,0-0.6484,0.2393-0.6484,0.5273c0,0.3193,0.2324,0.4639,0.7363,0.6553c0.6709,0.2559,1.0146,0.5918,1.0146,1.168
		c0,0.6797-0.5273,1.1592-1.4463,1.1592c-0.4238,0-0.8164-0.1045-1.0879-0.2637L213.1548,6.0249z"/>
	<path fill="#231F20" d="M217.2661,1.7632v1.1113h1.0078v0.5361h-1.0078v2.0869c0,0.4795,0.1357,0.751,0.5273,0.751
		c0.1846,0,0.3203-0.0234,0.4082-0.0479l0.0322,0.5283c-0.1357,0.0557-0.3525,0.0957-0.624,0.0957
		c-0.3281,0-0.5918-0.1045-0.7598-0.2959c-0.1992-0.208-0.2715-0.5518-0.2715-1.0078V3.4106h-0.5996V2.8745h0.5996V1.9478
		L217.2661,1.7632z"/>
	<path fill="#231F20" d="M221.2095,6.7446l-0.0566-0.4873h-0.0234c-0.2158,0.3037-0.6318,0.5752-1.1836,0.5752
		c-0.7832,0-1.1836-0.5518-1.1836-1.1113c0-0.9355,0.832-1.4473,2.3271-1.4395V4.2017c0-0.3193-0.0879-0.8955-0.8799-0.8955
		c-0.3594,0-0.7354,0.1123-1.0068,0.2881l-0.1602-0.4639c0.3193-0.208,0.7842-0.3438,1.2715-0.3438
		c1.1826,0,1.4717,0.8076,1.4717,1.583v1.4473c0,0.3359,0.0156,0.6641,0.0635,0.9277H221.2095z M221.106,4.77
		c-0.7676-0.0166-1.6396,0.1191-1.6396,0.8711c0,0.4561,0.3037,0.6719,0.6631,0.6719c0.5039,0,0.8242-0.3203,0.9355-0.6475
		c0.0244-0.0723,0.041-0.1523,0.041-0.2246V4.77z"/>
	<path fill="#231F20" d="M222.9224,3.9224c0-0.4004-0.0078-0.7275-0.0312-1.0479h0.623l0.04,0.6396h0.0166
		c0.1914-0.3672,0.6387-0.7275,1.2783-0.7275c0.5361,0,1.3672,0.3203,1.3672,1.6475v2.3105h-0.7031V4.5142
		c0-0.624-0.2324-1.1436-0.8955-1.1436c-0.4639,0-0.8242,0.3281-0.9434,0.7197c-0.0322,0.0879-0.0488,0.208-0.0488,0.3271v2.3271
		h-0.7031V3.9224z"/>
</g>
<g>
	<path fill="#231F20" d="M230.1206,6.6011c-0.1836,0.0957-0.5918,0.2236-1.1113,0.2236c-1.167,0-1.9268-0.792-1.9268-1.9746
		c0-1.1914,0.8154-2.0557,2.0791-2.0557c0.416,0,0.7832,0.1045,0.9756,0.2002l-0.1602,0.5439
		c-0.168-0.0957-0.4316-0.1846-0.8154-0.1846c-0.8877,0-1.3672,0.6562-1.3672,1.4639c0,0.8955,0.5752,1.4473,1.3428,1.4473
		c0.4004,0,0.6641-0.1045,0.8643-0.1924L230.1206,6.6011z"/>
</g>
<g>
	<path fill="#231F20" d="M231.2983,4.938c0.0156,0.9512,0.623,1.3428,1.3271,1.3428c0.5039,0,0.8076-0.0879,1.0713-0.2002
		l0.1201,0.5039c-0.248,0.1123-0.6719,0.2402-1.2871,0.2402c-1.1914,0-1.9033-0.7832-1.9033-1.9512
		c0-1.167,0.6875-2.0869,1.8154-2.0869c1.2627,0,1.5986,1.1113,1.5986,1.8232c0,0.1436-0.0156,0.2559-0.0234,0.3281H231.2983z
		 M233.3608,4.4341c0.0078-0.4482-0.1836-1.1436-0.9756-1.1436c-0.7109,0-1.0234,0.6553-1.0791,1.1436H233.3608z"/>
</g>
<g>
	<path fill="#231F20" d="M240.4009,6.5688c-0.2559,0.1279-0.7676,0.2559-1.4238,0.2559c-1.5186,0-2.6621-0.96-2.6621-2.7266
		c0-1.6875,1.1436-2.8301,2.8145-2.8301c0.6709,0,1.0947,0.1436,1.2793,0.2393l-0.168,0.5674
		c-0.2637-0.127-0.6396-0.2236-1.0879-0.2236c-1.2627,0-2.1025,0.8076-2.1025,2.2227c0,1.3193,0.7598,2.167,2.0713,2.167
		c0.4229,0,0.8555-0.0879,1.1348-0.2236L240.4009,6.5688z"/>
</g>
<g>
	<path fill="#231F20" d="M244.6733,4.7778c0,1.4307-0.9912,2.0547-1.9268,2.0547c-1.0479,0-1.8555-0.7676-1.8555-1.9912
		c0-1.2949,0.8477-2.0547,1.9189-2.0547C243.9214,2.7866,244.6733,3.5942,244.6733,4.7778z M241.603,4.8179
		c0,0.8477,0.4873,1.4873,1.1748,1.4873c0.6719,0,1.1758-0.6318,1.1758-1.5039c0-0.6553-0.3281-1.4863-1.1592-1.4863
		C241.9624,3.3149,241.603,4.0825,241.603,4.8179z"/>
	<path fill="#231F20" d="M245.563,3.9224c0-0.4004-0.0088-0.7275-0.0322-1.0479h0.624l0.04,0.6396h0.0156
		c0.1914-0.3672,0.6396-0.7275,1.2793-0.7275c0.5352,0,1.3672,0.3203,1.3672,1.6475v2.3105h-0.7041V4.5142
		c0-0.624-0.2314-1.1436-0.8955-1.1436c-0.4629,0-0.8232,0.3281-0.9434,0.7197c-0.0312,0.0879-0.0479,0.208-0.0479,0.3271v2.3271
		h-0.7031V3.9224z"/>
</g>
<g>
	<path fill="#231F20" d="M250.0747,6.7446v-3.334h-0.543V2.8745h0.543V2.6909c0-0.5439,0.1201-1.0391,0.4482-1.3516
		c0.2637-0.2559,0.6152-0.3594,0.9434-0.3594c0.248,0,0.4639,0.0557,0.5996,0.1113l-0.0957,0.5439
		c-0.1045-0.0479-0.248-0.0879-0.4482-0.0879c-0.5996,0-0.751,0.5273-0.751,1.1191v0.208h0.9355v0.5361h-0.9355v3.334H250.0747z"/>
</g>
<g>
	<path fill="#231F20" d="M252.6343,4.938c0.0156,0.9512,0.623,1.3428,1.3271,1.3428c0.5039,0,0.8076-0.0879,1.0713-0.2002
		l0.1201,0.5039c-0.248,0.1123-0.6719,0.2402-1.2871,0.2402c-1.1914,0-1.9033-0.7832-1.9033-1.9512
		c0-1.167,0.6875-2.0869,1.8154-2.0869c1.2627,0,1.5986,1.1113,1.5986,1.8232c0,0.1436-0.0156,0.2559-0.0234,0.3281H252.6343z
		 M254.6968,4.4341c0.0078-0.4482-0.1836-1.1436-0.9756-1.1436c-0.7109,0-1.0234,0.6553-1.0791,1.1436H254.6968z"/>
</g>
<g>
	<path fill="#231F20" d="M256.2515,4.0825c0-0.4561-0.0078-0.8477-0.0322-1.208h0.6152l0.0244,0.7598h0.0322
		c0.1758-0.5195,0.5996-0.8477,1.0713-0.8477c0.0801,0,0.1357,0.0078,0.1992,0.0244v0.6631
		c-0.0713-0.0156-0.1436-0.0234-0.2393-0.0234c-0.4961,0-0.8477,0.376-0.9434,0.9033c-0.0166,0.0957-0.0322,0.208-0.0322,0.3281
		v2.0625h-0.6953V4.0825z"/>
</g>
<g>
	<path fill="#231F20" d="M258.8989,4.0825c0-0.4561-0.0088-0.8477-0.0322-1.208h0.6152l0.0244,0.7598h0.0322
		c0.1758-0.5195,0.5996-0.8477,1.0713-0.8477c0.0801,0,0.1357,0.0078,0.2002,0.0244v0.6631
		c-0.0723-0.0156-0.1445-0.0234-0.2402-0.0234c-0.4961,0-0.8477,0.376-0.9434,0.9033c-0.0166,0.0957-0.0322,0.208-0.0322,0.3281
		v2.0625h-0.6953V4.0825z"/>
</g>
<g>
	<path fill="#231F20" d="M261.8345,4.938c0.0156,0.9512,0.624,1.3428,1.3271,1.3428c0.5039,0,0.8076-0.0879,1.0713-0.2002
		l0.1201,0.5039c-0.248,0.1123-0.6719,0.2402-1.2871,0.2402c-1.1914,0-1.9033-0.7832-1.9033-1.9512
		c0-1.167,0.6875-2.0869,1.8154-2.0869c1.2627,0,1.5986,1.1113,1.5986,1.8232c0,0.1436-0.0156,0.2559-0.0234,0.3281H261.8345z
		 M263.897,4.4341c0.0078-0.4482-0.1836-1.1436-0.9756-1.1436c-0.7109,0-1.0234,0.6553-1.0791,1.1436H263.897z"/>
	<path fill="#231F20" d="M268.7925,1.0679v4.6777c0,0.3438,0.0078,0.7354,0.0322,0.999h-0.6318l-0.0322-0.6719h-0.0156
		c-0.2158,0.4316-0.6875,0.7598-1.3193,0.7598c-0.9355,0-1.6553-0.791-1.6553-1.9668c-0.0078-1.2871,0.792-2.0791,1.7354-2.0791
		c0.5918,0,0.9912,0.2803,1.167,0.5918h0.0166V1.0679H268.7925z M268.0894,4.4497c0-0.0879-0.0088-0.208-0.0322-0.2959
		c-0.1045-0.4473-0.4883-0.8154-1.0156-0.8154c-0.7275,0-1.1592,0.6396-1.1592,1.4951c0,0.7842,0.3838,1.4316,1.1436,1.4316
		c0.4717,0,0.9033-0.3125,1.0312-0.8398c0.0234-0.0957,0.0322-0.1914,0.0322-0.3037V4.4497z"/>
</g>
<g>
	<path fill="#231F20" d="M37.2402,40.8594c0,1.1382-0.771,2.061-1.7202,2.061h-6.3989c-0.9497,0-1.7197-0.9229-1.7197-2.061
		c0-1.1392,0.77-2.062,1.7197-2.062H35.52C36.4692,38.7974,37.2402,39.7202,37.2402,40.8594"/>
	<line fill="none" stroke="#231F20" stroke-width="1.874" x1="10.4219" y1="33.1328" x2="23.6196" y2="38.9907"/>
	<path fill="#231F20" d="M26.2041,40.1387c-1.416-0.0889-3.2671,0.0107-4.563,0.4111l1.6401-1.709l0.167-2.3633
		C24.021,37.7075,25.188,39.1475,26.2041,40.1387"/>
	<line fill="none" stroke="#231F20" stroke-width="1.874" x1="30.2808" y1="44.5889" x2="30.3608" y2="49.4341"/>
	<path fill="#231F20" d="M30.4077,52.2607c-0.5161-1.3218-1.3848-2.959-2.293-3.9668l2.2397,0.7686l2.2144-0.8418
		C31.6938,49.2578,30.8789,50.9219,30.4077,52.2607"/>
	<path fill="#231F20" d="M37.4595,80.668l5.0312-0.002l-0.0352,0.0088c4.2988-1.665,5.8418-5.437,3.4453-8.4238
		c-0.8027-1.002-1.9902-1.8281-3.4297-2.3892l0.0342,0.0083h-4.98"/>
	<path fill="none" stroke="#010101" stroke-width="0.255" d="M37.4595,80.668l5.0312-0.002l-0.0352,0.0088
		c4.2988-1.665,5.8418-5.437,3.4453-8.4238c-0.8027-1.002-1.9902-1.8281-3.4297-2.3892l0.0342,0.0083h-4.98"/>
	<line fill="none" stroke="#231F20" stroke-width="1.874" x1="46.2397" y1="75.2393" x2="50.8296" y2="75.2393"/>
	<path fill="#231F20" d="M53.6577,75.2393c-1.3301,0.4932-2.9814,1.3359-4.0049,2.228l0.8066-2.228l-0.8066-2.228
		C50.6763,73.9033,52.3276,74.7461,53.6577,75.2393"/>
</g>
<g>
	<path fill="#231F20" d="M54.7563,76.9707c0.3115,0.1919,0.7676,0.3521,1.2471,0.3521c0.7119,0,1.1279-0.376,1.1279-0.9194
		c0-0.5039-0.2881-0.792-1.0156-1.0718c-0.8799-0.3115-1.4238-0.7676-1.4238-1.5269c0-0.8398,0.6963-1.4634,1.7432-1.4634
		c0.5518,0,0.9521,0.1279,1.1914,0.2642l-0.1914,0.5674c-0.1758-0.0957-0.5361-0.2559-1.0234-0.2559
		c-0.7354,0-1.0156,0.4399-1.0156,0.8076c0,0.5039,0.3281,0.7515,1.0713,1.0396c0.9121,0.3516,1.375,0.7915,1.375,1.583
		c0,0.8315-0.6152,1.5513-1.8867,1.5513c-0.5195,0-1.0869-0.1519-1.375-0.3438L54.7563,76.9707z"/>
	<path fill="#231F20" d="M62.0112,76.7627c0,0.3999,0.0078,0.752,0.0312,1.0557h-0.623l-0.04-0.6318h-0.0166
		c-0.1836,0.312-0.5908,0.7197-1.2793,0.7197c-0.6074,0-1.335-0.3359-1.335-1.6948v-2.2632h0.7041v2.1431
		c0,0.7358,0.2236,1.2314,0.8633,1.2314c0.4717,0,0.7998-0.3281,0.9277-0.6396c0.04-0.104,0.0635-0.2319,0.0635-0.3599v-2.375
		h0.7041V76.7627z"/>
</g>
<g>
	<path fill="#231F20" d="M63.1802,75.1558c0-0.4556-0.0078-0.8477-0.0322-1.2075h0.6152l0.0244,0.7598h0.0322
		c0.1758-0.5195,0.5996-0.8477,1.0713-0.8477c0.0801,0,0.1357,0.0083,0.1992,0.0244v0.6636
		c-0.0713-0.0161-0.1436-0.0239-0.2393-0.0239c-0.4961,0-0.8477,0.3755-0.9434,0.9033c-0.0166,0.0957-0.0322,0.208-0.0322,0.3276
		v2.063h-0.6953V75.1558z"/>
</g>
<g>
	<path fill="#231F20" d="M66.2681,73.9482l0.7598,2.1748c0.1279,0.3521,0.2314,0.6719,0.3115,0.9917h0.0244
		c0.0879-0.3198,0.1992-0.6396,0.3271-0.9917l0.752-2.1748h0.7354l-1.5186,3.8701h-0.6719l-1.4717-3.8701H66.2681z"/>
	<path fill="#231F20" d="M70.6274,72.8613c0.0078,0.2397-0.168,0.4316-0.4473,0.4316c-0.248,0-0.4238-0.1919-0.4238-0.4316
		c0-0.248,0.1836-0.4399,0.4395-0.4399C70.4595,72.4214,70.6274,72.6133,70.6274,72.8613z M69.8442,77.8184v-3.8701h0.7031v3.8701
		H69.8442z"/>
</g>
<g>
	<path fill="#231F20" d="M71.9878,73.9482l0.7598,2.1748c0.1279,0.3521,0.2314,0.6719,0.3115,0.9917h0.0244
		c0.0879-0.3198,0.1992-0.6396,0.3271-0.9917l0.752-2.1748h0.7354l-1.5186,3.8701h-0.6719l-1.4717-3.8701H71.9878z"/>
</g>
<g>
	<path fill="#231F20" d="M77.6753,77.8184l-0.0557-0.4878h-0.0244c-0.2158,0.3037-0.6318,0.5757-1.1836,0.5757
		c-0.7832,0-1.1826-0.5518-1.1826-1.1113c0-0.9355,0.8311-1.4473,2.3262-1.4395v-0.0796c0-0.3198-0.0879-0.8955-0.8789-0.8955
		c-0.3604,0-0.7363,0.1118-1.0078,0.2876l-0.1602-0.4639c0.3203-0.2075,0.7832-0.3438,1.2715-0.3438
		c1.1836,0,1.4707,0.8076,1.4707,1.5835v1.4468c0,0.3359,0.0166,0.6641,0.0645,0.9277H77.6753z M77.5708,75.8433
		c-0.7676-0.0156-1.6387,0.1201-1.6387,0.8716c0,0.4561,0.3037,0.6719,0.6641,0.6719c0.5029,0,0.8232-0.3198,0.9355-0.6479
		c0.0234-0.0718,0.0391-0.1519,0.0391-0.2236V75.8433z"/>
	<path fill="#231F20" d="M79.3892,72.1416h0.7031v5.6768h-0.7031V72.1416z"/>
</g>
<g>
	<path fill="#D1D3D4" d="M43.0181,77.8184c-0.1514-0.1519-0.2959-0.3037-0.5029-0.5278c-0.4639,0.4321-0.9834,0.6157-1.5752,0.6157
		c-1.0479,0-1.6553-0.7036-1.6553-1.5112c0-0.7354,0.4395-1.2393,1.0557-1.5752v-0.0239c-0.2803-0.3516-0.4482-0.7437-0.4482-1.1274
		c0-0.6553,0.4717-1.3271,1.3672-1.3271c0.6719,0,1.1914,0.4478,1.1914,1.1436c0,0.5674-0.3281,1.0151-1.1836,1.439v0.0239
		c0.4561,0.5278,0.9678,1.1196,1.3115,1.5034c0.248-0.376,0.416-0.8955,0.5195-1.5752h0.6396
		c-0.1436,0.8477-0.376,1.519-0.7754,1.9907c0.2881,0.3042,0.5674,0.6079,0.8877,0.9517H43.0181z M42.1704,76.8906
		c-0.3193-0.3516-0.9189-1.0073-1.5186-1.6948c-0.2881,0.1841-0.6953,0.5278-0.6953,1.0952c0,0.6157,0.4551,1.0874,1.1025,1.0874
		C41.5229,77.3784,41.9146,77.1709,42.1704,76.8906z M40.5317,73.6045c0,0.3838,0.1758,0.6797,0.4082,0.9678
		c0.543-0.312,0.8955-0.5996,0.8955-1.0557c0-0.3276-0.1846-0.6953-0.624-0.6953C40.7642,72.8213,40.5317,73.189,40.5317,73.6045z"
		/>
</g>
<line fill="none" stroke="#231F20" stroke-width="1.874" x1="10.2505" y1="63.2529" x2="10.2505" y2="77.8179"/>
<line fill="none" stroke="#231F20" stroke-width="1.874" stroke-linecap="round" x1="10.2505" y1="77.8184" x2="37.4595" y2="77.8184"/>
<line fill="none" stroke="#231F20" stroke-width="1.874" x1="27.4009" y1="63.2529" x2="27.4009" y2="72.5068"/>
<line fill="none" stroke="#231F20" stroke-width="1.874" stroke-linecap="round" x1="27.4009" y1="72.5068" x2="37.5898" y2="72.5068"/>
<line fill="none" stroke="#231F20" stroke-width="1.874" x1="127.1353" y1="27.6924" x2="142.6343" y2="27.6924"/>
<path fill="#231F20" d="M145.4624,27.6924c-1.3301,0.4932-2.9814,1.3359-4.0049,2.229l0.8066-2.229l-0.8066-2.229
	C142.481,26.3564,144.1323,27.1992,145.4624,27.6924"/>
<line fill="none" stroke="#231F20" stroke-width="1.874" x1="145.2417" y1="42.7637" x2="147.5552" y2="51.5635"/>
<path fill="#231F20" d="M148.272,54.2979c-0.8145-1.1611-2.0488-2.5439-3.1719-3.3066l2.3594,0.2139l1.9502-1.3457
	C148.8071,51.0752,148.4116,52.8857,148.272,54.2979"/>
<line fill="none" stroke="#D1D3D4" stroke-width="1.874" x1="169.1343" y1="29.6924" x2="163.8843" y2="29.6924"/>
<path fill="#D1D3D4" d="M161.0581,29.6924c1.3291-0.4932,2.9805-1.3359,4.0039-2.229l-0.8066,2.229l0.8066,2.229
	C164.0386,31.0283,162.3872,30.1855,161.0581,29.6924"/>
<line fill="none" stroke="#D1D3D4" stroke-width="1.874" x1="170.0776" y1="33.2217" x2="162.3843" y2="55.5635"/>
<path fill="#D1D3D4" d="M161.4644,58.2363c-0.0342-1.418-0.292-3.2529-0.8027-4.5107l1.8438,1.4873l2.3691-0.0371
	C163.6978,55.8535,162.3638,57.1396,161.4644,58.2363"/>
<line fill="none" stroke="#D1D3D4" stroke-width="1.874" x1="105.8911" y1="31.1533" x2="145.3989" y2="31.1533"/>
<path fill="#D1D3D4" d="M148.2251,31.1533c-1.3291,0.4932-2.9795,1.3359-4.0039,2.229l0.8066-2.229l-0.8066-2.229
	C145.2456,29.8174,146.896,30.6602,148.2251,31.1533"/>
<line fill="none" stroke="#231F20" stroke-width="1.874" x1="137.3003" y1="41.9805" x2="128.0513" y2="52.0234"/>
<path fill="#231F20" d="M126.1372,54.1035c0.5371-1.3115,1.0371-3.0977,1.0742-4.4541l1.0918,2.1016l2.1846,0.916
	C129.1392,52.8154,127.4009,53.459,126.1372,54.1035"/>
<line fill="none" stroke="#D1D3D4" stroke-width="1.874" x1="100.8091" y1="32.0293" x2="100.8091" y2="52.4717"/>
<path fill="#D1D3D4" d="M100.8091,55.2988c-0.4941-1.3301-1.3359-2.9795-2.2285-4.0039l2.2285,0.8057l2.2275-0.8057
	C102.145,52.3193,101.3032,53.9688,100.8091,55.2988"/>
<line fill="none" stroke="#231F20" stroke-width="1.874" x1="152.8042" y1="33.377" x2="152.8843" y2="49.2217"/>
<path fill="#231F20" d="M152.8989,52.0488c-0.5-1.3281-1.3506-2.9746-2.248-3.9922l2.2324,0.7939l2.2236-0.8164
	C154.2202,49.0615,153.3862,50.7158,152.8989,52.0488"/>
<line fill="none" stroke="#231F20" stroke-width="1.874" x1="119.9614" y1="29.3389" x2="105.8921" y2="52.4717"/>
<path fill="#231F20" d="M104.4224,54.8877c0.2695-1.3955,0.4082-3.2412,0.1777-4.5791l1.4844,1.8457l2.3223,0.4697
	C107.1118,53.0332,105.5356,54.0068,104.4224,54.8877"/>
<line fill="none" stroke="#231F20" stroke-width="1.874" x1="124.4946" y1="33.377" x2="133.9927" y2="37.2798"/>
<path fill="#231F20" d="M136.6079,38.3555c-1.418-0.0498-3.2646,0.103-4.5498,0.5381l1.5918-1.7539l0.1006-2.3672
	C134.3579,35.9863,135.5649,37.3926,136.6079,38.3555"/>
<path fill="#231F20" d="M159.0952,30.4639c0,1.1392-0.7705,2.061-1.7207,2.061h-6.3984c-0.9502,0-1.7207-0.9219-1.7207-2.061
	s0.7705-2.063,1.7207-2.063h6.3984C158.3247,28.4009,159.0952,29.3247,159.0952,30.4639"/>
<path fill="#231F20" d="M147.5542,39.4443c0,1.1392-0.7705,2.0605-1.7197,2.0605h-6.3994c-0.9502,0-1.7197-0.9214-1.7197-2.0605
	s0.7695-2.063,1.7197-2.063h6.3994C146.7837,37.3813,147.5542,38.3052,147.5542,39.4443"/>
<path fill="#231F20" d="M107.811,58.8047c0,1.1377-0.7715,2.0605-1.7207,2.0605h-6.3984c-0.9502,0-1.7207-0.9229-1.7207-2.0605
	c0-1.1387,0.7705-2.0635,1.7207-2.0635h6.3984C107.0396,56.7412,107.811,57.666,107.811,58.8047"/>
<path fill="#D1D3D4" d="M129.8804,40.251c0,1.1377-0.7705,2.0605-1.7197,2.0605h-6.3994c-0.9502,0-1.7197-0.9229-1.7197-2.0605
	c0-1.1392,0.7695-2.063,1.7197-2.063h6.3994C129.1099,38.188,129.8804,39.1118,129.8804,40.251"/>
<line fill="none" stroke="#D1D3D4" stroke-width="1.874" x1="103.062" y1="32.5244" x2="116.2603" y2="38.3813"/>
<path fill="#D1D3D4" d="M118.8442,39.5303c-1.416-0.0889-3.2676,0.0107-4.5625,0.4111l1.6396-1.709l0.167-2.3633
	C116.6606,37.0981,117.8286,38.5391,118.8442,39.5303"/>
<line fill="none" stroke="#D1D3D4" stroke-width="1.874" x1="122.9204" y1="43.9805" x2="123.0005" y2="48.8252"/>
<path fill="#D1D3D4" d="M123.0474,51.6523c-0.5156-1.3223-1.3848-2.959-2.293-3.9668l2.2402,0.7686l2.2148-0.8418
	C124.3345,48.6494,123.519,50.3135,123.0474,51.6523"/>
<path fill="#231F20" d="M130.1001,80.0596l5.0303-0.002l-0.0352,0.0088c4.2998-1.665,5.8428-5.4365,3.4453-8.4238
	c-0.8018-1.002-1.9902-1.8281-3.4287-2.3887l0.0342,0.0078h-4.9805"/>
<path fill="none" stroke="#010101" stroke-width="0.255" d="M130.1001,80.0596l5.0303-0.002l-0.0352,0.0088
	c4.2998-1.665,5.8428-5.4365,3.4453-8.4238c-0.8018-1.002-1.9902-1.8281-3.4287-2.3887l0.0342,0.0078h-4.9805"/>
<line fill="none" stroke="#231F20" stroke-width="1.874" x1="138.8794" y1="74.6309" x2="143.4702" y2="74.6309"/>
<path fill="#231F20" d="M146.2974,74.6309c-1.3301,0.4932-2.9814,1.3359-4.0039,2.2275l0.8057-2.2275l-0.8057-2.2275
	C143.3159,73.2949,144.9673,74.1377,146.2974,74.6309"/>
<g>
	<path fill="#231F20" d="M147.396,76.3623c0.3115,0.1924,0.7676,0.3516,1.2471,0.3516c0.7119,0,1.1279-0.375,1.1279-0.9189
		c0-0.5039-0.2881-0.792-1.0156-1.0713c-0.8799-0.3125-1.4238-0.7676-1.4238-1.5273c0-0.8398,0.6963-1.4629,1.7432-1.4629
		c0.5518,0,0.9521,0.1279,1.1914,0.2637l-0.1914,0.5674c-0.1758-0.0957-0.5361-0.2559-1.0234-0.2559
		c-0.7354,0-1.0156,0.4395-1.0156,0.8076c0,0.5039,0.3281,0.752,1.0713,1.0391c0.9121,0.3525,1.375,0.792,1.375,1.584
		c0,0.8311-0.6152,1.5508-1.8867,1.5508c-0.5195,0-1.0869-0.1523-1.375-0.3438L147.396,76.3623z"/>
	<path fill="#231F20" d="M154.6509,76.1543c0,0.4004,0.0078,0.752,0.0312,1.0557h-0.623l-0.04-0.6318h-0.0166
		c-0.1836,0.3115-0.5908,0.7197-1.2793,0.7197c-0.6074,0-1.335-0.3359-1.335-1.6953v-2.2627h0.7041v2.1436
		c0,0.7354,0.2236,1.2305,0.8633,1.2305c0.4717,0,0.7998-0.3271,0.9277-0.6396c0.04-0.1035,0.0635-0.2314,0.0635-0.3594v-2.375
		h0.7041V76.1543z"/>
</g>
<g>
	<path fill="#231F20" d="M155.8198,74.5479c0-0.4561-0.0078-0.8477-0.0322-1.208h0.6152l0.0244,0.7598h0.0322
		c0.1758-0.5195,0.5996-0.8477,1.0713-0.8477c0.0801,0,0.1357,0.0078,0.1992,0.0244v0.6631
		c-0.0713-0.0156-0.1436-0.0234-0.2393-0.0234c-0.4961,0-0.8477,0.376-0.9434,0.9033c-0.0166,0.0957-0.0322,0.208-0.0322,0.3281
		V77.21h-0.6953V74.5479z"/>
</g>
<g>
	<path fill="#231F20" d="M158.9077,73.3398l0.7598,2.1748c0.1279,0.3516,0.2314,0.6719,0.3115,0.9922h0.0244
		c0.0879-0.3203,0.1992-0.6406,0.3271-0.9922l0.752-2.1748h0.7354l-1.5186,3.8701h-0.6719l-1.4717-3.8701H158.9077z"/>
	<path fill="#231F20" d="M163.2671,72.2529c0.0078,0.2393-0.168,0.4316-0.4473,0.4316c-0.248,0-0.4238-0.1924-0.4238-0.4316
		c0-0.248,0.1836-0.4404,0.4395-0.4404C163.0991,71.8125,163.2671,72.0049,163.2671,72.2529z M162.4839,77.21v-3.8701h0.7031V77.21
		H162.4839z"/>
</g>
<g>
	<path fill="#231F20" d="M164.6274,73.3398l0.7598,2.1748c0.1279,0.3516,0.2314,0.6719,0.3115,0.9922h0.0244
		c0.0879-0.3203,0.1992-0.6406,0.3271-0.9922l0.752-2.1748h0.7354L166.019,77.21h-0.6719l-1.4717-3.8701H164.6274z"/>
</g>
<g>
	<path fill="#231F20" d="M170.3149,77.21l-0.0557-0.4873h-0.0244c-0.2158,0.3037-0.6318,0.5752-1.1836,0.5752
		c-0.7832,0-1.1826-0.5518-1.1826-1.1113c0-0.9355,0.8311-1.4473,2.3262-1.4395V74.667c0-0.3193-0.0879-0.8955-0.8789-0.8955
		c-0.3604,0-0.7363,0.1123-1.0078,0.2881l-0.1602-0.4639c0.3203-0.208,0.7832-0.3438,1.2715-0.3438
		c1.1836,0,1.4707,0.8076,1.4707,1.583v1.4473c0,0.3359,0.0166,0.6641,0.0645,0.9277H170.3149z M170.2104,75.2354
		c-0.7676-0.0166-1.6387,0.1191-1.6387,0.8711c0,0.4561,0.3037,0.6719,0.6641,0.6719c0.5029,0,0.8232-0.3203,0.9355-0.6475
		c0.0234-0.0723,0.0391-0.1523,0.0391-0.2246V75.2354z"/>
	<path fill="#231F20" d="M172.0288,71.5332h0.7031V77.21h-0.7031V71.5332z"/>
</g>
<g>
	<path fill="#D1D3D4" d="M135.6577,77.21c-0.1514-0.1523-0.2959-0.3037-0.5029-0.5273c-0.4639,0.4316-0.9834,0.6152-1.5752,0.6152
		c-1.0479,0-1.6553-0.7031-1.6553-1.5107c0-0.7363,0.4395-1.2393,1.0557-1.5752v-0.0244c-0.2803-0.3516-0.4482-0.7432-0.4482-1.127
		c0-0.6562,0.4717-1.3271,1.3672-1.3271c0.6719,0,1.1914,0.4473,1.1914,1.1426c0,0.5684-0.3281,1.0156-1.1836,1.4395v0.0244
		c0.4561,0.5273,0.9678,1.1191,1.3115,1.5029c0.248-0.376,0.416-0.8955,0.5195-1.5752h0.6396
		c-0.1436,0.8477-0.376,1.5195-0.7754,1.9912c0.2881,0.3037,0.5674,0.6074,0.8877,0.9512H135.6577z M134.8101,76.2822
		c-0.3193-0.3516-0.9189-1.0068-1.5186-1.6953c-0.2881,0.1846-0.6953,0.5283-0.6953,1.0957c0,0.6162,0.4551,1.0879,1.1025,1.0879
		C134.1626,76.7705,134.5542,76.5625,134.8101,76.2822z M133.1714,72.9961c0,0.3838,0.1758,0.6797,0.4082,0.9678
		c0.543-0.3115,0.8955-0.5996,0.8955-1.0557c0-0.3281-0.1846-0.6953-0.624-0.6953
		C133.4038,72.2129,133.1714,72.5801,133.1714,72.9961z"/>
</g>
<line fill="none" stroke="#231F20" stroke-width="1.874" x1="102.8911" y1="62.6445" x2="102.8911" y2="77.21"/>
<line fill="none" stroke="#231F20" stroke-width="1.874" stroke-linecap="round" x1="102.8911" y1="77.21" x2="130.1001" y2="77.21"/>
<line fill="none" stroke="#231F20" stroke-width="1.874" x1="120.0415" y1="62.6445" x2="120.0415" y2="71.8984"/>
<line fill="none" stroke="#231F20" stroke-width="1.874" stroke-linecap="round" x1="120.0415" y1="71.8984" x2="130.23" y2="71.8984"/>
<line fill="none" stroke="#D1D3D4" stroke-width="1.874" x1="220.0151" y1="28.1714" x2="235.5151" y2="28.1714"/>
<path fill="#D1D3D4" d="M238.3423,28.1714c-1.3301,0.4932-2.9814,1.3359-4.0039,2.2275l0.8057-2.2275l-0.8057-2.2285
	C235.3608,26.8354,237.0122,27.6782,238.3423,28.1714"/>
<line fill="none" stroke="#D1D3D4" stroke-width="1.874" x1="238.1226" y1="43.2427" x2="240.4341" y2="52.0425"/>
<path fill="#D1D3D4" d="M241.1528,54.7769c-0.8154-1.1611-2.0488-2.5439-3.1719-3.3066l2.3604,0.2139l1.9482-1.3457
	C241.688,51.5542,241.2915,53.3647,241.1528,54.7769"/>
<line fill="none" stroke="#231F20" stroke-width="1.874" x1="263.0151" y1="30.1714" x2="256.7651" y2="30.1714"/>
<path fill="#231F20" d="M253.938,30.1714c1.3301-0.4941,2.9814-1.3359,4.0039-2.2285l-0.8057,2.2285l0.8057,2.2275
	C256.9194,31.5073,255.2681,30.6646,253.938,30.1714"/>
<line fill="none" stroke="#231F20" stroke-width="1.874" x1="263.9585" y1="33.7007" x2="255.2651" y2="56.0425"/>
<path fill="#231F20" d="M254.2397,58.6768c0.0205-1.4185-0.1641-3.2622-0.624-4.5386l1.7842,1.5586l2.3682,0.0566
	C256.5659,56.3833,255.1821,57.6167,254.2397,58.6768"/>
<line fill="none" stroke="#D1D3D4" stroke-width="1.874" x1="198.772" y1="31.6323" x2="238.2788" y2="31.6323"/>
<path fill="#D1D3D4" d="M241.106,31.6323c-1.3301,0.4932-2.9814,1.3359-4.0039,2.2275l0.8057-2.2275l-0.8057-2.2275
	C238.1245,30.2964,239.7759,31.1392,241.106,31.6323"/>
<line fill="none" stroke="#D1D3D4" stroke-width="1.874" x1="230.1802" y1="42.4595" x2="220.9321" y2="52.5024"/>
<path fill="#D1D3D4" d="M219.0171,54.5825c0.5381-1.3115,1.0371-3.0977,1.0742-4.4541l1.0928,2.1016l2.1836,0.916
	C222.019,53.2944,220.2817,53.938,219.0171,54.5825"/>
<line fill="none" stroke="#D1D3D4" stroke-width="1.874" x1="193.689" y1="32.5083" x2="193.689" y2="52.9507"/>
<path fill="#D1D3D4" d="M193.689,55.7778c-0.4941-1.3301-1.3359-2.9805-2.2295-4.0039l2.2295,0.8057l2.2275-0.8057
	C195.0249,52.7974,194.1821,54.4478,193.689,55.7778"/>
<line fill="none" stroke="#231F20" stroke-width="1.874" x1="245.6851" y1="33.856" x2="245.7651" y2="49.7007"/>
<path fill="#231F20" d="M245.7798,52.5278c-0.5-1.3281-1.3516-2.9736-2.248-3.9922l2.2314,0.7939l2.2246-0.8164
	C247.1001,49.5405,246.2661,51.1948,245.7798,52.5278"/>
<line fill="none" stroke="#D1D3D4" stroke-width="1.874" x1="212.8413" y1="29.8179" x2="198.772" y2="52.9507"/>
<path fill="#D1D3D4" d="M197.3022,55.3667c0.2705-1.3955,0.4082-3.2412,0.1787-4.5791l1.4834,1.8457l2.3213,0.4697
	C199.9927,53.5122,198.4146,54.4858,197.3022,55.3667"/>
<line fill="none" stroke="#D1D3D4" stroke-width="1.874" x1="217.3755" y1="33.856" x2="226.8735" y2="37.7583"/>
<path fill="#D1D3D4" d="M229.4888,38.8335c-1.4189-0.0488-3.2656,0.1025-4.5508,0.5391l1.5928-1.7539l0.1006-2.3672
	C227.2388,36.4653,228.4448,37.8716,229.4888,38.8335"/>
<path fill="#231F20" d="M251.9751,30.9429c0,1.1377-0.7705,2.0615-1.7197,2.0615h-6.3994c-0.9502,0-1.7197-0.9238-1.7197-2.0615
	c0-1.1396,0.7695-2.0625,1.7197-2.0625h6.3994C251.2046,28.8804,251.9751,29.8032,251.9751,30.9429"/>
<path fill="#D1D3D4" d="M240.4341,39.9233c0,1.1377-0.7705,2.0605-1.7197,2.0605h-6.3984c-0.9502,0-1.7207-0.9229-1.7207-2.0605
	c0-1.1396,0.7705-2.0615,1.7207-2.0615h6.3984C239.6636,37.8618,240.4341,38.7837,240.4341,39.9233"/>
<path fill="#D1D3D4" d="M200.6909,59.2842c0,1.1367-0.7705,2.0605-1.7197,2.0605h-6.3994c-0.9502,0-1.7197-0.9238-1.7197-2.0605
	c0-1.1387,0.7695-2.064,1.7197-2.064h6.3994C199.9204,57.2202,200.6909,58.1455,200.6909,59.2842"/>
<path fill="#D1D3D4" d="M222.7612,40.73c0,1.1377-0.7705,2.0605-1.7217,2.0605h-6.3975c-0.9502,0-1.7207-0.9229-1.7207-2.0605
	c0-1.1396,0.7705-2.0625,1.7207-2.0625h6.3975C221.9907,38.6675,222.7612,39.5903,222.7612,40.73"/>
<line fill="none" stroke="#D1D3D4" stroke-width="1.874" x1="195.9429" y1="33.0034" x2="209.1392" y2="38.8618"/>
<path fill="#D1D3D4" d="M211.7251,40.0093c-1.416-0.0889-3.2676,0.0107-4.5625,0.4111l1.6387-1.709l0.167-2.3633
	C209.5415,37.5786,210.7075,39.0181,211.7251,40.0093"/>
<line fill="none" stroke="#D1D3D4" stroke-width="1.874" x1="215.8013" y1="44.4595" x2="215.8813" y2="49.3042"/>
<path fill="#D1D3D4" d="M215.9282,52.1313c-0.5156-1.3223-1.3848-2.959-2.293-3.9668l2.2402,0.7686l2.2139-0.8418
	C217.2144,49.1284,216.3989,50.7925,215.9282,52.1313"/>
<path fill="#D1D3D4" d="M222.98,80.5381l5.0312-0.002l-0.0352,0.0098c4.2988-1.666,5.8418-5.4375,3.4453-8.4238
	c-0.8027-1.002-1.9902-1.8281-3.4297-2.3887l0.0342,0.0078h-4.9805"/>
<path fill="none" stroke="#D1D3D4" stroke-width="0.255" d="M222.98,80.5381l5.0312-0.002l-0.0352,0.0098
	c4.2988-1.666,5.8418-5.4375,3.4453-8.4238c-0.8027-1.002-1.9902-1.8281-3.4297-2.3887l0.0342,0.0078h-4.9805"/>
<line fill="none" stroke="#D1D3D4" stroke-width="1.874" x1="231.7603" y1="75.1104" x2="236.3501" y2="75.1104"/>
<path fill="#D1D3D4" d="M239.1772,75.1104c-1.3291,0.4922-2.9805,1.3359-4.0039,2.2266l0.8066-2.2266l-0.8066-2.2285
	C236.1968,73.7744,237.8481,74.6162,239.1772,75.1104"/>
<g>
	<path fill="#D1D3D4" d="M240.2769,76.8413c0.3115,0.1924,0.7676,0.3516,1.2471,0.3516c0.7119,0,1.1279-0.375,1.1279-0.9189
		c0-0.5039-0.2881-0.792-1.0156-1.0713c-0.8799-0.3125-1.4238-0.7676-1.4238-1.5273c0-0.8398,0.6963-1.4629,1.7432-1.4629
		c0.5518,0,0.9521,0.1279,1.1914,0.2637l-0.1914,0.5674c-0.1758-0.0957-0.5361-0.2559-1.0234-0.2559
		c-0.7354,0-1.0156,0.4395-1.0156,0.8076c0,0.5039,0.3281,0.752,1.0713,1.0391c0.9121,0.3525,1.375,0.792,1.375,1.583
		c0,0.832-0.6152,1.5518-1.8867,1.5518c-0.5195,0-1.0869-0.1523-1.375-0.3438L240.2769,76.8413z"/>
	<path fill="#D1D3D4" d="M247.5317,76.6333c0,0.4004,0.0078,0.752,0.0312,1.0557h-0.623l-0.04-0.6318h-0.0166
		c-0.1836,0.3125-0.5908,0.7197-1.2793,0.7197c-0.6074,0-1.335-0.3359-1.335-1.6953v-2.2627h0.7041v2.1426
		c0,0.7363,0.2236,1.2314,0.8633,1.2314c0.4717,0,0.7998-0.3271,0.9277-0.6396c0.04-0.1035,0.0635-0.2314,0.0635-0.3594v-2.375
		h0.7041V76.6333z"/>
</g>
<g>
	<path fill="#D1D3D4" d="M248.7007,75.0269c0-0.4561-0.0078-0.8477-0.0322-1.208h0.6152l0.0244,0.7598h0.0322
		c0.1758-0.5195,0.5996-0.8477,1.0713-0.8477c0.0801,0,0.1357,0.0078,0.1992,0.0244v0.6631
		c-0.0713-0.0156-0.1436-0.0234-0.2393-0.0234c-0.4961,0-0.8477,0.376-0.9434,0.9033c-0.0166,0.0957-0.0322,0.208-0.0322,0.3281
		v2.0625h-0.6953V75.0269z"/>
</g>
<g>
	<path fill="#D1D3D4" d="M251.7886,73.8188l0.7598,2.1748c0.1279,0.3525,0.2314,0.6719,0.3115,0.9912h0.0244
		c0.0879-0.3193,0.1992-0.6387,0.3271-0.9912l0.752-2.1748h0.7354l-1.5186,3.8701h-0.6719l-1.4717-3.8701H251.7886z"/>
	<path fill="#D1D3D4" d="M256.1479,72.7319c0.0078,0.2393-0.168,0.4316-0.4473,0.4316c-0.248,0-0.4238-0.1924-0.4238-0.4316
		c0-0.248,0.1836-0.4404,0.4395-0.4404C255.98,72.2915,256.1479,72.4839,256.1479,72.7319z M255.3647,77.689v-3.8701h0.7031v3.8701
		H255.3647z"/>
</g>
<g>
	<path fill="#D1D3D4" d="M257.5083,73.8188l0.7598,2.1748c0.1279,0.3525,0.2314,0.6719,0.3115,0.9912h0.0244
		c0.0879-0.3193,0.1992-0.6387,0.3271-0.9912l0.752-2.1748h0.7354l-1.5186,3.8701h-0.6719l-1.4717-3.8701H257.5083z"/>
</g>
<g>
	<path fill="#D1D3D4" d="M263.1958,77.689l-0.0557-0.4873h-0.0244c-0.2158,0.3037-0.6318,0.5752-1.1836,0.5752
		c-0.7832,0-1.1826-0.5518-1.1826-1.1113c0-0.9355,0.8311-1.4473,2.3262-1.4395V75.146c0-0.3193-0.0879-0.8955-0.8789-0.8955
		c-0.3604,0-0.7363,0.1123-1.0078,0.2881l-0.1602-0.4639c0.3203-0.208,0.7832-0.3438,1.2715-0.3438
		c1.1836,0,1.4707,0.8076,1.4707,1.583v1.4473c0,0.3359,0.0166,0.6641,0.0645,0.9277H263.1958z M263.0913,75.7144
		c-0.7676-0.0166-1.6387,0.1201-1.6387,0.8711c0,0.4561,0.3037,0.6719,0.6641,0.6719c0.5029,0,0.8232-0.3203,0.9355-0.6475
		c0.0234-0.0723,0.0391-0.1523,0.0391-0.2246V75.7144z"/>
	<path fill="#D1D3D4" d="M264.9097,72.0122h0.7031v5.6768h-0.7031V72.0122z"/>
</g>
<g>
	<path fill="#808285" d="M228.5386,77.689c-0.1514-0.1523-0.2959-0.3037-0.5029-0.5273c-0.4639,0.4316-0.9834,0.6152-1.5752,0.6152
		c-1.0479,0-1.6553-0.7031-1.6553-1.5107c0-0.7363,0.4395-1.2393,1.0557-1.5752v-0.0244c-0.2803-0.3516-0.4482-0.7432-0.4482-1.127
		c0-0.6562,0.4717-1.3271,1.3672-1.3271c0.6719,0,1.1914,0.4473,1.1914,1.1426c0,0.5684-0.3281,1.0156-1.1836,1.4395v0.0244
		c0.4561,0.5273,0.9678,1.1191,1.3115,1.5029c0.248-0.376,0.416-0.8955,0.5195-1.5752h0.6396
		c-0.1436,0.8477-0.376,1.5195-0.7754,1.9912c0.2881,0.3037,0.5674,0.6074,0.8877,0.9512H228.5386z M227.6909,76.7612
		c-0.3193-0.3516-0.9189-1.0068-1.5186-1.6943c-0.2881,0.1836-0.6953,0.5273-0.6953,1.0947c0,0.6162,0.4551,1.0879,1.1025,1.0879
		C227.0435,77.2495,227.4351,77.0415,227.6909,76.7612z M226.0522,73.4751c0,0.3838,0.1758,0.6797,0.4082,0.9678
		c0.543-0.3115,0.8955-0.5996,0.8955-1.0557c0-0.3281-0.1846-0.6953-0.624-0.6953
		C226.2847,72.6919,226.0522,73.0591,226.0522,73.4751z"/>
</g>
<line fill="none" stroke="#D1D3D4" stroke-width="1.874" x1="195.771" y1="63.124" x2="195.771" y2="77.6885"/>
<line fill="none" stroke="#D1D3D4" stroke-width="1.874" stroke-linecap="round" x1="195.771" y1="77.6885" x2="222.98" y2="77.6885"/>
<line fill="none" stroke="#D1D3D4" stroke-width="1.874" x1="212.9214" y1="63.124" x2="212.9214" y2="72.3779"/>
<line fill="none" stroke="#D1D3D4" stroke-width="1.874" stroke-linecap="round" x1="212.9214" y1="72.3779" x2="223.1099" y2="72.3779"/>
<path fill="#231F20" d="M32.5938,58.832c0,1.1382-0.771,2.061-1.7202,2.061h-6.3989c-0.9497,0-1.7197-0.9229-1.7197-2.061
	c0-1.1401,0.77-2.062,1.7197-2.062h6.3989C31.8228,56.77,32.5938,57.6919,32.5938,58.832"/>
<path fill="#231F20" d="M65.0835,59.4131c0,1.1382-0.7705,2.061-1.7197,2.061h-6.3984c-0.9502,0-1.7207-0.9229-1.7207-2.061
	c0-1.1401,0.7705-2.062,1.7207-2.062h6.3984C64.313,57.3511,65.0835,58.2729,65.0835,59.4131"/>
<path fill="#231F20" d="M125.52,57.9463c0,1.1377-0.7705,2.0605-1.7188,2.0605h-6.4004c-0.9492,0-1.7188-0.9229-1.7188-2.0605
	c0-1.1396,0.7695-2.0625,1.7188-2.0625h6.4004C124.7495,55.8838,125.52,56.8066,125.52,57.9463"/>
<path fill="#231F20" d="M158.0112,58.5273c0,1.1377-0.7705,2.0605-1.7207,2.0605h-6.3994c-0.9492,0-1.7188-0.9229-1.7188-2.0605
	c0-1.1396,0.7695-2.0615,1.7188-2.0615h6.3994C157.2407,56.4658,158.0112,57.3877,158.0112,58.5273"/>
<path fill="#231F20" d="M250.6792,61.3447c0,1.1367-0.7705,2.0605-1.7207,2.0605h-6.3994c-0.9492,0-1.7188-0.9238-1.7188-2.0605
	c0-1.1406,0.7695-2.0625,1.7188-2.0625h6.3994C249.9087,59.2822,250.6792,60.2041,250.6792,61.3447"/>
<path fill="#D1D3D4" d="M218.2017,58.6787c0,1.1367-0.7715,2.0605-1.7207,2.0605h-6.3984c-0.9502,0-1.7207-0.9238-1.7207-2.0605
	c0-1.1392,0.7705-2.063,1.7207-2.063h6.3984C217.4302,56.6157,218.2017,57.5396,218.2017,58.6787"/>
<g>
	<path fill="#6B6B6B" d="M105.6763,23.5029l-1.29-2.2349c-0.5244-0.855-0.8545-1.4102-1.1699-1.9951h-0.0303
		c-0.2852,0.585-0.5703,1.125-1.0947,2.0103l-1.2148,2.2197h-1.5l3.0898-5.1147l-2.9697-4.9946h1.5146l1.335,2.3696
		c0.375,0.6602,0.6602,1.1699,0.9297,1.71h0.0449c0.2852-0.6001,0.541-1.0649,0.916-1.71l1.3789-2.3696h1.5l-3.0742,4.9194
		l3.1494,5.1899H105.6763z"/>
</g>
</svg>
